;TYPE=PLATED
;Layer: PTH_Through
;EasyEDA Pro v3.2.148, 2026-08-02 16:06:32
;Gerber Generator version 0.3
M48
METRIC,LZ,0000.00000
;Hole size 1 = 0.30500 METRIC
T01C0.30500
;Hole size 2 = 0.60000 METRIC
T02C0.60000
;Hole size 3 = 0.70002 METRIC
T03C0.70002
%
G05
G90
T01
X39.93998Y14.224
X33.274Y15.30502
X23.241Y23.62351
X25.781Y14.478
X16.764Y14.986
X25.55Y20.7
X33.46298Y27.686
T02
X6.33904Y24.00993G85X5.43904Y24.00993
X6.33903Y15.35991G85X5.439Y15.35991
X1.98902Y24.00993G85X1.38902Y24.00993
X1.98902Y15.35991G85X1.38902Y15.35991
X32.51893Y33.79296G85X32.51893Y34.69296
X23.86891Y33.79297G85X23.86891Y34.693
X32.51893Y38.14298G85X32.51893Y38.74298
X23.86891Y38.14298G85X23.86891Y38.74298
T03
X44.804Y2.47795G85X44.804Y1.17798
X31.904Y2.47795G85X31.904Y1.17798
X52.38605Y25.881G85X53.68602Y25.881
X52.38605Y12.981G85X53.68602Y12.981
X22.198Y2.47795G85X22.198Y1.17798
X9.298Y2.47795G85X9.298Y1.17798
M30