G04 Layer: TopSolderMaskLayer*
G04 EasyEDA Pro v3.2.148, 2026-08-02 16:06:31*
G04 Gerber Generator version 0.3*
G04 Scale: 100 percent, Rotated: No, Reflected: No*
G04 Dimensions in millimeters*
G04 Leading zeros omitted, absolute positions, 4 integers and 5 decimals*
G04 Generated by one-click*
G04 Object Configs: Pad,Via,Track,Text,Image,Dimension,BoardOutline,BoardCutout,CopperFilled,SolidRegion,FPCStiffener,Line,PlaneZone,ComponentProperty,ComponentSilkscreen,TearDrop*
G04 Layer Configs: 1,2,3,4,5,6,7,8,9,10,11,13,14,56*
G04 Copper Areas: 0*
%FSLAX45Y45*%
%MOMM*%
%AMRoundRect*1,1,$1,$2,$3*1,1,$1,$4,$5*1,1,$1,0-$2,0-$3*1,1,$1,0-$4,0-$5*20,1,$1,$2,$3,$4,$5,0*20,1,$1,$4,$5,0-$2,0-$3,0*20,1,$1,0-$2,0-$3,0-$4,0-$5,0*20,1,$1,0-$4,0-$5,$2,$3,0*4,1,4,$2,$3,$4,$5,0-$2,0-$3,0-$4,0-$5,$2,$3,0*%
%ADD10RoundRect,0.1016X-0.4X0.45X0.4X0.45*%
%ADD11RoundRect,0.1016X-0.45X-0.4X-0.45X0.4*%
%ADD12RoundRect,0.1016X-0.432X-0.40324X-0.432X0.40324*%
%ADD13RoundRect,0.10003X-0.12501X-0.6X-0.12501X0.6*%
%ADD14RoundRect,0.10003X-0.55X-0.27501X-0.55X0.27501*%
%ADD15RoundRect,0.10003X-0.55X-0.15X-0.55X0.15*%
%ADD16O,2.1030X1.20002*%
%ADD17O,2.10002X1.20002*%
%ADD18O,1.90002X1.30002*%
%ADD19RoundRect,0.1016X-0.55999X1.44X0.55999X1.44*%
%ADD20O,1.3016X2.6016*%
%ADD21RoundRect,0.1016X-1.44X-0.55999X-1.44X0.55999*%
%ADD22O,2.6016X1.3016*%
%ADD23RoundRect,0.10003X-0.27501X0.55X0.27501X0.55*%
%ADD24RoundRect,0.10003X-0.15X0.55X0.15X0.55*%
%ADD25O,1.20002X2.10002*%
%ADD26O,1.30002X1.90002*%
G75*


G04 Pad Start*
G54D10*
G01X1378102Y1473200D03*
G01X1238098Y1473200D03*
G54D11*
G01X3479800Y1530502D03*
G01X3479800Y1390498D03*
G54D10*
G01X3993998Y1600200D03*
G01X4134002Y1600200D03*
G01X2231704Y2067102D03*
G01X2371708Y2067102D03*
G01X2231704Y1902002D03*
G01X2371708Y1902002D03*
G01X2231704Y1597202D03*
G01X2371708Y1597202D03*
G01X2231704Y1749602D03*
G01X2371708Y1749602D03*
G54D11*
G01X2603500Y2698902D03*
G01X2603500Y2558898D03*
G01X2451100Y2698902D03*
G01X2451100Y2558898D03*
G54D12*
G01X901700Y2234336D03*
G01X901700Y2083664D03*
G01X901700Y1677264D03*
G01X901700Y1827936D03*
G54D13*
G01X3055696Y2034210D03*
G01X3002686Y2034210D03*
G01X2949702Y2034210D03*
G01X2896692Y2034210D03*
G01X2843708Y2034210D03*
G01X2790698Y2034210D03*
G01X2737688Y2034210D03*
G01X2684704Y2034210D03*
G01X2684704Y1674190D03*
G01X2737688Y1674190D03*
G01X2790698Y1674190D03*
G01X2843708Y1674190D03*
G01X2896692Y1674190D03*
G01X2949702Y1674190D03*
G01X3002686Y1674190D03*
G01X3055696Y1674190D03*
G54D14*
G01X643903Y2288502D03*
G01X643903Y2208492D03*
G54D15*
G01X643903Y2143493D03*
G01X643903Y2093481D03*
G01X643903Y2043494D03*
G01X643903Y1993506D03*
G01X643903Y1943494D03*
G01X643903Y1893507D03*
G01X643903Y1843494D03*
G01X643903Y1793481D03*
G54D14*
G01X643903Y1728483D03*
G01X643903Y1648498D03*
G54D17*
G01X588912Y2400999D03*
G01X588912Y1536002D03*
G54D18*
G01X168897Y2400999D03*
G01X168897Y1536002D03*
G54D19*
G01X4185387Y1061796D03*
G01X3935400Y1061796D03*
G01X3735400Y1061796D03*
G01X3485413Y1061796D03*
G54D20*
G01X4480408Y182804D03*
G01X3190392Y182804D03*
G54D21*
G01X4424604Y2293087D03*
G01X4424604Y2043100D03*
G01X4424604Y1843100D03*
G01X4424604Y1593113D03*
G54D22*
G01X5303596Y2588108D03*
G01X5303596Y1298092D03*
G54D19*
G01X1924787Y1061796D03*
G01X1674800Y1061796D03*
G01X1474800Y1061796D03*
G01X1224813Y1061796D03*
G54D20*
G01X2219808Y182804D03*
G01X929792Y182804D03*
G54D12*
G01X2641600Y3161436D03*
G01X2641600Y3010764D03*
G01X2946400Y3159709D03*
G01X2946400Y3009036D03*
G54D23*
G01X3139402Y3369297D03*
G01X3059392Y3369297D03*
G54D24*
G01X2994393Y3369297D03*
G01X2944381Y3369297D03*
G01X2894394Y3369297D03*
G01X2844406Y3369297D03*
G01X2794394Y3369297D03*
G01X2744407Y3369297D03*
G01X2694394Y3369297D03*
G01X2644381Y3369297D03*
G54D23*
G01X2579383Y3369297D03*
G01X2499398Y3369297D03*
G54D25*
G01X3251899Y3424288D03*
G01X2386902Y3424288D03*
G54D26*
G01X3251899Y3844303D03*
G01X2386902Y3844303D03*
G54D11*
G01X3104998Y3010205D03*
G01X3104998Y3150210D03*
G04 Pad End*

M02*

