G04 Layer: TopLayer*
G04 EasyEDA Pro v3.2.148, 2026-08-02 16:06:31*
G04 Gerber Generator version 0.3*
G04 Scale: 100 percent, Rotated: No, Reflected: No*
G04 Dimensions in millimeters*
G04 Leading zeros omitted, absolute positions, 4 integers and 5 decimals*
G04 Generated by one-click*
G04 Object Configs: Pad,Via,Track,Text,Image,Dimension,BoardOutline,BoardCutout,CopperFilled,SolidRegion,FPCStiffener,Line,PlaneZone,ComponentProperty,ComponentSilkscreen,TearDrop*
G04 Layer Configs: 1,2,3,4,5,6,7,8,9,10,11,13,14,56*
G04 Copper Areas: 39*
%FSLAX45Y45*%
%MOMM*%
%ADD10C,0.2032*%
%ADD11C,0.254*%
%ADD12R,0.8X0.9*%
%ADD13R,0.9X0.8*%
%ADD14R,0.86401X0.80648*%
%ADD15R,0.25001X1.2*%
%ADD16R,1.1028X0.55001*%
%ADD17R,1.1X0.55001*%
%ADD18R,1.1X0.3*%
%ADD19O,2.0X1.1*%
%ADD20O,1.8X1.2*%
%ADD21R,1.11999X2.88*%
%ADD22O,1.2X2.49999*%
%ADD23R,2.88X1.11999*%
%ADD24O,2.49999X1.2*%
%ADD25R,0.55001X1.1*%
%ADD26R,0.3X1.1*%
%ADD27O,1.1X2.0*%
%ADD28O,1.2X1.8*%
%ADD29C,0.61*%
G75*


G04 Copper Start*
G36*
G01X3157641Y27762D02*
G01X2237944Y23722D01*
G01X2256025Y29099D01*
G01X2272702Y37914D01*
G01X2287329Y49825D01*
G01X2299339Y64371D01*
G01X2308266Y80988D01*
G01X2313765Y99032D01*
G01X2315621Y117804D01*
G01X2315621Y247804D01*
G01X2314186Y264326D01*
G01X2309923Y280354D01*
G01X2302960Y295406D01*
G01X2293505Y309032D01*
G01X2281843Y320824D01*
G01X2268322Y330427D01*
G01X2268322Y817575D01*
G01X2266669Y830132D01*
G01X2261822Y841832D01*
G01X2254112Y851880D01*
G01X2188196Y917796D01*
G01X3393600Y917796D01*
G01X3395353Y906729D01*
G01X3400440Y896745D01*
G01X3408363Y888822D01*
G01X3418347Y883735D01*
G01X3429414Y881982D01*
G01X3541413Y881982D01*
G01X3552480Y883735D01*
G01X3562464Y888822D01*
G01X3570387Y896745D01*
G01X3575474Y906729D01*
G01X3577227Y917796D01*
G01X3577227Y1205796D01*
G01X3575474Y1216864D01*
G01X3570387Y1226847D01*
G01X3562464Y1234771D01*
G01X3552480Y1239858D01*
G01X3541413Y1241610D01*
G01X3429414Y1241610D01*
G01X3418347Y1239858D01*
G01X3408363Y1234771D01*
G01X3400440Y1226847D01*
G01X3395353Y1216864D01*
G01X3393600Y1205796D01*
G01X3393600Y917796D01*
G01X3393600Y917796D01*
G01X2188196Y917796D01*
G01X2016600Y1089392D01*
G01X2016600Y1205796D01*
G01X2014847Y1216864D01*
G01X2009760Y1226847D01*
G01X2001837Y1234771D01*
G01X1991853Y1239858D01*
G01X1980786Y1241610D01*
G01X1872423Y1241610D01*
G01X1930999Y1300186D01*
G01X2023467Y1300186D01*
G01X2131258Y1192396D01*
G01X2141305Y1184686D01*
G01X2153006Y1179839D01*
G01X2165562Y1178186D01*
G01X2667154Y1178186D01*
G01X2679710Y1179839D01*
G01X2691411Y1184686D01*
G01X2701458Y1192396D01*
G01X3039565Y1530502D01*
G01X3261086Y1530502D01*
G01X3262864Y1515249D01*
G01X3268103Y1500814D01*
G01X3276522Y1487970D01*
G01X3287669Y1477408D01*
G01X3300947Y1469693D01*
G01X3315644Y1465239D01*
G01X3330971Y1464285D01*
G01X3346106Y1466881D01*
G01X3360239Y1472890D01*
G01X3372610Y1481988D01*
G01X3400013Y1481988D01*
G01X3403218Y1473614D01*
G01X3408403Y1466298D01*
G01X3415243Y1460500D01*
G01X3406553Y1452514D01*
G01X3400931Y1442138D01*
G01X3398986Y1430498D01*
G01X3398986Y1430498D01*
G01X3398986Y1350498D01*
G01X3400739Y1339431D01*
G01X3405826Y1329447D01*
G01X3413749Y1321524D01*
G01X3423733Y1316437D01*
G01X3434800Y1314684D01*
G01X3524800Y1314684D01*
G01X3535867Y1316437D01*
G01X3545851Y1321524D01*
G01X3553774Y1329447D01*
G01X3558861Y1339431D01*
G01X3560614Y1350498D01*
G01X3560614Y1430498D01*
G01X3558669Y1442138D01*
G01X3553047Y1452514D01*
G01X3544357Y1460500D01*
G01X3553047Y1468486D01*
G01X3558669Y1478862D01*
G01X3560614Y1490502D01*
G01X3560614Y1570502D01*
G01X3558861Y1581569D01*
G01X3553774Y1591553D01*
G01X3545851Y1599476D01*
G01X3535867Y1604563D01*
G01X3524800Y1606316D01*
G01X3434800Y1606316D01*
G01X3423104Y1604353D01*
G01X3412690Y1598676D01*
G01X3404701Y1589911D01*
G01X3400013Y1579016D01*
G01X3372610Y1579016D01*
G01X3360239Y1588115D01*
G01X3346106Y1594123D01*
G01X3330971Y1596720D01*
G01X3315644Y1595766D01*
G01X3300947Y1591312D01*
G01X3287669Y1583597D01*
G01X3276522Y1573034D01*
G01X3268103Y1560191D01*
G01X3262864Y1545756D01*
G01X3261086Y1530502D01*
G01X3039565Y1530502D01*
G01X3090001Y1580938D01*
G01X3097711Y1590986D01*
G01X3102557Y1602687D01*
G01X3104210Y1615243D01*
G01X3104210Y1674190D01*
G01X3104011Y1678584D01*
G01X3104011Y1734190D01*
G01X3102258Y1745257D01*
G01X3097171Y1755241D01*
G01X3089248Y1763164D01*
G01X3079264Y1768251D01*
G01X3068197Y1770004D01*
G01X3043196Y1770004D01*
G01X3036050Y1769284D01*
G01X3029191Y1767153D01*
G01X3022333Y1769284D01*
G01X3015187Y1770004D01*
G01X2990186Y1770004D01*
G01X2983047Y1769285D01*
G01X2976194Y1767158D01*
G01X2969342Y1769285D01*
G01X2962203Y1770004D01*
G01X2937201Y1770004D01*
G01X2930056Y1769284D01*
G01X2923197Y1767153D01*
G01X2916339Y1769284D01*
G01X2909193Y1770004D01*
G01X2884192Y1770004D01*
G01X2877053Y1769285D01*
G01X2870200Y1767158D01*
G01X2863347Y1769285D01*
G01X2856208Y1770004D01*
G01X2831207Y1770004D01*
G01X2824061Y1769284D01*
G01X2817203Y1767153D01*
G01X2810344Y1769284D01*
G01X2803199Y1770004D01*
G01X2778197Y1770004D01*
G01X2771052Y1769284D01*
G01X2764193Y1767153D01*
G01X2757335Y1769284D01*
G01X2750189Y1770004D01*
G01X2725188Y1770004D01*
G01X2718049Y1769285D01*
G01X2711196Y1767158D01*
G01X2704343Y1769285D01*
G01X2697204Y1770004D01*
G01X2672203Y1770004D01*
G01X2661136Y1768251D01*
G01X2651152Y1763164D01*
G01X2643229Y1755241D01*
G01X2638142Y1745257D01*
G01X2636389Y1734190D01*
G01X2636389Y1722704D01*
G01X2619615Y1722704D01*
G01X2447522Y1894797D01*
G01X2447522Y1947001D01*
G01X2445559Y1958698D01*
G01X2439883Y1969112D01*
G01X2431117Y1977101D01*
G01X2420222Y1981789D01*
G01X2420222Y1987314D01*
G01X2431117Y1992002D01*
G01X2439883Y1999991D01*
G01X2445559Y2010405D01*
G01X2447522Y2022102D01*
G01X2447522Y2112101D01*
G01X2445770Y2123169D01*
G01X2440683Y2133152D01*
G01X2432759Y2141076D01*
G01X2422776Y2146163D01*
G01X2411708Y2147915D01*
G01X2371211Y2147915D01*
G01X2372614Y2159498D01*
G01X2372614Y2317141D01*
G01X2381120Y2328494D01*
G01X2387016Y2341397D01*
G01X2390034Y2355258D01*
G01X2390034Y2369444D01*
G01X2387016Y2383306D01*
G01X2381120Y2396208D01*
G01X2372614Y2407561D01*
G01X2372614Y2506196D01*
G01X2377909Y2496810D01*
G01X2385756Y2489423D01*
G01X2395446Y2484705D01*
G01X2406100Y2483084D01*
G01X2496100Y2483084D01*
G01X2505459Y2484328D01*
G01X2514168Y2487975D01*
G01X2521621Y2493771D01*
G01X2527300Y2501314D01*
G01X2532979Y2493771D01*
G01X2540432Y2487975D01*
G01X2549141Y2484328D01*
G01X2558500Y2483084D01*
G01X2648500Y2483084D01*
G01X2659567Y2484837D01*
G01X2669551Y2489924D01*
G01X2677474Y2497847D01*
G01X2682561Y2507831D01*
G01X2684314Y2518898D01*
G01X2684314Y2598898D01*
G01X2682369Y2610538D01*
G01X2676747Y2620914D01*
G01X2668057Y2628900D01*
G01X2676747Y2636886D01*
G01X2682369Y2647262D01*
G01X2684314Y2658902D01*
G01X2684314Y2738902D01*
G01X2682561Y2749969D01*
G01X2677474Y2759953D01*
G01X2669551Y2767876D01*
G01X2659567Y2772963D01*
G01X2648500Y2774716D01*
G01X2558500Y2774716D01*
G01X2549141Y2773472D01*
G01X2540432Y2769825D01*
G01X2532979Y2764029D01*
G01X2527300Y2756486D01*
G01X2521621Y2764029D01*
G01X2514168Y2769825D01*
G01X2505459Y2773472D01*
G01X2496100Y2774716D01*
G01X2406100Y2774716D01*
G01X2395033Y2772963D01*
G01X2385049Y2767876D01*
G01X2377126Y2759953D01*
G01X2372039Y2749969D01*
G01X2370286Y2738902D01*
G01X2370286Y2686698D01*
G01X2289795Y2606207D01*
G01X2282086Y2596159D01*
G01X2277239Y2584459D01*
G01X2275586Y2571902D01*
G01X2275586Y2407561D01*
G01X2267080Y2396208D01*
G01X2261184Y2383306D01*
G01X2258166Y2369444D01*
G01X2258166Y2355258D01*
G01X2261184Y2341397D01*
G01X2267080Y2328494D01*
G01X2275586Y2317141D01*
G01X2275586Y2179593D01*
G01X2243908Y2147915D01*
G01X2191704Y2147915D01*
G01X2180637Y2146163D01*
G01X2170653Y2141076D01*
G01X2162730Y2133152D01*
G01X2157643Y2123169D01*
G01X2155890Y2112101D01*
G01X2155890Y2022102D01*
G01X2157854Y2010405D01*
G01X2163530Y1999991D01*
G01X2172295Y1992002D01*
G01X2183190Y1987314D01*
G01X2183190Y1981789D01*
G01X2172295Y1977101D01*
G01X2163530Y1969112D01*
G01X2157854Y1958698D01*
G01X2155890Y1947001D01*
G01X2155890Y1857002D01*
G01X2157134Y1847643D01*
G01X2160781Y1838934D01*
G01X2166577Y1831481D01*
G01X2174120Y1825802D01*
G01X2166577Y1820122D01*
G01X2160781Y1812669D01*
G01X2157134Y1803961D01*
G01X2155890Y1794601D01*
G01X2155890Y1704602D01*
G01X2157134Y1695243D01*
G01X2160781Y1686534D01*
G01X2166577Y1679081D01*
G01X2174120Y1673402D01*
G01X2166577Y1667722D01*
G01X2160781Y1660269D01*
G01X2157134Y1651561D01*
G01X2155890Y1642201D01*
G01X2155890Y1552202D01*
G01X2157643Y1541134D01*
G01X2162730Y1531151D01*
G01X2170653Y1523227D01*
G01X2180637Y1518140D01*
G01X2191704Y1516388D01*
G01X2271704Y1516388D01*
G01X2283344Y1518332D01*
G01X2293720Y1523954D01*
G01X2301706Y1532644D01*
G01X2309692Y1523954D01*
G01X2320068Y1518332D01*
G01X2331709Y1516388D01*
G01X2411708Y1516388D01*
G01X2422776Y1518140D01*
G01X2432759Y1523227D01*
G01X2440683Y1531151D01*
G01X2445770Y1541134D01*
G01X2447522Y1552202D01*
G01X2447522Y1642201D01*
G01X2446278Y1651561D01*
G01X2442631Y1660269D01*
G01X2436835Y1667722D01*
G01X2429292Y1673402D01*
G01X2438209Y1680511D01*
G01X2444438Y1690062D01*
G01X2447350Y1701088D01*
G01X2453667Y1701088D01*
G01X2614260Y1540495D01*
G01X2624307Y1532786D01*
G01X2636008Y1527939D01*
G01X2648564Y1526286D01*
G01X2688515Y1526286D01*
G01X2658543Y1496314D01*
G01X2623310Y1496314D01*
G01X2610752Y1505519D01*
G01X2596393Y1511541D01*
G01X2581026Y1514049D01*
G01X2565497Y1512906D01*
G01X2550664Y1508172D01*
G01X2537343Y1500111D01*
G01X2526269Y1489165D01*
G01X2518052Y1475939D01*
G01X2513146Y1461162D01*
G01X2511821Y1445648D01*
G01X2514150Y1430252D01*
G01X2520004Y1415824D01*
G01X2529062Y1403159D01*
G01X2540822Y1392955D01*
G01X2554638Y1385775D01*
G01X2569748Y1382014D01*
G01X2229895Y1382014D01*
G01X1634111Y1977798D01*
G01X1624063Y1985508D01*
G01X1612363Y1990355D01*
G01X1599806Y1992008D01*
G01X775317Y1992008D01*
G01X775317Y2020063D01*
G01X773565Y2032981D01*
G01X768437Y2044967D01*
G01X822686Y2044967D01*
G01X822686Y2043340D01*
G01X824439Y2032273D01*
G01X829526Y2022289D01*
G01X837449Y2014366D01*
G01X847433Y2009279D01*
G01X858500Y2007526D01*
G01X944900Y2007526D01*
G01X955967Y2009279D01*
G01X965951Y2014366D01*
G01X973874Y2022289D01*
G01X978961Y2032273D01*
G01X980714Y2043340D01*
G01X980714Y2123987D01*
G01X979400Y2133601D01*
G01X975553Y2142509D01*
G01X969456Y2150058D01*
G01X961556Y2155693D01*
G01X952434Y2159000D01*
G01X961556Y2162307D01*
G01X969456Y2167942D01*
G01X975553Y2175491D01*
G01X979400Y2184399D01*
G01X980714Y2194013D01*
G01X980714Y2274660D01*
G01X978961Y2285727D01*
G01X973874Y2295711D01*
G01X965951Y2303634D01*
G01X955967Y2308721D01*
G01X944900Y2310474D01*
G01X858500Y2310474D01*
G01X847433Y2308721D01*
G01X837449Y2303634D01*
G01X829526Y2295711D01*
G01X824439Y2285727D01*
G01X822686Y2274660D01*
G01X822686Y2194013D01*
G01X824000Y2184399D01*
G01X827847Y2175491D01*
G01X833944Y2167942D01*
G01X841844Y2162307D01*
G01X850966Y2159000D01*
G01X841667Y2155599D01*
G01X833655Y2149783D01*
G01X827542Y2141995D01*
G01X734717Y2141995D01*
G01X734717Y2158493D01*
G01X732904Y2169742D01*
G01X734717Y2180991D01*
G01X734717Y2235992D01*
G01X734149Y2242345D01*
G01X732463Y2248497D01*
G01X734149Y2254648D01*
G01X734717Y2261001D01*
G01X734717Y2316002D01*
G01X732905Y2327249D01*
G01X727653Y2337358D01*
G01X719493Y2345306D01*
G01X709249Y2350289D01*
G01X717705Y2365987D01*
G01X722931Y2383035D01*
G01X724725Y2400775D01*
G01X723019Y2418523D01*
G01X717877Y2435596D01*
G01X709498Y2451336D01*
G01X698206Y2465134D01*
G01X684435Y2476461D01*
G01X668716Y2484878D01*
G01X651656Y2490062D01*
G01X633912Y2491812D01*
G01X543912Y2491812D01*
G01X525341Y2489893D01*
G01X507555Y2484217D01*
G01X491306Y2475024D01*
G01X477280Y2462702D01*
G01X466070Y2447773D01*
G01X458150Y2430866D01*
G01X453855Y2412698D01*
G01X453365Y2394034D01*
G01X456703Y2375666D01*
G01X463726Y2358367D01*
G01X474138Y2342871D01*
G01X487499Y2329831D01*
G01X503245Y2319799D01*
G01X491237Y2311621D01*
G01X481151Y2301165D01*
G01X473411Y2288871D01*
G01X468342Y2275255D01*
G01X466159Y2260892D01*
G01X466953Y2246386D01*
G01X470691Y2232347D01*
G01X477214Y2219366D01*
G01X486250Y2207990D01*
G01X497417Y2198697D01*
G01X510245Y2191878D01*
G01X524195Y2187821D01*
G01X538680Y2186696D01*
G01X553089Y2188550D01*
G01X553089Y2180991D01*
G01X554901Y2169742D01*
G01X553089Y2158493D01*
G01X553089Y2128493D01*
G01X554515Y2118487D01*
G01X553089Y2108481D01*
G01X553089Y2078481D01*
G01X554511Y2068487D01*
G01X553089Y2058493D01*
G01X553089Y2028408D01*
G01X543042Y2020698D01*
G01X526698Y2004355D01*
G01X518988Y1994307D01*
G01X514142Y1982607D01*
G01X512489Y1970050D01*
G01X512489Y1916937D01*
G01X514142Y1904381D01*
G01X518988Y1892680D01*
G01X526698Y1882633D01*
G01X543042Y1866289D01*
G01X553089Y1858579D01*
G01X553089Y1828494D01*
G01X554515Y1818488D01*
G01X553089Y1808481D01*
G01X553089Y1778481D01*
G01X554901Y1767232D01*
G01X553089Y1755983D01*
G01X553089Y1748424D01*
G01X538682Y1750279D01*
G01X524199Y1749154D01*
G01X510251Y1745099D01*
G01X497423Y1738282D01*
G01X486257Y1728992D01*
G01X477221Y1717618D01*
G01X470695Y1704641D01*
G01X466956Y1690604D01*
G01X466158Y1676100D01*
G01X468337Y1661738D01*
G01X473401Y1648123D01*
G01X481136Y1635828D01*
G01X491217Y1625370D01*
G01X503220Y1617189D01*
G01X487480Y1607153D01*
G01X474124Y1594111D01*
G01X463716Y1578614D01*
G01X456698Y1561316D01*
G01X453364Y1542949D01*
G01X453857Y1524288D01*
G01X458154Y1506122D01*
G01X466075Y1489218D01*
G01X477286Y1474292D01*
G01X491311Y1461972D01*
G01X507559Y1452781D01*
G01X525343Y1447106D01*
G01X543912Y1445188D01*
G01X633912Y1445188D01*
G01X651656Y1446938D01*
G01X668716Y1452122D01*
G01X684435Y1460539D01*
G01X698206Y1471866D01*
G01X709498Y1485664D01*
G01X717877Y1501404D01*
G01X723019Y1518477D01*
G01X724725Y1536225D01*
G01X722931Y1553965D01*
G01X717705Y1571013D01*
G01X709249Y1586711D01*
G01X719493Y1591694D01*
G01X727653Y1599642D01*
G01X732905Y1609751D01*
G01X734717Y1620998D01*
G01X734717Y1675999D01*
G01X734150Y1682345D01*
G01X732467Y1688490D01*
G01X734150Y1694636D01*
G01X734717Y1700982D01*
G01X734717Y1744967D01*
G01X835413Y1744967D01*
G01X828546Y1737220D01*
G01X824182Y1727832D01*
G01X822686Y1717587D01*
G01X822686Y1636940D01*
G01X824439Y1625873D01*
G01X829526Y1615889D01*
G01X837449Y1607966D01*
G01X847433Y1602879D01*
G01X858500Y1601126D01*
G01X944900Y1601126D01*
G01X955967Y1602879D01*
G01X965951Y1607966D01*
G01X973874Y1615889D01*
G01X978961Y1625873D01*
G01X980714Y1636940D01*
G01X980714Y1717587D01*
G01X979400Y1727201D01*
G01X975553Y1736109D01*
G01X969456Y1743658D01*
G01X961556Y1749293D01*
G01X952434Y1752600D01*
G01X961556Y1755907D01*
G01X969456Y1761542D01*
G01X975553Y1769091D01*
G01X979400Y1777999D01*
G01X980714Y1787613D01*
G01X980714Y1847646D01*
G01X1576699Y1847646D01*
G01X1991531Y1432814D01*
G01X1684752Y1432814D01*
G01X1699841Y1436567D01*
G01X1713641Y1443730D01*
G01X1725393Y1453910D01*
G01X1734453Y1466546D01*
G01X1740321Y1480944D01*
G01X1742675Y1496313D01*
G01X1741385Y1511808D01*
G01X1736524Y1526577D01*
G01X1728357Y1539807D01*
G01X1717334Y1550773D01*
G01X1704060Y1558870D01*
G01X1689266Y1563654D01*
G01X1673765Y1564862D01*
G01X1658408Y1562427D01*
G01X1644041Y1556483D01*
G01X1631453Y1547357D01*
G01X1621335Y1535551D01*
G01X1614245Y1521714D01*
G01X1453744Y1521714D01*
G01X1451189Y1531908D01*
G01X1445785Y1540922D01*
G01X1437998Y1547979D01*
G01X1428498Y1552472D01*
G01X1418102Y1554014D01*
G01X1338102Y1554014D01*
G01X1326462Y1552069D01*
G01X1316086Y1546447D01*
G01X1308100Y1537757D01*
G01X1300114Y1546447D01*
G01X1289738Y1552069D01*
G01X1278098Y1554014D01*
G01X1198098Y1554014D01*
G01X1187031Y1552261D01*
G01X1177047Y1547174D01*
G01X1169124Y1539251D01*
G01X1164037Y1529267D01*
G01X1162284Y1518200D01*
G01X1162284Y1428200D01*
G01X1164037Y1417133D01*
G01X1169124Y1407149D01*
G01X1177047Y1399226D01*
G01X1187031Y1394139D01*
G01X1198098Y1392386D01*
G01X1278098Y1392386D01*
G01X1289738Y1394331D01*
G01X1300114Y1399953D01*
G01X1308100Y1408643D01*
G01X1316086Y1399953D01*
G01X1326462Y1394331D01*
G01X1338102Y1392386D01*
G01X1418102Y1392386D01*
G01X1428498Y1393928D01*
G01X1437998Y1398421D01*
G01X1445785Y1405478D01*
G01X1451189Y1414492D01*
G01X1453744Y1424686D01*
G01X1535219Y1424686D01*
G01X1527795Y1418605D01*
G01X1440496Y1331305D01*
G01X1432786Y1321257D01*
G01X1427939Y1309557D01*
G01X1426286Y1297000D01*
G01X1426286Y1241610D01*
G01X1418801Y1241610D01*
G01X1407734Y1239858D01*
G01X1397750Y1234771D01*
G01X1389827Y1226847D01*
G01X1384740Y1216864D01*
G01X1382987Y1205796D01*
G01X1382987Y917796D01*
G01X1384740Y906729D01*
G01X1389827Y896745D01*
G01X1397750Y888822D01*
G01X1407734Y883735D01*
G01X1418801Y881982D01*
G01X1530800Y881982D01*
G01X1541867Y883735D01*
G01X1551851Y888822D01*
G01X1559774Y896745D01*
G01X1564861Y906729D01*
G01X1566614Y917796D01*
G01X1566614Y1205796D01*
G01X1564861Y1216864D01*
G01X1559774Y1226847D01*
G01X1551851Y1234771D01*
G01X1541867Y1239858D01*
G01X1530800Y1241610D01*
G01X1523314Y1241610D01*
G01X1523314Y1276905D01*
G01X1582195Y1335786D01*
G01X1829380Y1335786D01*
G01X1734962Y1241368D01*
G01X1730799Y1241610D01*
G01X1618800Y1241610D01*
G01X1607733Y1239858D01*
G01X1597749Y1234771D01*
G01X1589826Y1226847D01*
G01X1584739Y1216864D01*
G01X1582986Y1205796D01*
G01X1582986Y917796D01*
G01X1584739Y906729D01*
G01X1589826Y896745D01*
G01X1597749Y888822D01*
G01X1607733Y883735D01*
G01X1618800Y881982D01*
G01X1730799Y881982D01*
G01X1741866Y883735D01*
G01X1751850Y888822D01*
G01X1759773Y896745D01*
G01X1764860Y906729D01*
G01X1766613Y917796D01*
G01X1766613Y1135800D01*
G01X1832973Y1202160D01*
G01X1832973Y917796D01*
G01X1834726Y906729D01*
G01X1839813Y896745D01*
G01X1847736Y888822D01*
G01X1857720Y883735D01*
G01X1868787Y881982D01*
G01X1980786Y881982D01*
G01X1991853Y883735D01*
G01X2001837Y888822D01*
G01X2009760Y896745D01*
G01X2014847Y906729D01*
G01X2016600Y917796D01*
G01X2016600Y952174D01*
G01X2171294Y797480D01*
G01X2171294Y330427D01*
G01X2157772Y320824D01*
G01X2146110Y309032D01*
G01X2136655Y295406D01*
G01X2129692Y280354D01*
G01X2125429Y264326D01*
G01X2123994Y247804D01*
G01X2123994Y117804D01*
G01X2125874Y98914D01*
G01X2131442Y80766D01*
G01X2140478Y64072D01*
G01X2152628Y49487D01*
G01X2167415Y37583D01*
G01X2184259Y28829D01*
G01X2202498Y23567D01*
G01X598159Y16520D01*
G01X576604Y17846D01*
G01X555408Y21989D01*
G01X534940Y28879D01*
G01X515553Y38395D01*
G01X497583Y50374D01*
G01X481341Y64608D01*
G01X298145Y247804D01*
G01X833979Y247804D01*
G01X833979Y117804D01*
G01X835820Y99112D01*
G01X841272Y81138D01*
G01X850126Y64573D01*
G01X862042Y50053D01*
G01X876561Y38138D01*
G01X893126Y29283D01*
G01X911100Y23831D01*
G01X929792Y21990D01*
G01X948485Y23831D01*
G01X966459Y29283D01*
G01X983024Y38138D01*
G01X997543Y50053D01*
G01X1009459Y64573D01*
G01X1018313Y81138D01*
G01X1023765Y99112D01*
G01X1025606Y117804D01*
G01X1025606Y247804D01*
G01X1023765Y266496D01*
G01X1018313Y284470D01*
G01X1009459Y301035D01*
G01X997543Y315554D01*
G01X983024Y327470D01*
G01X966459Y336324D01*
G01X948485Y341777D01*
G01X929792Y343618D01*
G01X911100Y341777D01*
G01X893126Y336324D01*
G01X876561Y327470D01*
G01X862042Y315554D01*
G01X850126Y301035D01*
G01X841272Y284470D01*
G01X835820Y266496D01*
G01X833979Y247804D01*
G01X833979Y247804D01*
G01X298145Y247804D01*
G01X85624Y460325D01*
G01X68892Y479916D01*
G01X55430Y501883D01*
G01X45571Y525685D01*
G01X39556Y550737D01*
G01X37535Y576422D01*
G01X37535Y917796D01*
G01X1133000Y917796D01*
G01X1134753Y906729D01*
G01X1139840Y896745D01*
G01X1147763Y888822D01*
G01X1157747Y883735D01*
G01X1168814Y881982D01*
G01X1280813Y881982D01*
G01X1291880Y883735D01*
G01X1301864Y888822D01*
G01X1309787Y896745D01*
G01X1314874Y906729D01*
G01X1316627Y917796D01*
G01X1316627Y1205796D01*
G01X1314874Y1216864D01*
G01X1309787Y1226847D01*
G01X1301864Y1234771D01*
G01X1291880Y1239858D01*
G01X1280813Y1241610D01*
G01X1168814Y1241610D01*
G01X1157747Y1239858D01*
G01X1147763Y1234771D01*
G01X1139840Y1226847D01*
G01X1134753Y1216864D01*
G01X1133000Y1205796D01*
G01X1133000Y917796D01*
G01X1133000Y917796D01*
G01X37535Y917796D01*
G01X37535Y1536002D01*
G01X43083Y1536002D01*
G01X44925Y1517309D01*
G01X50377Y1499335D01*
G01X59231Y1482770D01*
G01X71147Y1468251D01*
G01X85666Y1456335D01*
G01X102231Y1447481D01*
G01X120205Y1442029D01*
G01X138897Y1440188D01*
G01X198897Y1440188D01*
G01X217590Y1442029D01*
G01X235564Y1447481D01*
G01X252129Y1456335D01*
G01X266648Y1468251D01*
G01X278564Y1482770D01*
G01X287418Y1499335D01*
G01X292870Y1517309D01*
G01X294711Y1536002D01*
G01X292870Y1554694D01*
G01X287418Y1572668D01*
G01X278564Y1589233D01*
G01X266648Y1603752D01*
G01X252129Y1615668D01*
G01X235564Y1624522D01*
G01X217590Y1629974D01*
G01X198897Y1631815D01*
G01X198897Y1631815D01*
G01X138897Y1631815D01*
G01X120205Y1629974D01*
G01X102231Y1624522D01*
G01X85666Y1615668D01*
G01X71147Y1603752D01*
G01X59231Y1589233D01*
G01X50377Y1572668D01*
G01X44925Y1554694D01*
G01X43083Y1536002D01*
G01X37535Y1536002D01*
G01X37535Y2400999D01*
G01X43083Y2400999D01*
G01X44925Y2382306D01*
G01X50377Y2364332D01*
G01X59231Y2347767D01*
G01X71147Y2333248D01*
G01X85666Y2321332D01*
G01X102231Y2312478D01*
G01X120205Y2307026D01*
G01X138897Y2305185D01*
G01X198897Y2305185D01*
G01X217590Y2307026D01*
G01X235564Y2312478D01*
G01X252129Y2321332D01*
G01X266648Y2333248D01*
G01X278564Y2347767D01*
G01X287418Y2364332D01*
G01X292870Y2382306D01*
G01X294711Y2400999D01*
G01X292870Y2419691D01*
G01X287418Y2437665D01*
G01X278564Y2454230D01*
G01X266648Y2468749D01*
G01X252129Y2480665D01*
G01X235564Y2489519D01*
G01X217590Y2494971D01*
G01X198897Y2496812D01*
G01X198897Y2496812D01*
G01X138897Y2496812D01*
G01X120205Y2494971D01*
G01X102231Y2489519D01*
G01X85666Y2480665D01*
G01X71147Y2468749D01*
G01X59231Y2454230D01*
G01X50377Y2437665D01*
G01X44925Y2419691D01*
G01X43083Y2400999D01*
G01X37535Y2400999D01*
G01X37535Y3079457D01*
G01X39556Y3105142D01*
G01X45571Y3130194D01*
G01X55430Y3153996D01*
G01X68892Y3175963D01*
G01X85624Y3195554D01*
G01X359358Y3469288D01*
G01X2296088Y3469288D01*
G01X2296088Y3379288D01*
G01X2297838Y3361544D01*
G01X2303022Y3344484D01*
G01X2311439Y3328765D01*
G01X2322766Y3314994D01*
G01X2336564Y3303702D01*
G01X2352304Y3295323D01*
G01X2369377Y3290181D01*
G01X2387125Y3288475D01*
G01X2404865Y3290269D01*
G01X2421913Y3295495D01*
G01X2437611Y3303951D01*
G01X2442594Y3293707D01*
G01X2450542Y3285547D01*
G01X2460651Y3280295D01*
G01X2471898Y3278483D01*
G01X2526899Y3278483D01*
G01X2533245Y3279050D01*
G01X2539390Y3280733D01*
G01X2545536Y3279050D01*
G01X2551882Y3278483D01*
G01X2595867Y3278483D01*
G01X2595867Y3237485D01*
G01X2585423Y3235141D01*
G01X2576138Y3229815D01*
G01X2568841Y3221983D01*
G01X2564185Y3212344D01*
G01X2562586Y3201760D01*
G01X2562586Y3121113D01*
G01X2563900Y3111499D01*
G01X2567747Y3102591D01*
G01X2573844Y3095042D01*
G01X2581744Y3089407D01*
G01X2590866Y3086100D01*
G01X2581744Y3082793D01*
G01X2573844Y3077158D01*
G01X2567747Y3069609D01*
G01X2563900Y3060701D01*
G01X2562586Y3051087D01*
G01X2562586Y2970440D01*
G01X2564339Y2959373D01*
G01X2569426Y2949389D01*
G01X2577349Y2941466D01*
G01X2587333Y2936379D01*
G01X2598400Y2934626D01*
G01X2684800Y2934626D01*
G01X2695893Y2936387D01*
G01X2695893Y2441160D01*
G01X2697546Y2428604D01*
G01X2702392Y2416903D01*
G01X2710102Y2406855D01*
G01X2742184Y2374773D01*
G01X2742184Y2130024D01*
G01X2725188Y2130024D01*
G01X2718049Y2129305D01*
G01X2711196Y2127178D01*
G01X2704343Y2129305D01*
G01X2697204Y2130024D01*
G01X2672203Y2130024D01*
G01X2662479Y2128678D01*
G01X2653486Y2124743D01*
G01X2645898Y2118514D01*
G01X2600210Y2118514D01*
G01X2587839Y2127612D01*
G01X2573706Y2133621D01*
G01X2558571Y2136218D01*
G01X2543244Y2135264D01*
G01X2528547Y2130810D01*
G01X2515269Y2123094D01*
G01X2504122Y2112532D01*
G01X2495703Y2099689D01*
G01X2490464Y2085253D01*
G01X2488686Y2070000D01*
G01X2490464Y2054747D01*
G01X2495703Y2040311D01*
G01X2504122Y2027468D01*
G01X2515269Y2016905D01*
G01X2528547Y2009190D01*
G01X2543244Y2004736D01*
G01X2558571Y2003782D01*
G01X2573706Y2006379D01*
G01X2587839Y2012388D01*
G01X2600210Y2021486D01*
G01X2628819Y2021486D01*
G01X2636389Y2013915D01*
G01X2636389Y1974210D01*
G01X2638142Y1963143D01*
G01X2643229Y1953159D01*
G01X2651152Y1945236D01*
G01X2661136Y1940149D01*
G01X2672203Y1938396D01*
G01X2697204Y1938396D01*
G01X2704343Y1939115D01*
G01X2711196Y1941242D01*
G01X2718049Y1939115D01*
G01X2725188Y1938396D01*
G01X2750189Y1938396D01*
G01X2757335Y1939116D01*
G01X2764193Y1941247D01*
G01X2771052Y1939116D01*
G01X2778197Y1938396D01*
G01X2803199Y1938396D01*
G01X2810344Y1939116D01*
G01X2817203Y1941247D01*
G01X2824061Y1939116D01*
G01X2831207Y1938396D01*
G01X2856208Y1938396D01*
G01X2863347Y1939115D01*
G01X2870200Y1941242D01*
G01X2877053Y1939115D01*
G01X2884192Y1938396D01*
G01X2909193Y1938396D01*
G01X2916339Y1939116D01*
G01X2923197Y1941247D01*
G01X2930056Y1939116D01*
G01X2937201Y1938396D01*
G01X2962203Y1938396D01*
G01X2969342Y1939115D01*
G01X2976194Y1941242D01*
G01X2983047Y1939115D01*
G01X2990186Y1938396D01*
G01X3015187Y1938396D01*
G01X3022333Y1939116D01*
G01X3029191Y1941247D01*
G01X3036050Y1939116D01*
G01X3043196Y1938396D01*
G01X3068197Y1938396D01*
G01X3079264Y1940149D01*
G01X3089248Y1945236D01*
G01X3097171Y1953159D01*
G01X3102258Y1963143D01*
G01X3104011Y1974210D01*
G01X3104011Y2019402D01*
G01X3106195Y2021586D01*
G01X3243805Y2021586D01*
G01X3686886Y1578505D01*
G01X3686886Y1578505D01*
G01X3686886Y1241610D01*
G01X3679401Y1241610D01*
G01X3668334Y1239858D01*
G01X3658350Y1234771D01*
G01X3650427Y1226847D01*
G01X3645340Y1216864D01*
G01X3643587Y1205796D01*
G01X3643587Y917796D01*
G01X3645340Y906729D01*
G01X3650427Y896745D01*
G01X3658350Y888822D01*
G01X3668334Y883735D01*
G01X3679401Y881982D01*
G01X3791400Y881982D01*
G01X3802467Y883735D01*
G01X3812451Y888822D01*
G01X3820374Y896745D01*
G01X3825461Y906729D01*
G01X3827214Y917796D01*
G01X3827214Y1101373D01*
G01X3843586Y1085000D01*
G01X3843586Y917796D01*
G01X3845339Y906729D01*
G01X3850426Y896745D01*
G01X3858349Y888822D01*
G01X3868333Y883735D01*
G01X3879400Y881982D01*
G01X3991399Y881982D01*
G01X4002466Y883735D01*
G01X4012450Y888822D01*
G01X4020373Y896745D01*
G01X4025460Y906729D01*
G01X4027213Y917796D01*
G01X4027213Y1205796D01*
G01X4025460Y1216864D01*
G01X4020373Y1226847D01*
G01X4012450Y1234771D01*
G01X4002466Y1239858D01*
G01X3991399Y1241610D01*
G01X3879400Y1241610D01*
G01X3867814Y1239684D01*
G01X3867814Y1565046D01*
G01X3866161Y1577602D01*
G01X3861314Y1589303D01*
G01X3853604Y1599351D01*
G01X3807755Y1645200D01*
G01X3918184Y1645200D01*
G01X3918184Y1555200D01*
G01X3920147Y1543504D01*
G01X3925824Y1533090D01*
G01X3934589Y1525101D01*
G01X3945484Y1520413D01*
G01X3945484Y1467610D01*
G01X3936385Y1455239D01*
G01X3930377Y1441106D01*
G01X3927780Y1425971D01*
G01X3928734Y1410644D01*
G01X3933188Y1395947D01*
G01X3940903Y1382669D01*
G01X3951466Y1371522D01*
G01X3964309Y1363103D01*
G01X3978744Y1357864D01*
G01X3993998Y1356086D01*
G01X4009251Y1357864D01*
G01X4023686Y1363103D01*
G01X4036530Y1371522D01*
G01X4047092Y1382669D01*
G01X4054807Y1395947D01*
G01X4059261Y1410644D01*
G01X4060215Y1425971D01*
G01X4057619Y1441106D01*
G01X4051610Y1455239D01*
G01X4042512Y1467610D01*
G01X4042512Y1520413D01*
G01X4050886Y1523618D01*
G01X4058202Y1528803D01*
G01X4064000Y1535643D01*
G01X4071986Y1526953D01*
G01X4082362Y1521331D01*
G01X4094002Y1519386D01*
G01X4174002Y1519386D01*
G01X4185069Y1521139D01*
G01X4195053Y1526226D01*
G01X4202976Y1534149D01*
G01X4208063Y1544133D01*
G01X4209816Y1555200D01*
G01X4209816Y1645200D01*
G01X4209197Y1649113D01*
G01X4244790Y1649113D01*
G01X4244790Y1537114D01*
G01X4246542Y1526047D01*
G01X4251629Y1516063D01*
G01X4259553Y1508140D01*
G01X4269536Y1503053D01*
G01X4280604Y1501300D01*
G01X4568604Y1501300D01*
G01X4568604Y1501300D01*
G01X4579671Y1503053D01*
G01X4589655Y1508140D01*
G01X4597578Y1516063D01*
G01X4602665Y1526047D01*
G01X4604418Y1537114D01*
G01X4604418Y1649113D01*
G01X4602665Y1660180D01*
G01X4597578Y1670164D01*
G01X4589655Y1678087D01*
G01X4579671Y1683174D01*
G01X4568604Y1684927D01*
G01X4280604Y1684927D01*
G01X4269536Y1683174D01*
G01X4259553Y1678087D01*
G01X4251629Y1670164D01*
G01X4246542Y1660180D01*
G01X4244790Y1649113D01*
G01X4209197Y1649113D01*
G01X4208063Y1656267D01*
G01X4202976Y1666251D01*
G01X4195053Y1674174D01*
G01X4185069Y1679261D01*
G01X4174002Y1681014D01*
G01X4094002Y1681014D01*
G01X4082362Y1679069D01*
G01X4071986Y1673447D01*
G01X4064000Y1664757D01*
G01X4056014Y1673447D01*
G01X4045638Y1679069D01*
G01X4033998Y1681014D01*
G01X4033998Y1681014D01*
G01X3953998Y1681014D01*
G01X3942931Y1679261D01*
G01X3932947Y1674174D01*
G01X3925024Y1666251D01*
G01X3919937Y1656267D01*
G01X3918184Y1645200D01*
G01X3807755Y1645200D01*
G01X3342469Y2110486D01*
G01X3967705Y2110486D01*
G01X4244790Y1833401D01*
G01X4244790Y1787101D01*
G01X4246542Y1776034D01*
G01X4251629Y1766050D01*
G01X4259553Y1758127D01*
G01X4269536Y1753040D01*
G01X4280604Y1751287D01*
G01X4568604Y1751287D01*
G01X4579671Y1753040D01*
G01X4589655Y1758127D01*
G01X4597578Y1766050D01*
G01X4602665Y1776034D01*
G01X4604418Y1787101D01*
G01X4604418Y1899100D01*
G01X4602665Y1910167D01*
G01X4597578Y1920151D01*
G01X4589655Y1928074D01*
G01X4579671Y1933161D01*
G01X4568604Y1934914D01*
G01X4280496Y1934913D01*
G01X4220823Y1994586D01*
G01X4244790Y1994586D01*
G01X4244790Y1987100D01*
G01X4246542Y1976033D01*
G01X4251629Y1966049D01*
G01X4259553Y1958126D01*
G01X4269536Y1953039D01*
G01X4280604Y1951286D01*
G01X4568604Y1951286D01*
G01X4579671Y1953039D01*
G01X4589655Y1958126D01*
G01X4597578Y1966049D01*
G01X4602665Y1976033D01*
G01X4604418Y1987100D01*
G01X4604418Y2099099D01*
G01X4602665Y2110166D01*
G01X4597578Y2120150D01*
G01X4589655Y2128073D01*
G01X4579671Y2133160D01*
G01X4568604Y2134913D01*
G01X4280604Y2134913D01*
G01X4269536Y2133160D01*
G01X4259553Y2128073D01*
G01X4251629Y2120150D01*
G01X4246542Y2110166D01*
G01X4244790Y2099099D01*
G01X4244790Y2091614D01*
G01X4187295Y2091614D01*
G01X4047505Y2231405D01*
G01X4037457Y2239114D01*
G01X4025756Y2243961D01*
G01X4013200Y2245614D01*
G01X3000635Y2245614D01*
G01X2988079Y2243961D01*
G01X2976378Y2239114D01*
G01X2966331Y2231405D01*
G01X2892222Y2157296D01*
G01X2892222Y2934623D01*
G01X2903200Y2932899D01*
G01X2989600Y2932899D01*
G01X2999550Y2934308D01*
G01X3008716Y2938427D01*
G01X3016377Y2944929D01*
G01X3021930Y2953304D01*
G01X3024938Y2962892D01*
G01X3028209Y2953709D01*
G01X3033834Y2945748D01*
G01X3041398Y2939599D01*
G01X3050340Y2935718D01*
G01X3059998Y2934391D01*
G01X3112202Y2934391D01*
G01X3280014Y2766579D01*
G01X3282256Y2751387D01*
G01X3287933Y2737118D01*
G01X3296739Y2724537D01*
G01X3308203Y2714319D01*
G01X3321710Y2707013D01*
G01X3336535Y2703008D01*
G01X3351884Y2702522D01*
G01X3366934Y2705579D01*
G01X3380876Y2712015D01*
G01X3392965Y2721486D01*
G01X3402550Y2733483D01*
G01X3409119Y2747364D01*
G01X3412320Y2762383D01*
G01X3411979Y2777736D01*
G01X3408117Y2792599D01*
G01X3400939Y2806175D01*
G01X3390831Y2817736D01*
G01X3378335Y2826662D01*
G01X3364121Y2832474D01*
G01X3348951Y2834861D01*
G01X3185812Y2998000D01*
G01X3185812Y3050205D01*
G01X3183867Y3061845D01*
G01X3178245Y3072222D01*
G01X3169555Y3080207D01*
G01X3178245Y3088193D01*
G01X3183867Y3098569D01*
G01X3185812Y3110210D01*
G01X3185812Y3190210D01*
G01X3184059Y3201277D01*
G01X3178972Y3211260D01*
G01X3171048Y3219184D01*
G01X3161065Y3224271D01*
G01X3149998Y3226024D01*
G01X3059998Y3226024D01*
G01X3048495Y3224126D01*
G01X3038211Y3218635D01*
G01X3030236Y3210131D01*
G01X3025414Y3199517D01*
G01X3025414Y3200033D01*
G01X3023860Y3210471D01*
G01X3019330Y3220002D01*
G01X3012220Y3227800D01*
G01X3003145Y3233187D01*
G01X2992895Y3235695D01*
G01X2992895Y3278483D01*
G01X3009393Y3278483D01*
G01X3020642Y3280296D01*
G01X3031891Y3278483D01*
G01X3086892Y3278483D01*
G01X3093245Y3279051D01*
G01X3099397Y3280737D01*
G01X3105548Y3279051D01*
G01X3111901Y3278483D01*
G01X3166902Y3278483D01*
G01X3178149Y3280295D01*
G01X3188258Y3285547D01*
G01X3196206Y3293707D01*
G01X3201189Y3303951D01*
G01X3216887Y3295495D01*
G01X3233935Y3290269D01*
G01X3251675Y3288475D01*
G01X3269423Y3290181D01*
G01X3286496Y3295323D01*
G01X3302236Y3303702D01*
G01X3316034Y3314994D01*
G01X3327361Y3328765D01*
G01X3335778Y3344484D01*
G01X3340962Y3361544D01*
G01X3342712Y3379288D01*
G01X3342712Y3469288D01*
G01X3340793Y3487859D01*
G01X3335117Y3505645D01*
G01X3325924Y3521894D01*
G01X3313602Y3535920D01*
G01X3298673Y3547130D01*
G01X3281766Y3555050D01*
G01X3263598Y3559345D01*
G01X3244934Y3559835D01*
G01X3226566Y3556497D01*
G01X3209267Y3549474D01*
G01X3193771Y3539062D01*
G01X3180731Y3525701D01*
G01X3170699Y3509955D01*
G01X3162521Y3521963D01*
G01X3152065Y3532049D01*
G01X3139771Y3539789D01*
G01X3126155Y3544858D01*
G01X3111792Y3547041D01*
G01X3097286Y3546247D01*
G01X3083247Y3542509D01*
G01X3070266Y3535986D01*
G01X3058890Y3526950D01*
G01X3049597Y3515783D01*
G01X3042778Y3502955D01*
G01X3038721Y3489005D01*
G01X3037596Y3474520D01*
G01X3039450Y3460111D01*
G01X3031891Y3460111D01*
G01X3020642Y3458299D01*
G01X3009393Y3460111D01*
G01X2979393Y3460111D01*
G01X2969387Y3458685D01*
G01X2959381Y3460111D01*
G01X2929381Y3460111D01*
G01X2919387Y3458689D01*
G01X2909393Y3460111D01*
G01X2879308Y3460111D01*
G01X2871598Y3470158D01*
G01X2855255Y3486502D01*
G01X2845207Y3494212D01*
G01X2833507Y3499058D01*
G01X2820950Y3500711D01*
G01X2767837Y3500711D01*
G01X2755281Y3499058D01*
G01X2743580Y3494212D01*
G01X2733533Y3486502D01*
G01X2717189Y3470158D01*
G01X2709479Y3460111D01*
G01X2679394Y3460111D01*
G01X2669388Y3458685D01*
G01X2659381Y3460111D01*
G01X2629381Y3460111D01*
G01X2618132Y3458299D01*
G01X2606883Y3460111D01*
G01X2599324Y3460111D01*
G01X2601179Y3474518D01*
G01X2600054Y3489001D01*
G01X2595999Y3502949D01*
G01X2589182Y3515777D01*
G01X2579892Y3526943D01*
G01X2568518Y3535979D01*
G01X2555541Y3542505D01*
G01X2541504Y3546244D01*
G01X2527000Y3547042D01*
G01X2512638Y3544863D01*
G01X2499023Y3539799D01*
G01X2486728Y3532064D01*
G01X2476270Y3521983D01*
G01X2468089Y3509980D01*
G01X2458053Y3525720D01*
G01X2445011Y3539076D01*
G01X2429514Y3549484D01*
G01X2412216Y3556502D01*
G01X2393849Y3559836D01*
G01X2375188Y3559343D01*
G01X2357022Y3555046D01*
G01X2340118Y3547125D01*
G01X2325192Y3535914D01*
G01X2312872Y3521889D01*
G01X2303681Y3505641D01*
G01X2298006Y3487857D01*
G01X2296088Y3469288D01*
G01X359358Y3469288D01*
G01X781600Y3891530D01*
G01X801191Y3908262D01*
G01X823158Y3921724D01*
G01X846961Y3931583D01*
G01X872013Y3937598D01*
G01X897697Y3939619D01*
G01X2316801Y3939619D01*
G01X2305854Y3925406D01*
G01X2297747Y3909401D01*
G01X2292767Y3892165D01*
G01X2291088Y3874303D01*
G01X2291088Y3814303D01*
G01X2292929Y3795610D01*
G01X2298381Y3777636D01*
G01X2307235Y3761071D01*
G01X2319151Y3746552D01*
G01X2333670Y3734636D01*
G01X2350235Y3725782D01*
G01X2368209Y3720330D01*
G01X2386902Y3718489D01*
G01X2405594Y3720330D01*
G01X2423568Y3725782D01*
G01X2440133Y3734636D01*
G01X2454652Y3746552D01*
G01X2466568Y3761071D01*
G01X2475422Y3777636D01*
G01X2480874Y3795610D01*
G01X2482715Y3814303D01*
G01X2482715Y3874303D01*
G01X2481036Y3892165D01*
G01X2476056Y3909401D01*
G01X2467949Y3925406D01*
G01X2457002Y3939619D01*
G01X3181798Y3939619D01*
G01X3170851Y3925406D01*
G01X3162744Y3909401D01*
G01X3157764Y3892165D01*
G01X3156085Y3874303D01*
G01X3156085Y3814303D01*
G01X3157926Y3795610D01*
G01X3163378Y3777636D01*
G01X3172232Y3761071D01*
G01X3184148Y3746552D01*
G01X3198667Y3734636D01*
G01X3215232Y3725782D01*
G01X3233206Y3720330D01*
G01X3251899Y3718489D01*
G01X3270591Y3720330D01*
G01X3288565Y3725782D01*
G01X3305130Y3734636D01*
G01X3319649Y3746552D01*
G01X3331565Y3761071D01*
G01X3340419Y3777636D01*
G01X3345871Y3795610D01*
G01X3347712Y3814303D01*
G01X3347712Y3874303D01*
G01X3346033Y3892165D01*
G01X3341053Y3909401D01*
G01X3332946Y3925406D01*
G01X3321999Y3939619D01*
G01X4589219Y3939619D01*
G01X4614903Y3937598D01*
G01X4639955Y3931583D01*
G01X4663758Y3921724D01*
G01X4685725Y3908262D01*
G01X4705316Y3891530D01*
G01X5463449Y3133397D01*
G01X5463449Y2601642D01*
G01X5458735Y2620591D01*
G01X5450278Y2638191D01*
G01X5438428Y2653711D01*
G01X5423677Y2666506D01*
G01X5406639Y2676045D01*
G01X5388021Y2681932D01*
G01X5368596Y2683921D01*
G01X5238596Y2683921D01*
G01X5220113Y2682122D01*
G01X5202323Y2676790D01*
G01X5185897Y2668127D01*
G01X5171450Y2656457D01*
G01X5159526Y2642220D01*
G01X5150572Y2625950D01*
G01X5144925Y2608258D01*
G01X5142798Y2589809D01*
G01X5144269Y2571296D01*
G01X5149284Y2553415D01*
G01X5157654Y2536837D01*
G01X5169065Y2522186D01*
G01X4988480Y2341601D01*
G01X4604418Y2341601D01*
G01X4604418Y2349086D01*
G01X4602665Y2360153D01*
G01X4597578Y2370137D01*
G01X4589655Y2378060D01*
G01X4579671Y2383147D01*
G01X4568604Y2384900D01*
G01X4280604Y2384900D01*
G01X4269536Y2383147D01*
G01X4259553Y2378060D01*
G01X4251629Y2370137D01*
G01X4246542Y2360153D01*
G01X4244790Y2349086D01*
G01X4244790Y2237087D01*
G01X4246542Y2226020D01*
G01X4251629Y2216036D01*
G01X4259553Y2208113D01*
G01X4269536Y2203026D01*
G01X4280604Y2201273D01*
G01X4568604Y2201273D01*
G01X4579671Y2203026D01*
G01X4589655Y2208113D01*
G01X4597578Y2216036D01*
G01X4602665Y2226020D01*
G01X4604418Y2237087D01*
G01X4604418Y2244573D01*
G01X5008575Y2244573D01*
G01X5021132Y2246226D01*
G01X5032832Y2251072D01*
G01X5042880Y2258782D01*
G01X5276391Y2492294D01*
G01X5368596Y2492294D01*
G01X5388021Y2494283D01*
G01X5406639Y2500170D01*
G01X5423677Y2509709D01*
G01X5438428Y2522504D01*
G01X5450278Y2538024D01*
G01X5458735Y2555624D01*
G01X5463449Y2574573D01*
G01X5463449Y1311627D01*
G01X5458735Y1330576D01*
G01X5450278Y1348176D01*
G01X5438428Y1363696D01*
G01X5423677Y1376491D01*
G01X5406639Y1386030D01*
G01X5388021Y1391917D01*
G01X5368596Y1393906D01*
G01X5238596Y1393906D01*
G01X5219904Y1392065D01*
G01X5201930Y1386613D01*
G01X5185365Y1377759D01*
G01X5170846Y1365843D01*
G01X5158930Y1351324D01*
G01X5150076Y1334759D01*
G01X5144623Y1316785D01*
G01X5142782Y1298092D01*
G01X5144623Y1279400D01*
G01X5150076Y1261426D01*
G01X5158930Y1244861D01*
G01X5170846Y1230342D01*
G01X5185365Y1218426D01*
G01X5201930Y1209572D01*
G01X5219904Y1204120D01*
G01X5238596Y1202279D01*
G01X5368596Y1202279D01*
G01X5388021Y1204268D01*
G01X5406639Y1210155D01*
G01X5423677Y1219694D01*
G01X5438428Y1232489D01*
G01X5450278Y1248009D01*
G01X5458735Y1265609D01*
G01X5463449Y1284558D01*
G01X5463449Y591006D01*
G01X5461428Y565322D01*
G01X5455413Y540270D01*
G01X5445554Y516467D01*
G01X5432092Y494500D01*
G01X5415360Y474909D01*
G01X5023991Y83539D01*
G01X5004517Y66892D01*
G01X4982690Y53477D01*
G01X4959041Y43621D01*
G01X4934148Y37563D01*
G01X4908615Y35452D01*
G01X4526442Y33774D01*
G01X4540614Y43268D01*
G01X4552877Y55126D01*
G01X4562843Y68970D01*
G01X4570196Y84362D01*
G01X4574703Y100814D01*
G01X4576221Y117804D01*
G01X4576221Y247804D01*
G01X4574786Y264326D01*
G01X4570523Y280354D01*
G01X4563560Y295406D01*
G01X4554105Y309032D01*
G01X4542443Y320824D01*
G01X4528922Y330427D01*
G01X4528922Y766775D01*
G01X4527269Y779332D01*
G01X4522422Y791032D01*
G01X4514712Y801080D01*
G01X4277200Y1038592D01*
G01X4277200Y1205796D01*
G01X4275447Y1216864D01*
G01X4270360Y1226847D01*
G01X4262437Y1234771D01*
G01X4252453Y1239858D01*
G01X4241386Y1241610D01*
G01X4129387Y1241610D01*
G01X4118320Y1239858D01*
G01X4108336Y1234771D01*
G01X4100413Y1226847D01*
G01X4095326Y1216864D01*
G01X4093573Y1205796D01*
G01X4093573Y917796D01*
G01X4095326Y906729D01*
G01X4100413Y896745D01*
G01X4108336Y888822D01*
G01X4118320Y883735D01*
G01X4129387Y881982D01*
G01X4241386Y881982D01*
G01X4251784Y883525D01*
G01X4261286Y888020D01*
G01X4269074Y895080D01*
G01X4274477Y904097D01*
G01X4431894Y746680D01*
G01X4431894Y330427D01*
G01X4418372Y320824D01*
G01X4406710Y309032D01*
G01X4397255Y295406D01*
G01X4390292Y280354D01*
G01X4386029Y264326D01*
G01X4384594Y247804D01*
G01X4384594Y117804D01*
G01X4386137Y100676D01*
G01X4390718Y84099D01*
G01X4398188Y68608D01*
G01X4408307Y54703D01*
G01X4420749Y42830D01*
G01X4435113Y33372D01*
G01X3223934Y28053D01*
G01X3241274Y36617D01*
G01X3256541Y48489D01*
G01X3269114Y63185D01*
G01X3278478Y80106D01*
G01X3284254Y98563D01*
G01X3286206Y117804D01*
G01X3286206Y247804D01*
G01X3284365Y266496D01*
G01X3278913Y284470D01*
G01X3270059Y301035D01*
G01X3258143Y315554D01*
G01X3243624Y327470D01*
G01X3227059Y336324D01*
G01X3209085Y341777D01*
G01X3190392Y343618D01*
G01X3171700Y341777D01*
G01X3153726Y336324D01*
G01X3137161Y327470D01*
G01X3122642Y315554D01*
G01X3110726Y301035D01*
G01X3101872Y284470D01*
G01X3096420Y266496D01*
G01X3094579Y247804D01*
G01X3094579Y117804D01*
G01X3096559Y98425D01*
G01X3102417Y79848D01*
G01X3111912Y62839D01*
G01X3124650Y48102D01*
G01X3140106Y36247D01*
G01X3157641Y27762D01*
G37*
G54D10*
G01X3157641Y27762D02*
G01X2237944Y23722D01*
G03X2315621Y117804I-18137J94082D01*
G01X2315621Y247804D01*
G03X2268322Y330427I-95814J0D01*
G01X2268322Y817575D01*
G03X2254112Y851880I-48514J0D01*
G01X2016600Y1089392D01*
G01X2016600Y1205796D01*
G03X1980786Y1241610I-35814J0D01*
G01X1872423Y1241610D01*
G01X1930999Y1300186D01*
G01X2023467Y1300186D01*
G01X2131258Y1192396D01*
G03X2165562Y1178186I34305J34305D01*
G01X2667154Y1178186D01*
G03X2701458Y1192396I0J48514D01*
G01X3090001Y1580938D01*
G03X3104210Y1615243I-34305J34305D01*
G01X3104210Y1674190D01*
G03X3104011Y1678584I-48514J0D01*
G01X3104011Y1734190D01*
G03X3068197Y1770004I-35814J0D01*
G01X3043196Y1770004D01*
G03X3029191Y1767153I0J-35814D01*
G03X3015187Y1770004I-14004J-32962D01*
G01X2990186Y1770004D01*
G03X2976194Y1767158I0J-35814D01*
G03X2962203Y1770004I-13992J-32968D01*
G01X2937201Y1770004D01*
G03X2923197Y1767153I0J-35814D01*
G03X2909193Y1770004I-14004J-32962D01*
G01X2884192Y1770004D01*
G03X2870200Y1767158I0J-35814D01*
G03X2856208Y1770004I-13992J-32968D01*
G01X2831207Y1770004D01*
G03X2817203Y1767153I0J-35814D01*
G03X2803199Y1770004I-14004J-32962D01*
G01X2778197Y1770004D01*
G03X2764193Y1767153I0J-35814D01*
G03X2750189Y1770004I-14004J-32962D01*
G01X2725188Y1770004D01*
G03X2711196Y1767158I0J-35814D01*
G03X2697204Y1770004I-13992J-32968D01*
G01X2672203Y1770004D01*
G03X2636389Y1734190I0J-35814D01*
G01X2636389Y1722704D01*
G01X2619615Y1722704D01*
G01X2447522Y1894797D01*
G01X2447522Y1947001D01*
G03X2420222Y1981789I-35814J0D01*
G01X2420222Y1987314D01*
G03X2447522Y2022102I-8514J34787D01*
G01X2447522Y2112101D01*
G03X2411708Y2147915I-35814J0D01*
G01X2371211Y2147915D01*
G03X2372614Y2159498I-47111J11582D01*
G01X2372614Y2317141D01*
G03X2372614Y2407561I-48514J45210D01*
G01X2372614Y2506196D01*
G03X2406100Y2483084I33486J12701D01*
G01X2496100Y2483084D01*
G03X2527300Y2501314I0J35814D01*
G03X2558500Y2483084I31200J17584D01*
G01X2648500Y2483084D01*
G03X2684314Y2518898I0J35814D01*
G01X2684314Y2598898D01*
G03X2668057Y2628900I-35814J0D01*
G03X2684314Y2658902I-19557J30002D01*
G01X2684314Y2738902D01*
G03X2648500Y2774716I-35814J0D01*
G01X2558500Y2774716D01*
G03X2527300Y2756486I0J-35814D01*
G03X2496100Y2774716I-31200J-17584D01*
G01X2406100Y2774716D01*
G03X2370286Y2738902I0J-35814D01*
G01X2370286Y2686698D01*
G01X2289795Y2606207D01*
G03X2275586Y2571902I34305J-34305D01*
G01X2275586Y2407561D01*
G03X2275586Y2317141I48514J-45210D01*
G01X2275586Y2179593D01*
G01X2243908Y2147915D01*
G01X2191704Y2147915D01*
G03X2155890Y2112101I0J-35814D01*
G01X2155890Y2022102D01*
G03X2183190Y1987314I35814J0D01*
G01X2183190Y1981789D01*
G03X2155890Y1947001I8514J-34787D01*
G01X2155890Y1857002D01*
G03X2174120Y1825802I35814J0D01*
G03X2155890Y1794601I17584J-31200D01*
G01X2155890Y1704602D01*
G03X2174120Y1673402I35814J0D01*
G03X2155890Y1642201I17584J-31200D01*
G01X2155890Y1552202D01*
G03X2191704Y1516388I35814J0D01*
G01X2271704Y1516388D01*
G03X2301706Y1532644I0J35814D01*
G03X2331709Y1516388I30002J19557D01*
G01X2411708Y1516388D01*
G03X2447522Y1552202I0J35814D01*
G01X2447522Y1642201D01*
G03X2429292Y1673402I-35814J0D01*
G03X2447350Y1701088I-17584J31200D01*
G01X2453667Y1701088D01*
G01X2614260Y1540495D01*
G03X2648564Y1526286I34305J34305D01*
G01X2688515Y1526286D01*
G01X2658543Y1496314D01*
G01X2623310Y1496314D01*
G03X2518052Y1475939I-45210J-48514D01*
G03X2569748Y1382014I60048J-28139D01*
G01X2229895Y1382014D01*
G01X1634111Y1977798D01*
G03X1599806Y1992008I-34305J-34305D01*
G01X775317Y1992008D01*
G01X775317Y2020063D01*
G03X768437Y2044967I-48514J0D01*
G01X822686Y2044967D01*
G01X822686Y2043340D01*
G03X858500Y2007526I35814J0D01*
G01X944900Y2007526D01*
G03X980714Y2043340I0J35814D01*
G01X980714Y2123987D01*
G03X952434Y2159000I-35814J0D01*
G03X980714Y2194013I-7534J35013D01*
G01X980714Y2274660D01*
G03X944900Y2310474I-35814J0D01*
G01X858500Y2310474D01*
G03X822686Y2274660I0J-35814D01*
G01X822686Y2194013D01*
G03X850966Y2159000I35814J0D01*
G03X827542Y2141995I7534J-35013D01*
G01X734717Y2141995D01*
G01X734717Y2158493D01*
G03X732904Y2169742I-35814J0D01*
G03X734717Y2180991I-34002J11249D01*
G01X734717Y2235992D01*
G03X732463Y2248497I-35814J0D01*
G03X734717Y2261001I-33560J12504D01*
G01X734717Y2316002D01*
G03X709249Y2350289I-35814J0D01*
G03X633912Y2491812I-75338J50709D01*
G01X543912Y2491812D01*
G03X503245Y2319799I0J-90814D01*
G03X470691Y2232347I33648J-62311D01*
G03X553089Y2188550I66202J25141D01*
G01X553089Y2180991D01*
G03X554901Y2169742I35814J0D01*
G03X553089Y2158493I34002J-11249D01*
G01X553089Y2128493D01*
G03X554515Y2118487I35814J0D01*
G03X553089Y2108481I34388J-10006D01*
G01X553089Y2078481D01*
G03X554511Y2068487I35814J0D01*
G03X553089Y2058493I34391J-9994D01*
G01X553089Y2028408D01*
G03X543042Y2020698I24257J-42014D01*
G01X526698Y2004355D01*
G03X512489Y1970050I34305J-34305D01*
G01X512489Y1916937D01*
G03X526698Y1882633I48514J0D01*
G01X543042Y1866289D01*
G03X553089Y1858579I34305J34305D01*
G01X553089Y1828494D01*
G03X554515Y1818488I35814J0D01*
G03X553089Y1808481I34388J-10006D01*
G01X553089Y1778481D01*
G03X554901Y1767232I35814J0D01*
G03X553089Y1755983I34002J-11249D01*
G01X553089Y1748424D01*
G03X470695Y1704641I-16196J-68938D01*
G03X503220Y1617189I66197J-25154D01*
G03X543912Y1445188I40692J-81187D01*
G01X633912Y1445188D01*
G03X709249Y1586711I0J90814D01*
G03X734717Y1620998I-10347J34287D01*
G01X734717Y1675999D01*
G03X732467Y1688490I-35814J0D01*
G03X734717Y1700982I-33565J12492D01*
G01X734717Y1744967D01*
G01X835413Y1744967D01*
G03X822686Y1717587I23086J-27380D01*
G01X822686Y1636940D01*
G03X858500Y1601126I35814J0D01*
G01X944900Y1601126D01*
G03X980714Y1636940I0J35814D01*
G01X980714Y1717587D01*
G03X952434Y1752600I-35814J0D01*
G03X980714Y1787613I-7534J35013D01*
G01X980714Y1847646D01*
G01X1576699Y1847646D01*
G01X1991531Y1432814D01*
G01X1684752Y1432814D01*
G03X1728357Y1539807I-8352J65786D01*
G03X1614245Y1521714I-51957J-41207D01*
G01X1453744Y1521714D01*
G03X1418102Y1554014I-35641J-3514D01*
G01X1338102Y1554014D01*
G03X1308100Y1537757I0J-35814D01*
G03X1278098Y1554014I-30002J-19557D01*
G01X1198098Y1554014D01*
G03X1162284Y1518200I0J-35814D01*
G01X1162284Y1428200D01*
G03X1198098Y1392386I35814J0D01*
G01X1278098Y1392386D01*
G03X1308100Y1408643I0J35814D01*
G03X1338102Y1392386I30002J19557D01*
G01X1418102Y1392386D01*
G03X1453744Y1424686I0J35814D01*
G01X1535219Y1424686D01*
G03X1527795Y1418605I26881J-40386D01*
G01X1440496Y1331305D01*
G03X1426286Y1297000I34305J-34305D01*
G01X1426286Y1241610D01*
G01X1418801Y1241610D01*
G03X1382987Y1205796I0J-35814D01*
G01X1382987Y917796D01*
G03X1418801Y881982I35814J0D01*
G01X1530800Y881982D01*
G03X1566614Y917796I0J35814D01*
G01X1566614Y1205796D01*
G03X1530800Y1241610I-35814J0D01*
G01X1523314Y1241610D01*
G01X1523314Y1276905D01*
G01X1582195Y1335786D01*
G01X1829380Y1335786D01*
G01X1734962Y1241368D01*
G03X1730799Y1241610I-4163J-35571D01*
G01X1618800Y1241610D01*
G03X1582986Y1205796I0J-35814D01*
G01X1582986Y917796D01*
G03X1618800Y881982I35814J0D01*
G01X1730799Y881982D01*
G03X1766613Y917796I0J35814D01*
G01X1766613Y1135800D01*
G01X1832973Y1202160D01*
G01X1832973Y917796D01*
G03X1868787Y881982I35814J0D01*
G01X1980786Y881982D01*
G03X2016600Y917796I0J35814D01*
G01X2016600Y952174D01*
G01X2171294Y797480D01*
G01X2171294Y330427D01*
G03X2123994Y247804I48514J-82624D01*
G01X2123994Y117804D01*
G03X2202498Y23567I95814J0D01*
G01X598159Y16520D01*
G02X481341Y64608I-721J164185D01*
G01X85624Y460325D01*
G02X37535Y576422I116097J116097D01*
G01X37535Y3079457D01*
G02X85624Y3195554I164186J0D01*
G01X781600Y3891530D01*
G02X897697Y3939619I116097J-116097D01*
G01X2316801Y3939619D01*
G03X2291088Y3874303I70100J-65317D01*
G01X2291088Y3814303D01*
G03X2482715Y3814303I95814J0D01*
G01X2482715Y3874303D01*
G03X2457002Y3939619I-95814J0D01*
G01X3181798Y3939619D01*
G03X3156085Y3874303I70100J-65317D01*
G01X3156085Y3814303D01*
G03X3347712Y3814303I95814J0D01*
G01X3347712Y3874303D01*
G03X3321999Y3939619I-95814J0D01*
G01X4589219Y3939619D01*
G02X4705316Y3891530I0J-164186D01*
G01X5463449Y3133397D01*
G01X5463449Y2601642D01*
G03X5368596Y2683921I-94853J-13535D01*
G01X5238596Y2683921D01*
G03X5169065Y2522186I0J-95814D01*
G01X4988480Y2341601D01*
G01X4604418Y2341601D01*
G01X4604418Y2349086D01*
G03X4568604Y2384900I-35814J0D01*
G01X4280604Y2384900D01*
G03X4244790Y2349086I0J-35814D01*
G01X4244790Y2237087D01*
G03X4280604Y2201273I35814J0D01*
G01X4568604Y2201273D01*
G03X4604418Y2237087I0J35814D01*
G01X4604418Y2244573D01*
G01X5008575Y2244573D01*
G03X5042880Y2258782I0J48514D01*
G01X5276391Y2492294D01*
G01X5368596Y2492294D01*
G03X5463449Y2574573I0J95814D01*
G01X5463449Y1311627D01*
G03X5368596Y1393906I-94853J-13535D01*
G01X5238596Y1393906D01*
G03X5238596Y1202279I0J-95814D01*
G01X5368596Y1202279D01*
G03X5463449Y1284558I0J95814D01*
G01X5463449Y591006D01*
G02X5415360Y474909I-164186J0D01*
G01X5023991Y83539D01*
G02X4908615Y35452I-116097J116097D01*
G01X4526442Y33774D01*
G03X4576221Y117804I-46035J84030D01*
G01X4576221Y247804D01*
G03X4528922Y330427I-95814J0D01*
G01X4528922Y766775D01*
G03X4514712Y801080I-48514J0D01*
G01X4277200Y1038592D01*
G01X4277200Y1205796D01*
G03X4241386Y1241610I-35814J0D01*
G01X4129387Y1241610D01*
G03X4093573Y1205796I0J-35814D01*
G01X4093573Y917796D01*
G03X4129387Y881982I35814J0D01*
G01X4241386Y881982D01*
G03X4274477Y904097I0J35814D01*
G01X4431894Y746680D01*
G01X4431894Y330427D01*
G03X4384594Y247804I48514J-82624D01*
G01X4384594Y117804D01*
G03X4435113Y33372I95814J0D01*
G01X3223934Y28053D01*
G03X3286206Y117804I-33542J89751D01*
G01X3286206Y247804D01*
G03X3094579Y247804I-95814J0D01*
G01X3094579Y117804D01*
G03X3157641Y27762I95814J0D01*
G01X198897Y2496812D02*
G01X138897Y2496812D01*
G03X138897Y2305185I0J-95814D01*
G01X198897Y2305185D01*
G03X198897Y2496812I0J95814D01*
G01X198897Y1631815D02*
G01X138897Y1631815D01*
G03X138897Y1440188I0J-95814D01*
G01X198897Y1440188D01*
G03X198897Y1631815I0J95814D01*
G01X833979Y247804D02*
G01X833979Y117804D01*
G03X1025606Y117804I95814J0D01*
G01X1025606Y247804D01*
G03X833979Y247804I-95814J0D01*
G01X1133000Y917796D02*
G03X1168814Y881982I35814J0D01*
G01X1280813Y881982D01*
G03X1316627Y917796I0J35814D01*
G01X1316627Y1205796D01*
G03X1280813Y1241610I-35814J0D01*
G01X1168814Y1241610D01*
G03X1133000Y1205796I0J-35814D01*
G01X1133000Y917796D01*
G01X3686886Y1578505D02*
G01X3686886Y1241610D01*
G01X3679401Y1241610D01*
G03X3643587Y1205796I0J-35814D01*
G01X3643587Y917796D01*
G03X3679401Y881982I35814J0D01*
G01X3791400Y881982D01*
G03X3827214Y917796I0J35814D01*
G01X3827214Y1101373D01*
G01X3843586Y1085000D01*
G01X3843586Y917796D01*
G03X3879400Y881982I35814J0D01*
G01X3991399Y881982D01*
G03X4027213Y917796I0J35814D01*
G01X4027213Y1205796D01*
G03X3991399Y1241610I-35814J0D01*
G01X3879400Y1241610D01*
G03X3867814Y1239684I0J-35814D01*
G01X3867814Y1565046D01*
G03X3853604Y1599351I-48514J0D01*
G01X3342469Y2110486D01*
G01X3967705Y2110486D01*
G01X4244790Y1833401D01*
G01X4244790Y1787101D01*
G03X4280604Y1751287I35814J0D01*
G01X4568604Y1751287D01*
G03X4604418Y1787101I0J35814D01*
G01X4604418Y1899100D01*
G03X4568604Y1934914I-35814J0D01*
G01X4280496Y1934913D01*
G01X4220823Y1994586D01*
G01X4244790Y1994586D01*
G01X4244790Y1987100D01*
G03X4280604Y1951286I35814J0D01*
G01X4568604Y1951286D01*
G03X4604418Y1987100I0J35814D01*
G01X4604418Y2099099D01*
G03X4568604Y2134913I-35814J0D01*
G01X4280604Y2134913D01*
G03X4244790Y2099099I0J-35814D01*
G01X4244790Y2091614D01*
G01X4187295Y2091614D01*
G01X4047505Y2231405D01*
G03X4013200Y2245614I-34305J-34305D01*
G01X3000635Y2245614D01*
G03X2966331Y2231405I0J-48514D01*
G01X2892222Y2157296D01*
G01X2892222Y2934623D01*
G03X2903200Y2932899I10978J34090D01*
G01X2989600Y2932899D01*
G03X3024938Y2962892I0J35814D01*
G03X3059998Y2934391I35059J7313D01*
G01X3112202Y2934391D01*
G01X3280014Y2766579D01*
G03X3392965Y2721486I66283J2021D01*
G03X3348951Y2834861I-46667J47114D01*
G01X3185812Y2998000D01*
G01X3185812Y3050205D01*
G03X3169555Y3080207I-35814J0D01*
G03X3185812Y3110210I-19557J30002D01*
G01X3185812Y3190210D01*
G03X3149998Y3226024I-35814J0D01*
G01X3059998Y3226024D01*
G03X3025414Y3199517I0J-35814D01*
G01X3025414Y3200033D01*
G03X2992895Y3235695I-35814J0D01*
G01X2992895Y3278483D01*
G01X3009393Y3278483D01*
G03X3020642Y3280296I0J35814D01*
G03X3031891Y3278483I11249J34002D01*
G01X3086892Y3278483D01*
G03X3099397Y3280737I0J35814D01*
G03X3111901Y3278483I12504J33560D01*
G01X3166902Y3278483D01*
G03X3201189Y3303951I0J35814D01*
G03X3342712Y3379288I50709J75338D01*
G01X3342712Y3469288D01*
G03X3170699Y3509955I-90814J0D01*
G03X3083247Y3542509I-62311J-33648D01*
G03X3039450Y3460111I25141J-66202D01*
G01X3031891Y3460111D01*
G03X3020642Y3458299I0J-35814D01*
G03X3009393Y3460111I-11249J-34002D01*
G01X2979393Y3460111D01*
G03X2969387Y3458685I0J-35814D01*
G03X2959381Y3460111I-10006J-34388D01*
G01X2929381Y3460111D01*
G03X2919387Y3458689I0J-35814D01*
G03X2909393Y3460111I-9994J-34391D01*
G01X2879308Y3460111D01*
G03X2871598Y3470158I-42014J-24257D01*
G01X2855255Y3486502D01*
G03X2820950Y3500711I-34305J-34305D01*
G01X2767837Y3500711D01*
G03X2733533Y3486502I0J-48514D01*
G01X2717189Y3470158D01*
G03X2709479Y3460111I34305J-34305D01*
G01X2679394Y3460111D01*
G03X2669388Y3458685I0J-35814D01*
G03X2659381Y3460111I-10006J-34388D01*
G01X2629381Y3460111D01*
G03X2618132Y3458299I0J-35814D01*
G03X2606883Y3460111I-11249J-34002D01*
G01X2599324Y3460111D01*
G03X2555541Y3542505I-68938J16196D01*
G03X2468089Y3509980I-25154J-66197D01*
G03X2296088Y3469288I-81187J-40692D01*
G01X2296088Y3379288D01*
G03X2437611Y3303951I90814J0D01*
G03X2471898Y3278483I34287J10347D01*
G01X2526899Y3278483D01*
G03X2539390Y3280733I0J35814D01*
G03X2551882Y3278483I12492J33565D01*
G01X2595867Y3278483D01*
G01X2595867Y3237485D01*
G03X2562586Y3201760I2532J-35724D01*
G01X2562586Y3121113D01*
G03X2590866Y3086100I35814J0D01*
G03X2562586Y3051087I7534J-35013D01*
G01X2562586Y2970440D01*
G03X2598400Y2934626I35814J0D01*
G01X2684800Y2934626D01*
G03X2695893Y2936387I0J35814D01*
G01X2695893Y2441160D01*
G03X2710102Y2406855I48514J0D01*
G01X2742184Y2374773D01*
G01X2742184Y2130024D01*
G01X2725188Y2130024D01*
G03X2711196Y2127178I0J-35814D01*
G03X2697204Y2130024I-13992J-32968D01*
G01X2672203Y2130024D01*
G03X2645898Y2118514I0J-35814D01*
G01X2600210Y2118514D01*
G03X2488686Y2070000I-45210J-48514D01*
G03X2600210Y2021486I66314J0D01*
G01X2628819Y2021486D01*
G01X2636389Y2013915D01*
G01X2636389Y1974210D01*
G03X2672203Y1938396I35814J0D01*
G01X2697204Y1938396D01*
G03X2711196Y1941242I0J35814D01*
G03X2725188Y1938396I13992J32968D01*
G01X2750189Y1938396D01*
G03X2764193Y1941247I0J35814D01*
G03X2778197Y1938396I14004J32962D01*
G01X2803199Y1938396D01*
G03X2817203Y1941247I0J35814D01*
G03X2831207Y1938396I14004J32962D01*
G01X2856208Y1938396D01*
G03X2870200Y1941242I0J35814D01*
G03X2884192Y1938396I13992J32968D01*
G01X2909193Y1938396D01*
G03X2923197Y1941247I0J35814D01*
G03X2937201Y1938396I14004J32962D01*
G01X2962203Y1938396D01*
G03X2976194Y1941242I0J35814D01*
G03X2990186Y1938396I13992J32968D01*
G01X3015187Y1938396D01*
G03X3029191Y1941247I0J35814D01*
G03X3043196Y1938396I14004J32962D01*
G01X3068197Y1938396D01*
G03X3104011Y1974210I0J35814D01*
G01X3104011Y2019402D01*
G01X3106195Y2021586D01*
G01X3243805Y2021586D01*
G01X3686886Y1578505D01*
G01X3398986Y1430498D02*
G01X3398986Y1350498D01*
G03X3434800Y1314684I35814J0D01*
G01X3524800Y1314684D01*
G03X3560614Y1350498I0J35814D01*
G01X3560614Y1430498D01*
G03X3544357Y1460500I-35814J0D01*
G03X3560614Y1490502I-19557J30002D01*
G01X3560614Y1570502D01*
G03X3524800Y1606316I-35814J0D01*
G01X3434800Y1606316D01*
G03X3400013Y1579016I0J-35814D01*
G01X3372610Y1579016D01*
G03X3261086Y1530502I-45210J-48514D01*
G03X3372610Y1481988I66314J0D01*
G01X3400013Y1481988D01*
G03X3415243Y1460500I34787J8514D01*
G03X3398986Y1430498I19557J-30002D01*
G01X3393600Y917796D02*
G03X3429414Y881982I35814J0D01*
G01X3541413Y881982D01*
G03X3577227Y917796I0J35814D01*
G01X3577227Y1205796D01*
G03X3541413Y1241610I-35814J0D01*
G01X3429414Y1241610D01*
G03X3393600Y1205796I0J-35814D01*
G01X3393600Y917796D01*
G01X4033998Y1681014D02*
G01X3953998Y1681014D01*
G03X3918184Y1645200I0J-35814D01*
G01X3918184Y1555200D01*
G03X3945484Y1520413I35814J0D01*
G01X3945484Y1467610D01*
G03X3993998Y1356086I48514J-45210D01*
G03X4042512Y1467610I0J66314D01*
G01X4042512Y1520413D01*
G03X4064000Y1535643I-8514J34787D01*
G03X4094002Y1519386I30002J19557D01*
G01X4174002Y1519386D01*
G03X4209816Y1555200I0J35814D01*
G01X4209816Y1645200D01*
G03X4174002Y1681014I-35814J0D01*
G01X4094002Y1681014D01*
G03X4064000Y1664757I0J-35814D01*
G03X4033998Y1681014I-30002J-19557D01*
G01X4568604Y1501300D02*
G03X4604418Y1537114I0J35814D01*
G01X4604418Y1649113D01*
G03X4568604Y1684927I-35814J0D01*
G01X4280604Y1684927D01*
G03X4244790Y1649113I0J-35814D01*
G01X4244790Y1537114D01*
G03X4280604Y1501300I35814J0D01*
G01X4568604Y1501300D01*
G54D11*
G01X643903Y2208492D02*
G01X724557Y2208492D01*
G01X643903Y1728483D02*
G01X724557Y1728483D01*
G01X901700Y2234336D02*
G01X901700Y2300314D01*
G01X901700Y2234336D02*
G01X832846Y2234336D01*
G01X901700Y2234336D02*
G01X970554Y2234336D01*
G01X901700Y1677264D02*
G01X901700Y1611286D01*
G01X901700Y1677264D02*
G01X970554Y1677264D01*
G01X901700Y1677264D02*
G01X832846Y1677264D01*
G01X1238098Y1473200D02*
G01X1172444Y1473200D01*
G01X1238098Y1473200D02*
G01X1238098Y1543854D01*
G01X1238098Y1473200D02*
G01X1238098Y1402546D01*
G01X2451100Y2558898D02*
G01X2451100Y2493244D01*
G01X2579383Y3369297D02*
G01X2579383Y3288643D01*
G01X2603500Y2558898D02*
G01X2603500Y2493244D01*
G01X2603500Y2558898D02*
G01X2674154Y2558898D01*
G01X2737688Y2034210D02*
G01X2737688Y2119864D01*
G01X2737688Y2034210D02*
G01X2737688Y1948556D01*
G01X3059392Y3369297D02*
G01X3059392Y3288643D01*
G01X3104998Y3150210D02*
G01X3104998Y3215864D01*
G01X3104998Y3150210D02*
G01X3175652Y3150210D01*
G01X3479800Y1390498D02*
G01X3479800Y1324844D01*
G01X3479800Y1390498D02*
G01X3409146Y1390498D01*
G01X3479800Y1390498D02*
G01X3550454Y1390498D01*
G01X3485413Y1061796D02*
G01X3403760Y1061796D01*
G01X3485413Y1061796D02*
G01X3567067Y1061796D01*
G01X3485413Y1061796D02*
G01X3485413Y1231450D01*
G01X3485413Y1061796D02*
G01X3485413Y892142D01*
G01X4134002Y1600200D02*
G01X4199656Y1600200D01*
G01X4134002Y1600200D02*
G01X4134002Y1529546D01*
G01X4134002Y1600200D02*
G01X4134002Y1670854D01*
G01X4424604Y1593113D02*
G01X4424604Y1511460D01*
G01X4424604Y1593113D02*
G01X4424604Y1674767D01*
G01X4424604Y1593113D02*
G01X4254950Y1593113D01*
G01X4424604Y1593113D02*
G01X4594258Y1593113D01*
G01X1224813Y1061796D02*
G01X1143160Y1061796D01*
G01X1224813Y1061796D02*
G01X1306467Y1061796D01*
G01X1224813Y1061796D02*
G01X1224813Y1231450D01*
G01X1224813Y1061796D02*
G01X1224813Y892142D01*
G04 Copper End*

G04 Pad Start*
G54D12*
G01X1378102Y1473200D03*
G01X1238098Y1473200D03*
G54D13*
G01X3479800Y1530502D03*
G01X3479800Y1390498D03*
G54D12*
G01X3993998Y1600200D03*
G01X4134002Y1600200D03*
G01X2231704Y2067102D03*
G01X2371708Y2067102D03*
G01X2231704Y1902002D03*
G01X2371708Y1902002D03*
G01X2231704Y1597202D03*
G01X2371708Y1597202D03*
G01X2231704Y1749602D03*
G01X2371708Y1749602D03*
G54D13*
G01X2603500Y2698902D03*
G01X2603500Y2558898D03*
G01X2451100Y2698902D03*
G01X2451100Y2558898D03*
G54D14*
G01X901700Y2234336D03*
G01X901700Y2083664D03*
G01X901700Y1677264D03*
G01X901700Y1827936D03*
G54D15*
G01X3055696Y2034210D03*
G01X3002686Y2034210D03*
G01X2949702Y2034210D03*
G01X2896692Y2034210D03*
G01X2843708Y2034210D03*
G01X2790698Y2034210D03*
G01X2737688Y2034210D03*
G01X2684704Y2034210D03*
G01X2684704Y1674190D03*
G01X2737688Y1674190D03*
G01X2790698Y1674190D03*
G01X2843708Y1674190D03*
G01X2896692Y1674190D03*
G01X2949702Y1674190D03*
G01X3002686Y1674190D03*
G01X3055696Y1674190D03*
G54D17*
G01X643903Y2288502D03*
G01X643903Y2208492D03*
G54D18*
G01X643903Y2143493D03*
G01X643903Y2093481D03*
G01X643903Y2043494D03*
G01X643903Y1993506D03*
G01X643903Y1943494D03*
G01X643903Y1893507D03*
G01X643903Y1843494D03*
G01X643903Y1793481D03*
G54D17*
G01X643903Y1728483D03*
G01X643903Y1648498D03*
G54D19*
G01X588912Y2400999D03*
G01X588912Y1536002D03*
G54D20*
G01X168897Y2400999D03*
G01X168897Y1536002D03*
G54D21*
G01X4185387Y1061796D03*
G01X3935400Y1061796D03*
G01X3735400Y1061796D03*
G01X3485413Y1061796D03*
G54D22*
G01X4480408Y182804D03*
G01X3190392Y182804D03*
G54D23*
G01X4424604Y2293087D03*
G01X4424604Y2043100D03*
G01X4424604Y1843100D03*
G01X4424604Y1593113D03*
G54D24*
G01X5303596Y2588108D03*
G01X5303596Y1298092D03*
G54D21*
G01X1924787Y1061796D03*
G01X1674800Y1061796D03*
G01X1474800Y1061796D03*
G01X1224813Y1061796D03*
G54D22*
G01X2219808Y182804D03*
G01X929792Y182804D03*
G54D14*
G01X2641600Y3161436D03*
G01X2641600Y3010764D03*
G01X2946400Y3159709D03*
G01X2946400Y3009036D03*
G54D25*
G01X3139402Y3369297D03*
G01X3059392Y3369297D03*
G54D26*
G01X2994393Y3369297D03*
G01X2944381Y3369297D03*
G01X2894394Y3369297D03*
G01X2844406Y3369297D03*
G01X2794394Y3369297D03*
G01X2744407Y3369297D03*
G01X2694394Y3369297D03*
G01X2644381Y3369297D03*
G54D25*
G01X2579383Y3369297D03*
G01X2499398Y3369297D03*
G54D27*
G01X3251899Y3424288D03*
G01X2386902Y3424288D03*
G54D28*
G01X3251899Y3844303D03*
G01X2386902Y3844303D03*
G54D13*
G01X3104998Y3010205D03*
G01X3104998Y3150210D03*
G04 Pad End*

G04 Via Start*
G54D29*
G01X3993998Y1422400D03*
G01X3327400Y1530502D03*
G01X2324100Y2362351D03*
G01X2578100Y1447800D03*
G01X1676400Y1498600D03*
G01X2555000Y2070000D03*
G01X3346298Y2768600D03*
G04 Via End*

G04 Track Start*
G54D11*
G01X4424604Y2043100D02*
G01X4167200Y2043100D01*
G01X4013200Y2197100D01*
G01X3000635Y2197100D01*
G01X2896692Y2093157D01*
G01X2896692Y2034210D01*
G01X4424604Y1843100D02*
G01X4303700Y1843100D01*
G01X3987800Y2159000D01*
G01X3015519Y2159000D01*
G01X2946400Y2089881D01*
G01X2946400Y2034210D01*
G01X2949702Y2034210D01*
G01X4424604Y1593113D02*
G01X4141089Y1593113D01*
G01X4134002Y1600200D01*
G01X2371708Y1902002D02*
G01X2371708Y2067102D01*
G01X2371708Y1749602D02*
G01X2371708Y1597202D01*
G01X1224813Y1112596D02*
G01X1224813Y1459916D01*
G01X1238098Y1473200D01*
G01X643903Y1793481D02*
G01X867245Y1793481D01*
G01X901700Y1827936D01*
G01X643903Y1728483D02*
G01X850481Y1728483D01*
G01X901700Y1677264D01*
G01X643903Y2208492D02*
G01X875856Y2208492D01*
G01X901700Y2234336D01*
G01X643903Y2093481D02*
G01X891883Y2093481D01*
G01X901700Y2083664D01*
G01X2371708Y1902002D02*
G01X2599520Y1674190D01*
G01X2684704Y1674190D01*
G01X2371708Y1749602D02*
G01X2473763Y1749602D01*
G01X2648564Y1574800D01*
G01X2697271Y1574800D01*
G01X2737688Y1615217D01*
G01X2737688Y1674190D02*
G01X2737688Y1615217D01*
G01X643903Y1943494D02*
G01X1599806Y1943494D01*
G01X2209800Y1333500D01*
G01X2614975Y1333500D01*
G01X2896692Y1615217D01*
G01X2896692Y1674190D01*
G01X3735400Y1061796D02*
G01X3735400Y1598600D01*
G01X3935400Y1061796D02*
G01X3819300Y1177896D01*
G01X3819300Y1565046D01*
G01X3263900Y2120446D01*
G01X3088922Y2120446D01*
G01X3087258Y2122110D01*
G01X3031639Y2122110D01*
G01X2997200Y2087671D01*
G01X2997200Y2039696D01*
G01X3002686Y2034210D01*
G01X3055696Y2039696D02*
G01X3055696Y2034210D01*
G01X3735400Y1598600D02*
G01X3263900Y2070100D01*
G01X3086100Y2070100D01*
G01X3055696Y2039696D01*
G01X643903Y1893507D02*
G01X844289Y1893507D01*
G01X846943Y1896160D01*
G01X1596794Y1896160D01*
G01X2195054Y1297900D01*
G01X2632359Y1297900D01*
G01X2949702Y1615243D01*
G01X2949702Y1674190D01*
G01X1474800Y1112596D02*
G01X1474800Y1297000D01*
G01X1562100Y1384300D01*
G01X2058308Y1384300D01*
G01X2180308Y1262300D01*
G01X2649769Y1262300D01*
G01X1674800Y1112596D02*
G01X1910904Y1348700D01*
G01X2043562Y1348700D02*
G01X2165562Y1226700D01*
G01X1910904Y1348700D02*
G01X2043562Y1348700D01*
G01X2165562Y1226700D02*
G01X2667154Y1226700D01*
G01X2649769Y1262300D02*
G01X3002686Y1615217D01*
G01X3002686Y1674190D01*
G01X2667154Y1226700D02*
G01X3055696Y1615243D01*
G01X3055696Y1674190D01*
G01X643903Y1893507D02*
G01X636816Y1900594D01*
G01X577346Y1900594D01*
G01X561003Y1916937D01*
G01X561003Y1970050D01*
G01X577346Y1986394D01*
G01X636790Y1986394D01*
G01X643903Y1993506D01*
G01X643903Y1943494D02*
G01X651015Y1950606D01*
G01X710459Y1950606D01*
G01X726803Y1966950D01*
G01X726803Y2020063D01*
G01X710459Y2036406D01*
G01X650990Y2036406D01*
G01X643903Y2043494D01*
G01X3479800Y1390498D02*
G01X3485413Y1384884D01*
G01X3485413Y1061796D01*
G01X4424604Y2293087D02*
G01X5008575Y2293087D01*
G01X5303596Y2588108D01*
G01X643903Y1648498D02*
G01X643903Y1590993D01*
G01X588912Y1536002D01*
G01X643903Y2288502D02*
G01X643903Y2346008D01*
G01X588912Y2400999D01*
G01X4185387Y1061796D02*
G01X4480408Y766775D01*
G01X4480408Y182804D01*
G01X3993998Y1600200D02*
G01X3993998Y1422400D01*
G01X2744407Y3369297D02*
G01X2744407Y2441160D01*
G01X2790698Y2394868D01*
G01X2790698Y2034210D01*
G01X2843708Y3260539D02*
G01X2843708Y2034210D01*
G01X2744407Y3369297D02*
G01X2751494Y3376384D01*
G01X2751494Y3435854D01*
G01X2767837Y3452197D01*
G01X2820950Y3452197D01*
G01X2837294Y3435854D01*
G01X2837294Y3376410D01*
G01X2844406Y3369297D01*
G01X2794394Y3369297D02*
G01X2801506Y3362185D01*
G01X2801506Y3302741D01*
G01X2817850Y3286397D01*
G01X2870963Y3286397D01*
G01X2817850Y3286397D02*
G01X2843708Y3260539D01*
G01X2870963Y3286397D02*
G01X2895600Y3311035D01*
G01X2895600Y3368091D01*
G01X2894394Y3369297D01*
G01X2499398Y3369297D02*
G01X2444407Y3424288D01*
G01X2386902Y3424288D01*
G01X3327400Y1530502D02*
G01X3479800Y1530502D01*
G01X2231704Y2067102D02*
G01X2231704Y1902002D01*
G01X2231704Y1749602D01*
G01X2231704Y1597202D01*
G01X2231704Y2067102D02*
G01X2324100Y2159498D01*
G01X2324100Y2362351D01*
G01X1924787Y1112596D02*
G01X2219808Y817575D01*
G01X2219808Y233604D01*
G01X3117698Y3269045D02*
G01X3117698Y3150210D01*
G01X2944381Y3369297D02*
G01X2944381Y3161729D01*
G01X2946400Y3159709D01*
G01X2644381Y3369297D02*
G01X2644381Y3164218D01*
G01X2641600Y3161436D01*
G01X3059392Y3369297D02*
G01X3059392Y3327350D01*
G01X3117698Y3269045D01*
G01X2678639Y1447800D02*
G01X2578100Y1447800D01*
G01X1378102Y1473200D02*
G01X1651000Y1473200D01*
G01X1676400Y1498600D01*
G01X2843708Y1674190D02*
G01X2843708Y1612869D01*
G01X2678639Y1447800D01*
G01X2684704Y2034210D02*
G01X2648914Y2070000D01*
G01X2555000Y2070000D01*
G01X2603500Y2698902D02*
G01X2451100Y2698902D01*
G01X2324100Y2571902D01*
G01X2324100Y2362351D01*
G01X3139402Y3369297D02*
G01X3196908Y3369297D01*
G01X3251899Y3424288D01*
G01X2451100Y2558898D02*
G01X2603500Y2558898D01*
G01X2737688Y2034210D02*
G01X2737688Y2397533D01*
G01X2708807Y2426414D01*
G01X2708807Y2453591D01*
G01X2603500Y2558898D01*
G01X3104998Y3010205D02*
G01X3346298Y2768905D01*
G01X3346298Y2768600D01*
G04 Track End*

M02*

