G04 Layer: BottomLayer*
G04 EasyEDA Pro v3.2.148, 2026-08-02 16:06:31*
G04 Gerber Generator version 0.3*
G04 Scale: 100 percent, Rotated: No, Reflected: No*
G04 Dimensions in millimeters*
G04 Leading zeros omitted, absolute positions, 4 integers and 5 decimals*
G04 Generated by one-click*
G04 Object Configs: Pad,Via,Track,Text,Image,Dimension,BoardOutline,BoardCutout,CopperFilled,SolidRegion,FPCStiffener,Line,PlaneZone,ComponentProperty,ComponentSilkscreen,TearDrop*
G04 Layer Configs: 1,2,3,4,5,6,7,8,9,10,11,13,14,56*
G04 Copper Areas: 50*
%FSLAX45Y45*%
%MOMM*%
%ADD10C,0.2032*%
%ADD11C,0.254*%
%ADD12O,2.0X1.1*%
%ADD13O,1.8X1.2*%
%ADD14O,1.2X2.49999*%
%ADD15O,2.5081X1.2*%
%ADD16O,2.49999X1.2*%
%ADD17O,1.1X2.0*%
%ADD18O,1.2X1.8*%
%ADD19C,0.61*%
G75*


G04 Copper Start*
G36*
G01X3157641Y27762D02*
G01X2237944Y23722D01*
G01X2256025Y29099D01*
G01X2272702Y37914D01*
G01X2287329Y49825D01*
G01X2299339Y64371D01*
G01X2308266Y80988D01*
G01X2313765Y99032D01*
G01X2315621Y117804D01*
G01X2315621Y247804D01*
G01X2313780Y266496D01*
G01X2308328Y284470D01*
G01X2299474Y301035D01*
G01X2287558Y315554D01*
G01X2273039Y327470D01*
G01X2256474Y336324D01*
G01X2238500Y341777D01*
G01X2219808Y343618D01*
G01X2201115Y341777D01*
G01X2183141Y336324D01*
G01X2166576Y327470D01*
G01X2152057Y315554D01*
G01X2140141Y301035D01*
G01X2131287Y284470D01*
G01X2125835Y266496D01*
G01X2123994Y247804D01*
G01X2123994Y117804D01*
G01X2125874Y98914D01*
G01X2131442Y80766D01*
G01X2140478Y64072D01*
G01X2152628Y49487D01*
G01X2167415Y37583D01*
G01X2184259Y28829D01*
G01X2202498Y23567D01*
G01X598159Y16520D01*
G01X576604Y17846D01*
G01X555408Y21989D01*
G01X534940Y28879D01*
G01X515553Y38395D01*
G01X497583Y50374D01*
G01X481341Y64608D01*
G01X298145Y247804D01*
G01X833979Y247804D01*
G01X833979Y117804D01*
G01X835820Y99112D01*
G01X841272Y81138D01*
G01X850126Y64573D01*
G01X862042Y50053D01*
G01X876561Y38138D01*
G01X893126Y29283D01*
G01X911100Y23831D01*
G01X929792Y21990D01*
G01X948485Y23831D01*
G01X966459Y29283D01*
G01X983024Y38138D01*
G01X997543Y50053D01*
G01X1009459Y64573D01*
G01X1018313Y81138D01*
G01X1023765Y99112D01*
G01X1025606Y117804D01*
G01X1025606Y247804D01*
G01X1023765Y266496D01*
G01X1018313Y284470D01*
G01X1009459Y301035D01*
G01X997543Y315554D01*
G01X983024Y327470D01*
G01X966459Y336324D01*
G01X948485Y341777D01*
G01X929792Y343618D01*
G01X911100Y341777D01*
G01X893126Y336324D01*
G01X876561Y327470D01*
G01X862042Y315554D01*
G01X850126Y301035D01*
G01X841272Y284470D01*
G01X835820Y266496D01*
G01X833979Y247804D01*
G01X833979Y247804D01*
G01X298145Y247804D01*
G01X85624Y460325D01*
G01X68892Y479916D01*
G01X55430Y501883D01*
G01X45571Y525685D01*
G01X39556Y550737D01*
G01X37535Y576422D01*
G01X37535Y1536002D01*
G01X43083Y1536002D01*
G01X44925Y1517309D01*
G01X50377Y1499335D01*
G01X59231Y1482770D01*
G01X71147Y1468251D01*
G01X85666Y1456335D01*
G01X102231Y1447481D01*
G01X120205Y1442029D01*
G01X138897Y1440188D01*
G01X198897Y1440188D01*
G01X217590Y1442029D01*
G01X235564Y1447481D01*
G01X252129Y1456335D01*
G01X266648Y1468251D01*
G01X278564Y1482770D01*
G01X287418Y1499335D01*
G01X292870Y1517309D01*
G01X294711Y1536002D01*
G01X294027Y1542949D01*
G01X453364Y1542949D01*
G01X453857Y1524288D01*
G01X458154Y1506122D01*
G01X466075Y1489218D01*
G01X477286Y1474292D01*
G01X491311Y1461972D01*
G01X507559Y1452781D01*
G01X525343Y1447106D01*
G01X543912Y1445188D01*
G01X543912Y1445188D01*
G01X633912Y1445188D01*
G01X652793Y1447172D01*
G01X670849Y1453039D01*
G01X687291Y1462532D01*
G01X701399Y1475235D01*
G01X712559Y1490595D01*
G01X720281Y1507938D01*
G01X724228Y1526509D01*
G01X724228Y1545494D01*
G01X720281Y1564065D01*
G01X712559Y1581408D01*
G01X701399Y1596768D01*
G01X687291Y1609471D01*
G01X670849Y1618964D01*
G01X652793Y1624831D01*
G01X633912Y1626815D01*
G01X584227Y1626815D01*
G01X594980Y1638982D01*
G01X602680Y1653278D01*
G01X606920Y1668952D01*
G01X607478Y1685180D01*
G01X604326Y1701108D01*
G01X597628Y1715900D01*
G01X587737Y1728777D01*
G01X575173Y1739063D01*
G01X560596Y1746216D01*
G01X544773Y1749861D01*
G01X528536Y1749806D01*
G01X512738Y1746054D01*
G01X498210Y1738803D01*
G01X485715Y1728432D01*
G01X475912Y1715488D01*
G01X469314Y1700652D01*
G01X466270Y1684702D01*
G01X466938Y1668478D01*
G01X471284Y1652833D01*
G01X479080Y1638590D01*
G01X489915Y1626496D01*
G01X503220Y1617189D01*
G01X487480Y1607153D01*
G01X474124Y1594111D01*
G01X463716Y1578614D01*
G01X456698Y1561316D01*
G01X453364Y1542949D01*
G01X294027Y1542949D01*
G01X292870Y1554694D01*
G01X287418Y1572668D01*
G01X278564Y1589233D01*
G01X266648Y1603752D01*
G01X252129Y1615668D01*
G01X235564Y1624522D01*
G01X217590Y1629974D01*
G01X198897Y1631815D01*
G01X198897Y1631815D01*
G01X138897Y1631815D01*
G01X120205Y1629974D01*
G01X102231Y1624522D01*
G01X85666Y1615668D01*
G01X71147Y1603752D01*
G01X59231Y1589233D01*
G01X50377Y1572668D01*
G01X44925Y1554694D01*
G01X43083Y1536002D01*
G01X37535Y1536002D01*
G01X37535Y2400999D01*
G01X43083Y2400999D01*
G01X44925Y2382306D01*
G01X50377Y2364332D01*
G01X59231Y2347767D01*
G01X71147Y2333248D01*
G01X85666Y2321332D01*
G01X102231Y2312478D01*
G01X120205Y2307026D01*
G01X138897Y2305185D01*
G01X198897Y2305185D01*
G01X217590Y2307026D01*
G01X235564Y2312478D01*
G01X252129Y2321332D01*
G01X266648Y2333248D01*
G01X278564Y2347767D01*
G01X287418Y2364332D01*
G01X292870Y2382306D01*
G01X294025Y2394034D01*
G01X453365Y2394034D01*
G01X456703Y2375666D01*
G01X463726Y2358367D01*
G01X474138Y2342871D01*
G01X487499Y2329831D01*
G01X503245Y2319799D01*
G01X489934Y2310495D01*
G01X479093Y2298403D01*
G01X471291Y2284159D01*
G01X466941Y2268512D01*
G01X466269Y2252285D01*
G01X469311Y2236332D01*
G01X475908Y2221492D01*
G01X485713Y2208545D01*
G01X498209Y2198173D01*
G01X512740Y2190919D01*
G01X528541Y2187167D01*
G01X544781Y2187114D01*
G01X560607Y2190762D01*
G01X575185Y2197919D01*
G01X587749Y2208210D01*
G01X597638Y2221092D01*
G01X604333Y2235888D01*
G01X607481Y2251821D01*
G01X606916Y2268051D01*
G01X602668Y2283726D01*
G01X594960Y2298021D01*
G01X584199Y2310185D01*
G01X633912Y2310185D01*
G01X633912Y2310185D01*
G01X652793Y2312169D01*
G01X670849Y2318036D01*
G01X687291Y2327529D01*
G01X701399Y2340232D01*
G01X712559Y2355592D01*
G01X720281Y2372935D01*
G01X724228Y2391506D01*
G01X724228Y2410491D01*
G01X720281Y2429062D01*
G01X712559Y2446405D01*
G01X701399Y2461765D01*
G01X687291Y2474468D01*
G01X670849Y2483961D01*
G01X652793Y2489828D01*
G01X633912Y2491812D01*
G01X543912Y2491812D01*
G01X525341Y2489893D01*
G01X507555Y2484217D01*
G01X491306Y2475024D01*
G01X477280Y2462702D01*
G01X466070Y2447773D01*
G01X458150Y2430866D01*
G01X453855Y2412698D01*
G01X453365Y2394034D01*
G01X294025Y2394034D01*
G01X294711Y2400999D01*
G01X292870Y2419691D01*
G01X287418Y2437665D01*
G01X278564Y2454230D01*
G01X266648Y2468749D01*
G01X252129Y2480665D01*
G01X235564Y2489519D01*
G01X217590Y2494971D01*
G01X198897Y2496812D01*
G01X198897Y2496812D01*
G01X138897Y2496812D01*
G01X120205Y2494971D01*
G01X102231Y2489519D01*
G01X85666Y2480665D01*
G01X71147Y2468749D01*
G01X59231Y2454230D01*
G01X50377Y2437665D01*
G01X44925Y2419691D01*
G01X43083Y2400999D01*
G01X37535Y2400999D01*
G01X37535Y3079457D01*
G01X39556Y3105142D01*
G01X45571Y3130194D01*
G01X55430Y3153996D01*
G01X68892Y3175963D01*
G01X85624Y3195554D01*
G01X359358Y3469288D01*
G01X2296088Y3469288D01*
G01X2296088Y3379288D01*
G01X2298072Y3360407D01*
G01X2303939Y3342351D01*
G01X2313432Y3325909D01*
G01X2326135Y3311801D01*
G01X2341495Y3300641D01*
G01X2358838Y3292919D01*
G01X2377409Y3288972D01*
G01X2396394Y3288972D01*
G01X2414965Y3292919D01*
G01X2432308Y3300641D01*
G01X2447668Y3311801D01*
G01X2460371Y3325909D01*
G01X2469864Y3342351D01*
G01X2475731Y3360407D01*
G01X2477715Y3379288D01*
G01X2477715Y3428973D01*
G01X2489882Y3418220D01*
G01X2504178Y3410520D01*
G01X2519852Y3406280D01*
G01X2536080Y3405722D01*
G01X2552008Y3408874D01*
G01X2566800Y3415572D01*
G01X2579677Y3425463D01*
G01X2589963Y3438027D01*
G01X2597116Y3452604D01*
G01X2600760Y3468419D01*
G01X3038014Y3468419D01*
G01X3041662Y3452593D01*
G01X3048819Y3438015D01*
G01X3059110Y3425451D01*
G01X3071992Y3415562D01*
G01X3086788Y3408867D01*
G01X3102721Y3405719D01*
G01X3118951Y3406284D01*
G01X3134626Y3410532D01*
G01X3148921Y3418240D01*
G01X3161085Y3429001D01*
G01X3161085Y3379288D01*
G01X3163069Y3360407D01*
G01X3168936Y3342351D01*
G01X3178429Y3325909D01*
G01X3191132Y3311801D01*
G01X3206492Y3300641D01*
G01X3223835Y3292919D01*
G01X3242406Y3288972D01*
G01X3261391Y3288972D01*
G01X3279962Y3292919D01*
G01X3297305Y3300641D01*
G01X3312665Y3311801D01*
G01X3325368Y3325909D01*
G01X3334861Y3342351D01*
G01X3340728Y3360407D01*
G01X3342712Y3379288D01*
G01X3342712Y3469288D01*
G01X3340793Y3487859D01*
G01X3335117Y3505645D01*
G01X3325924Y3521894D01*
G01X3313602Y3535920D01*
G01X3298673Y3547130D01*
G01X3281766Y3555050D01*
G01X3263598Y3559345D01*
G01X3244934Y3559835D01*
G01X3226566Y3556497D01*
G01X3209267Y3549474D01*
G01X3193771Y3539062D01*
G01X3180731Y3525701D01*
G01X3170699Y3509955D01*
G01X3161395Y3523266D01*
G01X3149303Y3534107D01*
G01X3135059Y3541909D01*
G01X3119412Y3546259D01*
G01X3103185Y3546931D01*
G01X3087232Y3543889D01*
G01X3072392Y3537292D01*
G01X3059445Y3527487D01*
G01X3049073Y3514991D01*
G01X3041819Y3500460D01*
G01X3038067Y3484659D01*
G01X3038067Y3484659D01*
G01X3038014Y3468419D01*
G01X2600760Y3468419D01*
G01X2600761Y3468427D01*
G01X2600706Y3484664D01*
G01X2596954Y3500462D01*
G01X2589703Y3514990D01*
G01X2579332Y3527485D01*
G01X2566388Y3537288D01*
G01X2551552Y3543886D01*
G01X2535602Y3546930D01*
G01X2519378Y3546262D01*
G01X2503733Y3541916D01*
G01X2489490Y3534120D01*
G01X2477396Y3523285D01*
G01X2468089Y3509980D01*
G01X2458053Y3525720D01*
G01X2445011Y3539076D01*
G01X2429514Y3549484D01*
G01X2412216Y3556502D01*
G01X2393849Y3559836D01*
G01X2375188Y3559343D01*
G01X2357022Y3555046D01*
G01X2340118Y3547125D01*
G01X2325192Y3535914D01*
G01X2312872Y3521889D01*
G01X2303681Y3505641D01*
G01X2298006Y3487857D01*
G01X2296088Y3469288D01*
G01X2296088Y3469288D01*
G01X359358Y3469288D01*
G01X781600Y3891530D01*
G01X801191Y3908262D01*
G01X823158Y3921724D01*
G01X846961Y3931583D01*
G01X872013Y3937598D01*
G01X897697Y3939619D01*
G01X2316801Y3939619D01*
G01X2305854Y3925406D01*
G01X2297747Y3909401D01*
G01X2292767Y3892165D01*
G01X2291088Y3874303D01*
G01X2291088Y3814303D01*
G01X2292929Y3795610D01*
G01X2298381Y3777636D01*
G01X2307235Y3761071D01*
G01X2319151Y3746552D01*
G01X2333670Y3734636D01*
G01X2350235Y3725782D01*
G01X2368209Y3720330D01*
G01X2386902Y3718489D01*
G01X2405594Y3720330D01*
G01X2423568Y3725782D01*
G01X2440133Y3734636D01*
G01X2454652Y3746552D01*
G01X2466568Y3761071D01*
G01X2475422Y3777636D01*
G01X2480874Y3795610D01*
G01X2482715Y3814303D01*
G01X2482715Y3874303D01*
G01X2481036Y3892165D01*
G01X2476056Y3909401D01*
G01X2467949Y3925406D01*
G01X2457002Y3939619D01*
G01X3181798Y3939619D01*
G01X3170851Y3925406D01*
G01X3162744Y3909401D01*
G01X3157764Y3892165D01*
G01X3156085Y3874303D01*
G01X3156085Y3814303D01*
G01X3157926Y3795610D01*
G01X3163378Y3777636D01*
G01X3172232Y3761071D01*
G01X3184148Y3746552D01*
G01X3198667Y3734636D01*
G01X3215232Y3725782D01*
G01X3233206Y3720330D01*
G01X3251899Y3718489D01*
G01X3270591Y3720330D01*
G01X3288565Y3725782D01*
G01X3305130Y3734636D01*
G01X3319649Y3746552D01*
G01X3331565Y3761071D01*
G01X3340419Y3777636D01*
G01X3345871Y3795610D01*
G01X3347712Y3814303D01*
G01X3347712Y3874303D01*
G01X3346033Y3892165D01*
G01X3341053Y3909401D01*
G01X3332946Y3925406D01*
G01X3321999Y3939619D01*
G01X4589219Y3939619D01*
G01X4614903Y3937598D01*
G01X4639955Y3931583D01*
G01X4663758Y3921724D01*
G01X4685725Y3908262D01*
G01X4705316Y3891530D01*
G01X5463449Y3133397D01*
G01X5463449Y2601642D01*
G01X5458735Y2620591D01*
G01X5450278Y2638191D01*
G01X5438428Y2653711D01*
G01X5423677Y2666506D01*
G01X5406639Y2676045D01*
G01X5388021Y2681932D01*
G01X5368596Y2683921D01*
G01X5238596Y2683921D01*
G01X5219904Y2682080D01*
G01X5201930Y2676628D01*
G01X5185365Y2667774D01*
G01X5170846Y2655858D01*
G01X5158930Y2641339D01*
G01X5150076Y2624774D01*
G01X5144623Y2606800D01*
G01X5142782Y2588108D01*
G01X5144623Y2569415D01*
G01X5150076Y2551441D01*
G01X5158930Y2534876D01*
G01X5170846Y2520357D01*
G01X5185365Y2508441D01*
G01X5201930Y2499587D01*
G01X5219904Y2494135D01*
G01X5238596Y2492294D01*
G01X5368596Y2492294D01*
G01X5388021Y2494283D01*
G01X5406639Y2500170D01*
G01X5423677Y2509709D01*
G01X5438428Y2522504D01*
G01X5450278Y2538024D01*
G01X5458735Y2555624D01*
G01X5463449Y2574573D01*
G01X5463449Y1311627D01*
G01X5458735Y1330576D01*
G01X5450278Y1348176D01*
G01X5438428Y1363696D01*
G01X5423677Y1376491D01*
G01X5406639Y1386030D01*
G01X5388021Y1391917D01*
G01X5368596Y1393906D01*
G01X5238596Y1393906D01*
G01X5219904Y1392065D01*
G01X5201930Y1386613D01*
G01X5185365Y1377759D01*
G01X5170846Y1365843D01*
G01X5158930Y1351324D01*
G01X5150076Y1334759D01*
G01X5144623Y1316785D01*
G01X5142782Y1298092D01*
G01X5144623Y1279400D01*
G01X5150076Y1261426D01*
G01X5158930Y1244861D01*
G01X5170846Y1230342D01*
G01X5185365Y1218426D01*
G01X5201930Y1209572D01*
G01X5219904Y1204120D01*
G01X5238596Y1202279D01*
G01X5368596Y1202279D01*
G01X5388021Y1204268D01*
G01X5406639Y1210155D01*
G01X5423677Y1219694D01*
G01X5438428Y1232489D01*
G01X5450278Y1248009D01*
G01X5458735Y1265609D01*
G01X5463449Y1284558D01*
G01X5463449Y591006D01*
G01X5461428Y565322D01*
G01X5455413Y540270D01*
G01X5445554Y516467D01*
G01X5432092Y494500D01*
G01X5415360Y474909D01*
G01X5023991Y83539D01*
G01X5004517Y66892D01*
G01X4982690Y53477D01*
G01X4959041Y43621D01*
G01X4934148Y37563D01*
G01X4908615Y35452D01*
G01X4526442Y33774D01*
G01X4540614Y43268D01*
G01X4552877Y55126D01*
G01X4562843Y68970D01*
G01X4570196Y84362D01*
G01X4574703Y100814D01*
G01X4576221Y117804D01*
G01X4576221Y247804D01*
G01X4574380Y266496D01*
G01X4568928Y284470D01*
G01X4560074Y301035D01*
G01X4548158Y315554D01*
G01X4533639Y327470D01*
G01X4517074Y336324D01*
G01X4499100Y341777D01*
G01X4480408Y343618D01*
G01X4461715Y341777D01*
G01X4443741Y336324D01*
G01X4427176Y327470D01*
G01X4412657Y315554D01*
G01X4400741Y301035D01*
G01X4391887Y284470D01*
G01X4386435Y266496D01*
G01X4384594Y247804D01*
G01X4384594Y117804D01*
G01X4386137Y100676D01*
G01X4390718Y84099D01*
G01X4398188Y68608D01*
G01X4408307Y54703D01*
G01X4420749Y42830D01*
G01X4435113Y33372D01*
G01X3223934Y28053D01*
G01X3241274Y36617D01*
G01X3256541Y48489D01*
G01X3269114Y63185D01*
G01X3278478Y80106D01*
G01X3284254Y98563D01*
G01X3286206Y117804D01*
G01X3286206Y247804D01*
G01X3284365Y266496D01*
G01X3278913Y284470D01*
G01X3270059Y301035D01*
G01X3258143Y315554D01*
G01X3243624Y327470D01*
G01X3227059Y336324D01*
G01X3209085Y341777D01*
G01X3190392Y343618D01*
G01X3171700Y341777D01*
G01X3153726Y336324D01*
G01X3137161Y327470D01*
G01X3122642Y315554D01*
G01X3110726Y301035D01*
G01X3101872Y284470D01*
G01X3096420Y266496D01*
G01X3094579Y247804D01*
G01X3094579Y117804D01*
G01X3096559Y98425D01*
G01X3102417Y79848D01*
G01X3111912Y62839D01*
G01X3124650Y48102D01*
G01X3140106Y36247D01*
G01X3157641Y27762D01*
G37*
G54D10*
G01X3157641Y27762D02*
G01X2237944Y23722D01*
G03X2315621Y117804I-18137J94082D01*
G01X2315621Y247804D01*
G03X2123994Y247804I-95814J0D01*
G01X2123994Y117804D01*
G03X2202498Y23567I95814J0D01*
G01X598159Y16520D01*
G02X481341Y64608I-721J164185D01*
G01X85624Y460325D01*
G02X37535Y576422I116097J116097D01*
G01X37535Y3079457D01*
G02X85624Y3195554I164186J0D01*
G01X781600Y3891530D01*
G02X897697Y3939619I116097J-116097D01*
G01X2316801Y3939619D01*
G03X2291088Y3874303I70100J-65317D01*
G01X2291088Y3814303D01*
G03X2482715Y3814303I95814J0D01*
G01X2482715Y3874303D01*
G03X2457002Y3939619I-95814J0D01*
G01X3181798Y3939619D01*
G03X3156085Y3874303I70100J-65317D01*
G01X3156085Y3814303D01*
G03X3347712Y3814303I95814J0D01*
G01X3347712Y3874303D01*
G03X3321999Y3939619I-95814J0D01*
G01X4589219Y3939619D01*
G02X4705316Y3891530I0J-164186D01*
G01X5463449Y3133397D01*
G01X5463449Y2601642D01*
G03X5368596Y2683921I-94853J-13535D01*
G01X5238596Y2683921D01*
G03X5238596Y2492294I0J-95814D01*
G01X5368596Y2492294D01*
G03X5463449Y2574573I0J95814D01*
G01X5463449Y1311627D01*
G03X5368596Y1393906I-94853J-13535D01*
G01X5238596Y1393906D01*
G03X5238596Y1202279I0J-95814D01*
G01X5368596Y1202279D01*
G03X5463449Y1284558I0J95814D01*
G01X5463449Y591006D01*
G02X5415360Y474909I-164186J0D01*
G01X5023991Y83539D01*
G02X4908615Y35452I-116097J116097D01*
G01X4526442Y33774D01*
G03X4576221Y117804I-46035J84030D01*
G01X4576221Y247804D01*
G03X4384594Y247804I-95814J0D01*
G01X4384594Y117804D01*
G03X4435113Y33372I95814J0D01*
G01X3223934Y28053D01*
G03X3286206Y117804I-33542J89751D01*
G01X3286206Y247804D01*
G03X3094579Y247804I-95814J0D01*
G01X3094579Y117804D01*
G03X3157641Y27762I95814J0D01*
G01X198897Y2496812D02*
G01X138897Y2496812D01*
G03X138897Y2305185I0J-95814D01*
G01X198897Y2305185D01*
G03X198897Y2496812I0J95814D01*
G01X198897Y1631815D02*
G01X138897Y1631815D01*
G03X138897Y1440188I0J-95814D01*
G01X198897Y1440188D01*
G03X198897Y1631815I0J95814D01*
G01X633912Y2310185D02*
G03X633912Y2491812I0J90814D01*
G01X543912Y2491812D01*
G03X503245Y2319799I0J-90814D01*
G03X528541Y2187167I33648J-62311D01*
G03X584199Y2310185I8352J70321D01*
G01X633912Y2310185D01*
G01X543912Y1445188D02*
G01X633912Y1445188D01*
G03X633912Y1626815I0J90814D01*
G01X584227Y1626815D01*
G03X528536Y1749806I-47335J52671D01*
G03X503220Y1617189I8357J-70320D01*
G03X543912Y1445188I40692J-81187D01*
G01X833979Y247804D02*
G01X833979Y117804D01*
G03X1025606Y117804I95814J0D01*
G01X1025606Y247804D01*
G03X833979Y247804I-95814J0D01*
G01X2296088Y3469288D02*
G01X2296088Y3379288D01*
G03X2477715Y3379288I90814J0D01*
G01X2477715Y3428973D01*
G03X2600706Y3484664I52671J47335D01*
G03X2468089Y3509980I-70320J-8357D01*
G03X2296088Y3469288I-81187J-40692D01*
G01X3038067Y3484659D02*
G03X3161085Y3429001I70321J-8352D01*
G01X3161085Y3379288D01*
G03X3342712Y3379288I90814J0D01*
G01X3342712Y3469288D01*
G03X3170699Y3509955I-90814J0D01*
G03X3038067Y3484659I-62311J-33648D01*
G54D11*
G01X168897Y1536002D02*
G01X168897Y1621655D01*
G01X168897Y1536002D02*
G01X168897Y1450348D01*
G01X168897Y1536002D02*
G01X284551Y1536002D01*
G01X168897Y1536002D02*
G01X53243Y1536002D01*
G01X168897Y2400999D02*
G01X168897Y2486652D01*
G01X168897Y2400999D02*
G01X168897Y2315345D01*
G01X168897Y2400999D02*
G01X284551Y2400999D01*
G01X168897Y2400999D02*
G01X53243Y2400999D01*
G01X588912Y2400999D02*
G01X588912Y2481652D01*
G01X588912Y2400999D02*
G01X588912Y2320345D01*
G01X588912Y2400999D02*
G01X714566Y2400999D01*
G01X588912Y2400999D02*
G01X463258Y2400999D01*
G01X588912Y1536002D02*
G01X588912Y1616655D01*
G01X588912Y1536002D02*
G01X588912Y1455348D01*
G01X588912Y1536002D02*
G01X714566Y1536002D01*
G01X588912Y1536002D02*
G01X463258Y1536002D01*
G01X2386902Y3844303D02*
G01X2472555Y3844303D01*
G01X2386902Y3844303D02*
G01X2301248Y3844303D01*
G01X2386902Y3844303D02*
G01X2386902Y3728649D01*
G01X2386902Y3424288D02*
G01X2467555Y3424288D01*
G01X2386902Y3424288D02*
G01X2306248Y3424288D01*
G01X2386902Y3424288D02*
G01X2386902Y3298635D01*
G01X2386902Y3424288D02*
G01X2386902Y3549942D01*
G01X3190392Y182804D02*
G01X3104739Y182804D01*
G01X3190392Y182804D02*
G01X3276046Y182804D01*
G01X3190392Y182804D02*
G01X3190392Y333458D01*
G01X3251899Y3844303D02*
G01X3337552Y3844303D01*
G01X3251899Y3844303D02*
G01X3166245Y3844303D01*
G01X3251899Y3844303D02*
G01X3251899Y3728649D01*
G01X3251899Y3424288D02*
G01X3332552Y3424288D01*
G01X3251899Y3424288D02*
G01X3171245Y3424288D01*
G01X3251899Y3424288D02*
G01X3251899Y3298635D01*
G01X3251899Y3424288D02*
G01X3251899Y3549942D01*
G01X4480408Y182804D02*
G01X4394754Y182804D01*
G01X4480408Y182804D02*
G01X4566061Y182804D01*
G01X4480408Y182804D02*
G01X4480408Y333458D01*
G01X5303596Y1298092D02*
G01X5303596Y1212439D01*
G01X5303596Y1298092D02*
G01X5303596Y1383746D01*
G01X5303596Y1298092D02*
G01X5152942Y1298092D01*
G01X5303596Y2588108D02*
G01X5303596Y2502454D01*
G01X5303596Y2588108D02*
G01X5303596Y2673761D01*
G01X5303596Y2588108D02*
G01X5152942Y2588108D01*
G01X2219808Y182804D02*
G01X2134154Y182804D01*
G01X2219808Y182804D02*
G01X2305461Y182804D01*
G01X2219808Y182804D02*
G01X2219808Y333458D01*
G01X929792Y182804D02*
G01X844139Y182804D01*
G01X929792Y182804D02*
G01X1015446Y182804D01*
G01X929792Y182804D02*
G01X929792Y333458D01*
G01X929792Y182804D02*
G01X929792Y32150D01*
G04 Copper End*

G04 Pad Start*
G54D12*
G01X588912Y2400999D03*
G01X588912Y1536002D03*
G54D13*
G01X168897Y2400999D03*
G01X168897Y1536002D03*
G54D14*
G01X4480408Y182804D03*
G01X3190392Y182804D03*
G54D16*
G01X5303596Y2588108D03*
G01X5303596Y1298092D03*
G54D14*
G01X2219808Y182804D03*
G01X929792Y182804D03*
G54D17*
G01X3251899Y3424288D03*
G01X2386902Y3424288D03*
G54D18*
G01X3251899Y3844303D03*
G01X2386902Y3844303D03*
G04 Pad End*

G04 Via Start*
G54D19*
G01X3993998Y1422400D03*
G01X3327400Y1530502D03*
G01X2324100Y2362351D03*
G01X2578100Y1447800D03*
G01X1676400Y1498600D03*
G01X2555000Y2070000D03*
G01X3346298Y2768600D03*
G04 Via End*

M02*

