G04 Layer: TopPasteMaskLayer*
G04 EasyEDA Pro v3.2.148, 2026-08-02 16:06:31*
G04 Gerber Generator version 0.3*
G04 Scale: 100 percent, Rotated: No, Reflected: No*
G04 Dimensions in millimeters*
G04 Leading zeros omitted, absolute positions, 4 integers and 5 decimals*
G04 Generated by one-click*
G04 Object Configs: Pad,Via,Track,Text,Image,Dimension,BoardOutline,BoardCutout,CopperFilled,SolidRegion,FPCStiffener,Line,PlaneZone,ComponentProperty,ComponentSilkscreen,TearDrop*
G04 Layer Configs: 1,2,3,4,5,6,7,8,9,10,11,13,14,56*
G04 Copper Areas: 0*
%FSLAX45Y45*%
%MOMM*%
%ADD10R,0.8X0.9*%
%ADD11R,0.9X0.8*%
%ADD12R,0.25001X1.2*%
%ADD13R,1.1X0.55001*%
%ADD14R,1.1X0.3*%
%ADD15R,0.55001X1.1*%
%ADD16R,0.3040X1.1*%
%ADD17R,0.3X1.1*%
G75*


G04 PolygonModel Start*
G36*
G01X856701Y2278502D02*
G01X861703Y2283501D01*
G01X941702Y2283501D01*
G01X946701Y2278502D01*
G01X946701Y2198502D01*
G01X941702Y2193501D01*
G01X917499Y2193501D01*
G01X917499Y2230501D01*
G01X884499Y2230501D01*
G01X884499Y2193501D01*
G01X861703Y2193501D01*
G01X856701Y2198502D01*
G01X856701Y2278502D01*
G37*
G36*
G01X946699Y2039498D02*
G01X941697Y2034499D01*
G01X861698Y2034499D01*
G01X856699Y2039498D01*
G01X856699Y2119498D01*
G01X861698Y2124499D01*
G01X885901Y2124499D01*
G01X885901Y2087499D01*
G01X918901Y2087499D01*
G01X918901Y2124499D01*
G01X941697Y2124499D01*
G01X946699Y2119498D01*
G01X946699Y2039498D01*
G37*
G36*
G01X946699Y1633098D02*
G01X941697Y1628099D01*
G01X861698Y1628099D01*
G01X856699Y1633098D01*
G01X856699Y1713098D01*
G01X861698Y1718099D01*
G01X885901Y1718099D01*
G01X885901Y1681099D01*
G01X918901Y1681099D01*
G01X918901Y1718099D01*
G01X941697Y1718099D01*
G01X946699Y1713098D01*
G01X946699Y1633098D01*
G37*
G36*
G01X856701Y1872102D02*
G01X861703Y1877101D01*
G01X941702Y1877101D01*
G01X946701Y1872102D01*
G01X946701Y1792102D01*
G01X941702Y1787101D01*
G01X917499Y1787101D01*
G01X917499Y1824101D01*
G01X884499Y1824101D01*
G01X884499Y1787101D01*
G01X861703Y1787101D01*
G01X856701Y1792102D01*
G01X856701Y1872102D01*
G37*
G36*
G01X4129400Y1205796D02*
G01X4241399Y1205796D01*
G01X4241399Y917796D01*
G01X4129400Y917796D01*
G01X4129400Y1205796D01*
G37*
G36*
G01X3879400Y1205796D02*
G01X3991399Y1205796D01*
G01X3991399Y917796D01*
G01X3879400Y917796D01*
G01X3879400Y1205796D01*
G37*
G36*
G01X3679401Y1205796D02*
G01X3791400Y1205796D01*
G01X3791400Y917796D01*
G01X3679401Y917796D01*
G01X3679401Y1205796D01*
G37*
G36*
G01X3429401Y1205796D02*
G01X3541400Y1205796D01*
G01X3541400Y917796D01*
G01X3429401Y917796D01*
G01X3429401Y1205796D01*
G37*
G36*
G01X4280604Y2237100D02*
G01X4280604Y2349099D01*
G01X4568604Y2349099D01*
G01X4568604Y2237100D01*
G01X4280604Y2237100D01*
G37*
G36*
G01X4280604Y1987100D02*
G01X4280604Y2099099D01*
G01X4568604Y2099099D01*
G01X4568604Y1987100D01*
G01X4280604Y1987100D01*
G37*
G36*
G01X4280604Y1787101D02*
G01X4280604Y1899100D01*
G01X4568604Y1899100D01*
G01X4568604Y1787101D01*
G01X4280604Y1787101D01*
G37*
G36*
G01X4280604Y1537101D02*
G01X4280604Y1649100D01*
G01X4568604Y1649100D01*
G01X4568604Y1537101D01*
G01X4280604Y1537101D01*
G37*
G36*
G01X1868800Y1205796D02*
G01X1980799Y1205796D01*
G01X1980799Y917796D01*
G01X1868800Y917796D01*
G01X1868800Y1205796D01*
G37*
G36*
G01X1618800Y1205796D02*
G01X1730799Y1205796D01*
G01X1730799Y917796D01*
G01X1618800Y917796D01*
G01X1618800Y1205796D01*
G37*
G36*
G01X1418801Y1205796D02*
G01X1530800Y1205796D01*
G01X1530800Y917796D01*
G01X1418801Y917796D01*
G01X1418801Y1205796D01*
G37*
G36*
G01X1168801Y1205796D02*
G01X1280800Y1205796D01*
G01X1280800Y917796D01*
G01X1168801Y917796D01*
G01X1168801Y1205796D01*
G37*
G36*
G01X2596601Y3205602D02*
G01X2601603Y3210601D01*
G01X2681602Y3210601D01*
G01X2686601Y3205602D01*
G01X2686601Y3125602D01*
G01X2681602Y3120601D01*
G01X2657399Y3120601D01*
G01X2657399Y3157601D01*
G01X2624399Y3157601D01*
G01X2624399Y3120601D01*
G01X2601603Y3120601D01*
G01X2596601Y3125602D01*
G01X2596601Y3205602D01*
G37*
G36*
G01X2686599Y2966598D02*
G01X2681597Y2961599D01*
G01X2601598Y2961599D01*
G01X2596599Y2966598D01*
G01X2596599Y3046598D01*
G01X2601598Y3051599D01*
G01X2625801Y3051599D01*
G01X2625801Y3014599D01*
G01X2658801Y3014599D01*
G01X2658801Y3051599D01*
G01X2681597Y3051599D01*
G01X2686599Y3046598D01*
G01X2686599Y2966598D01*
G37*
G36*
G01X2901401Y3203875D02*
G01X2906403Y3208873D01*
G01X2986402Y3208873D01*
G01X2991401Y3203875D01*
G01X2991401Y3123875D01*
G01X2986402Y3118874D01*
G01X2962199Y3118874D01*
G01X2962199Y3155874D01*
G01X2929199Y3155874D01*
G01X2929199Y3118874D01*
G01X2906403Y3118874D01*
G01X2901401Y3123875D01*
G01X2901401Y3203875D01*
G37*
G36*
G01X2991399Y2964871D02*
G01X2986397Y2959872D01*
G01X2906398Y2959872D01*
G01X2901399Y2964871D01*
G01X2901399Y3044871D01*
G01X2906398Y3049872D01*
G01X2930601Y3049872D01*
G01X2930601Y3012872D01*
G01X2963601Y3012872D01*
G01X2963601Y3049872D01*
G01X2986397Y3049872D01*
G01X2991399Y3044871D01*
G01X2991399Y2964871D01*
G37*

G04 Pad Start*
G54D10*
G01X1378102Y1473200D03*
G01X1238098Y1473200D03*
G54D11*
G01X3479800Y1530502D03*
G01X3479800Y1390498D03*
G54D10*
G01X3993998Y1600200D03*
G01X4134002Y1600200D03*
G01X2231704Y2067102D03*
G01X2371708Y2067102D03*
G01X2231704Y1902002D03*
G01X2371708Y1902002D03*
G01X2231704Y1597202D03*
G01X2371708Y1597202D03*
G01X2231704Y1749602D03*
G01X2371708Y1749602D03*
G54D11*
G01X2603500Y2698902D03*
G01X2603500Y2558898D03*
G01X2451100Y2698902D03*
G01X2451100Y2558898D03*
G54D12*
G01X3055696Y2034210D03*
G01X3002686Y2034210D03*
G01X2949702Y2034210D03*
G01X2896692Y2034210D03*
G01X2843708Y2034210D03*
G01X2790698Y2034210D03*
G01X2737688Y2034210D03*
G01X2684704Y2034210D03*
G01X2684704Y1674190D03*
G01X2737688Y1674190D03*
G01X2790698Y1674190D03*
G01X2843708Y1674190D03*
G01X2896692Y1674190D03*
G01X2949702Y1674190D03*
G01X3002686Y1674190D03*
G01X3055696Y1674190D03*
G54D13*
G01X643903Y2288502D03*
G01X643903Y2208492D03*
G54D14*
G01X643903Y2143493D03*
G01X643903Y2093481D03*
G01X643903Y2043494D03*
G01X643903Y1993506D03*
G01X643903Y1943494D03*
G01X643903Y1893507D03*
G01X643903Y1843494D03*
G01X643903Y1793481D03*
G54D13*
G01X643903Y1728483D03*
G01X643903Y1648498D03*
G54D15*
G01X3139402Y3369297D03*
G01X3059392Y3369297D03*
G54D17*
G01X2994393Y3369297D03*
G01X2944381Y3369297D03*
G01X2894394Y3369297D03*
G01X2844406Y3369297D03*
G01X2794394Y3369297D03*
G01X2744407Y3369297D03*
G01X2694394Y3369297D03*
G01X2644381Y3369297D03*
G54D15*
G01X2579383Y3369297D03*
G01X2499398Y3369297D03*
G54D11*
G01X3104998Y3010205D03*
G01X3104998Y3150210D03*
G04 Pad End*

M02*

