G04 Layer: DrillDrawingLayer*
G04 EasyEDA Pro v3.2.148, 2026-08-02 16:06:31*
G04 Gerber Generator version 0.3*
G04 Scale: 100 percent, Rotated: No, Reflected: No*
G04 Dimensions in millimeters*
G04 Leading zeros omitted, absolute positions, 4 integers and 5 decimals*
G04 Generated by one-click*
G04 Object Configs: Pad,Via,Track,Text,Image,Dimension,BoardOutline,BoardCutout,CopperFilled,SolidRegion,FPCStiffener,Line,PlaneZone,ComponentProperty,ComponentSilkscreen,TearDrop*
G04 Layer Configs: 1,2,3,4,5,6,7,8,9,10,11,13,14,56*
G04 Copper Areas: 0*
%FSLAX45Y45*%
%MOMM*%
%AMIconRect*4,1,4,0.28,-0.28,-0.28,-0.28,-0.28,0.28,0.28,0.28,0.28,-0.28,0*4,0,4,0.233333,-0.233333,0.233333,0.233333,-0.233333,0.233333,-0.233333,-0.233333,0.233333,-0.233333,0*%
%AMIconTriangle*4,1,3,-0.339593,0.240473,0.339593,0.240473,0,-0.37884,-0.339593,0.240473,0*4,0,3,-0.265673,0.19404,0,-0.27342,0.266233,0.19404,-0.265673,0.19404,0*%
%AMIconStar6*4,1,12,0.12068,0.20888,0.298527,0.172713,0.241313,0,0.298527,-0.17206,0.12068,-0.208227,0,-0.344073,-0.120073,-0.208227,-0.298573,-0.17206,-0.240707,0,-0.298573,0.17206,-0.120073,0.20888,0,0.344073,0.12068,0.20888,0*4,0,12,-0.000467,0.273467,-0.090067,0.171733,-0.237533,0.136733,-0.193667,-0.007467,-0.237533,-0.1372,-0.090067,-0.171733,-0.000467,-0.273933,0.090067,-0.171733,0.237533,-0.1372,0.194133,0.007,0.237533,0.1372,0.090067,0.171267,-0.000467,0.273467,0*%
%AMIconStar4*4,1,8,-0.311733,0.311733,0,0.202533,0.311733,0.311733,0.202533,0,0.311733,-0.311733,0,-0.202533,-0.304407,-0.311733,-0.202533,0,-0.311733,0.311733,0*4,0,8,0.233333,-0.233333,0.1512,0,0.233333,0.233333,0,0.1512,-0.233333,0.233333,-0.1512,0,-0.233333,-0.233333,0,-0.1512,0.233333,-0.233333,0*%
%ADD10IconRect*%
%ADD11C,0.616X0.522667*%
%ADD12IconTriangle*%
%ADD13IconStar6*%
%ADD14IconStar4*%
%ADD15C,0.2032*%
%ADD16C,0.254*%
G75*


G04 Drill Drawing Start*
G54D10*
G01X588902Y1535991D03*
G01X588904Y2400993D03*
G01X2386891Y3424298D03*
G01X3251893Y3424296D03*
G54D11*
G01X168902Y2400993D03*
G01X168902Y1535991D03*
G01X2386891Y3844298D03*
G01X3251893Y3844298D03*
G54D12*
G01X536893Y2257489D03*
G01X536893Y1679486D03*
G01X2530386Y3476308D03*
G01X3108389Y3476308D03*
G54D13*
G01X929800Y182796D03*
G01X2219800Y182796D03*
G01X3190400Y182796D03*
G01X4480400Y182796D03*
G01X5303604Y1298100D03*
G01X5303604Y2588100D03*
G54D14*
G01X1676400Y1498600D03*
G01X2324100Y2362351D03*
G01X2555000Y2070000D03*
G01X2578100Y1447800D03*
G01X3327400Y1530502D03*
G01X3346298Y2768600D03*
G01X3993998Y1422400D03*
G04 Drill Drawing End*

G04 Text Start*
G54D15*
G01X7799709Y3753728D02*
G01X7799709Y3633586D01*
G01X7799709Y3753728D02*
G01X7845429Y3633586D01*
G01X7891149Y3753728D02*
G01X7845429Y3633586D01*
G01X7891149Y3753728D02*
G01X7891149Y3633586D01*
G01X8007481Y3713596D02*
G01X8007481Y3633586D01*
G01X8007481Y3696578D02*
G01X7996051Y3708008D01*
G01X7984621Y3713596D01*
G01X7967603Y3713596D01*
G01X7956173Y3708008D01*
G01X7944743Y3696578D01*
G01X7938901Y3679306D01*
G01X7938901Y3667876D01*
G01X7944743Y3650858D01*
G01X7956173Y3639428D01*
G01X7967603Y3633586D01*
G01X7984621Y3633586D01*
G01X7996051Y3639428D01*
G01X8007481Y3650858D01*
G01X8055233Y3713596D02*
G01X8055233Y3633586D01*
G01X8055233Y3679306D02*
G01X8061075Y3696578D01*
G01X8072505Y3708008D01*
G01X8083935Y3713596D01*
G01X8100953Y3713596D01*
G01X8148705Y3753728D02*
G01X8148705Y3633586D01*
G01X8205855Y3713596D02*
G01X8148705Y3656446D01*
G01X8171565Y3679306D02*
G01X8211697Y3633586D01*
G01X9336989Y3725026D02*
G01X9331147Y3736456D01*
G01X9319717Y3747886D01*
G01X9308287Y3753728D01*
G01X9285427Y3753728D01*
G01X9273997Y3747886D01*
G01X9262567Y3736456D01*
G01X9256979Y3725026D01*
G01X9251137Y3708008D01*
G01X9251137Y3679306D01*
G01X9256979Y3662288D01*
G01X9262567Y3650858D01*
G01X9273997Y3639428D01*
G01X9285427Y3633586D01*
G01X9308287Y3633586D01*
G01X9319717Y3639428D01*
G01X9331147Y3650858D01*
G01X9336989Y3662288D01*
G01X9413443Y3713596D02*
G01X9402013Y3708008D01*
G01X9390583Y3696578D01*
G01X9384741Y3679306D01*
G01X9384741Y3667876D01*
G01X9390583Y3650858D01*
G01X9402013Y3639428D01*
G01X9413443Y3633586D01*
G01X9430461Y3633586D01*
G01X9441891Y3639428D01*
G01X9453321Y3650858D01*
G01X9459163Y3667876D01*
G01X9459163Y3679306D01*
G01X9453321Y3696578D01*
G01X9441891Y3708008D01*
G01X9430461Y3713596D01*
G01X9413443Y3713596D01*
G01X9506915Y3713596D02*
G01X9506915Y3656446D01*
G01X9512757Y3639428D01*
G01X9524187Y3633586D01*
G01X9541205Y3633586D01*
G01X9552635Y3639428D01*
G01X9569907Y3656446D01*
G01X9569907Y3713596D02*
G01X9569907Y3633586D01*
G01X9617659Y3713596D02*
G01X9617659Y3633586D01*
G01X9617659Y3690736D02*
G01X9634931Y3708008D01*
G01X9646361Y3713596D01*
G01X9663379Y3713596D01*
G01X9674809Y3708008D01*
G01X9680651Y3690736D01*
G01X9680651Y3633586D01*
G01X9745675Y3753728D02*
G01X9745675Y3656446D01*
G01X9751263Y3639428D01*
G01X9762693Y3633586D01*
G01X9774123Y3633586D01*
G01X9728403Y3713596D02*
G01X9768535Y3713596D01*
G01X10745310Y3736456D02*
G01X10733880Y3747886D01*
G01X10716862Y3753728D01*
G01X10694002Y3753728D01*
G01X10676730Y3747886D01*
G01X10665300Y3736456D01*
G01X10665300Y3725026D01*
G01X10671142Y3713596D01*
G01X10676730Y3708008D01*
G01X10688160Y3702166D01*
G01X10722450Y3690736D01*
G01X10733880Y3685148D01*
G01X10739722Y3679306D01*
G01X10745310Y3667876D01*
G01X10745310Y3650858D01*
G01X10733880Y3639428D01*
G01X10716862Y3633586D01*
G01X10694002Y3633586D01*
G01X10676730Y3639428D01*
G01X10665300Y3650858D01*
G01X10793062Y3753728D02*
G01X10798904Y3747886D01*
G01X10804492Y3753728D01*
G01X10798904Y3759316D01*
G01X10793062Y3753728D01*
G01X10798904Y3713596D02*
G01X10798904Y3633586D01*
G01X10915236Y3713596D02*
G01X10852244Y3633586D01*
G01X10852244Y3713596D02*
G01X10915236Y3713596D01*
G01X10852244Y3633586D02*
G01X10915236Y3633586D01*
G01X10962988Y3679306D02*
G01X11031568Y3679306D01*
G01X11031568Y3690736D01*
G01X11025980Y3702166D01*
G01X11020138Y3708008D01*
G01X11008708Y3713596D01*
G01X10991690Y3713596D01*
G01X10980260Y3708008D01*
G01X10968830Y3696578D01*
G01X10962988Y3679306D01*
G01X10962988Y3667876D01*
G01X10968830Y3650858D01*
G01X10980260Y3639428D01*
G01X10991690Y3633586D01*
G01X11008708Y3633586D01*
G01X11020138Y3639428D01*
G01X11031568Y3650858D01*
G01X14553170Y3753728D02*
G01X14553170Y3633586D01*
G01X14553170Y3753728D02*
G01X14604732Y3753728D01*
G01X14621750Y3747886D01*
G01X14627592Y3742298D01*
G01X14633180Y3730868D01*
G01X14633180Y3713596D01*
G01X14627592Y3702166D01*
G01X14621750Y3696578D01*
G01X14604732Y3690736D01*
G01X14553170Y3690736D01*
G01X14680932Y3753728D02*
G01X14680932Y3633586D01*
G01X14797264Y3713596D02*
G01X14797264Y3633586D01*
G01X14797264Y3696578D02*
G01X14785834Y3708008D01*
G01X14774404Y3713596D01*
G01X14757386Y3713596D01*
G01X14745956Y3708008D01*
G01X14734526Y3696578D01*
G01X14728684Y3679306D01*
G01X14728684Y3667876D01*
G01X14734526Y3650858D01*
G01X14745956Y3639428D01*
G01X14757386Y3633586D01*
G01X14774404Y3633586D01*
G01X14785834Y3639428D01*
G01X14797264Y3650858D01*
G01X14862288Y3753728D02*
G01X14862288Y3656446D01*
G01X14867876Y3639428D01*
G01X14879306Y3633586D01*
G01X14890736Y3633586D01*
G01X14845016Y3713596D02*
G01X14885148Y3713596D01*
G01X14938488Y3679306D02*
G01X15007068Y3679306D01*
G01X15007068Y3690736D01*
G01X15001480Y3702166D01*
G01X14995638Y3708008D01*
G01X14984208Y3713596D01*
G01X14967190Y3713596D01*
G01X14955760Y3708008D01*
G01X14944330Y3696578D01*
G01X14938488Y3679306D01*
G01X14938488Y3667876D01*
G01X14944330Y3650858D01*
G01X14955760Y3639428D01*
G01X14967190Y3633586D01*
G01X14984208Y3633586D01*
G01X14995638Y3639428D01*
G01X15007068Y3650858D01*
G01X15123400Y3753728D02*
G01X15123400Y3633586D01*
G01X15123400Y3696578D02*
G01X15111970Y3708008D01*
G01X15100540Y3713596D01*
G01X15083522Y3713596D01*
G01X15072092Y3708008D01*
G01X15060662Y3696578D01*
G01X15054820Y3679306D01*
G01X15054820Y3667876D01*
G01X15060662Y3650858D01*
G01X15072092Y3639428D01*
G01X15083522Y3633586D01*
G01X15100540Y3633586D01*
G01X15111970Y3639428D01*
G01X15123400Y3650858D01*
G01X16094587Y3736456D02*
G01X16083157Y3747886D01*
G01X16066139Y3753728D01*
G01X16043279Y3753728D01*
G01X16026007Y3747886D01*
G01X16014577Y3736456D01*
G01X16014577Y3725026D01*
G01X16020419Y3713596D01*
G01X16026007Y3708008D01*
G01X16037437Y3702166D01*
G01X16071727Y3690736D01*
G01X16083157Y3685148D01*
G01X16088999Y3679306D01*
G01X16094587Y3667876D01*
G01X16094587Y3650858D01*
G01X16083157Y3639428D01*
G01X16066139Y3633586D01*
G01X16043279Y3633586D01*
G01X16026007Y3639428D01*
G01X16014577Y3650858D01*
G01X16142339Y3753728D02*
G01X16142339Y3633586D01*
G01X16142339Y3690736D02*
G01X16159611Y3708008D01*
G01X16171041Y3713596D01*
G01X16188059Y3713596D01*
G01X16199489Y3708008D01*
G01X16205331Y3690736D01*
G01X16205331Y3633586D01*
G01X16321663Y3713596D02*
G01X16321663Y3633586D01*
G01X16321663Y3696578D02*
G01X16310233Y3708008D01*
G01X16298803Y3713596D01*
G01X16281785Y3713596D01*
G01X16270355Y3708008D01*
G01X16258925Y3696578D01*
G01X16253083Y3679306D01*
G01X16253083Y3667876D01*
G01X16258925Y3650858D01*
G01X16270355Y3639428D01*
G01X16281785Y3633586D01*
G01X16298803Y3633586D01*
G01X16310233Y3639428D01*
G01X16321663Y3650858D01*
G01X16369415Y3713596D02*
G01X16369415Y3593708D01*
G01X16369415Y3696578D02*
G01X16380845Y3708008D01*
G01X16392275Y3713596D01*
G01X16409547Y3713596D01*
G01X16420977Y3708008D01*
G01X16432407Y3696578D01*
G01X16437995Y3679306D01*
G01X16437995Y3667876D01*
G01X16432407Y3650858D01*
G01X16420977Y3639428D01*
G01X16409547Y3633586D01*
G01X16392275Y3633586D01*
G01X16380845Y3639428D01*
G01X16369415Y3650858D01*
G01X16485747Y3679306D02*
G01X16554327Y3679306D01*
G01X16554327Y3690736D01*
G01X16548739Y3702166D01*
G01X16542897Y3708008D01*
G01X16531467Y3713596D01*
G01X16514449Y3713596D01*
G01X16503019Y3708008D01*
G01X16491589Y3696578D01*
G01X16485747Y3679306D01*
G01X16485747Y3667876D01*
G01X16491589Y3650858D01*
G01X16503019Y3639428D01*
G01X16514449Y3633586D01*
G01X16531467Y3633586D01*
G01X16542897Y3639428D01*
G01X16554327Y3650858D01*
G01X17445758Y3753728D02*
G01X17491478Y3633586D01*
G01X17537198Y3753728D02*
G01X17491478Y3633586D01*
G01X17584950Y3753728D02*
G01X17590792Y3747886D01*
G01X17596380Y3753728D01*
G01X17590792Y3759316D01*
G01X17584950Y3753728D01*
G01X17590792Y3713596D02*
G01X17590792Y3633586D01*
G01X17712712Y3713596D02*
G01X17712712Y3633586D01*
G01X17712712Y3696578D02*
G01X17701282Y3708008D01*
G01X17689852Y3713596D01*
G01X17672834Y3713596D01*
G01X17661404Y3708008D01*
G01X17649974Y3696578D01*
G01X17644132Y3679306D01*
G01X17644132Y3667876D01*
G01X17649974Y3650858D01*
G01X17661404Y3639428D01*
G01X17672834Y3633586D01*
G01X17689852Y3633586D01*
G01X17701282Y3639428D01*
G01X17712712Y3650858D01*
G01X17863334Y3776588D02*
G01X17760464Y3593708D01*
G01X17911086Y3753728D02*
G01X17911086Y3633586D01*
G01X17911086Y3753728D02*
G01X17962648Y3753728D01*
G01X17979666Y3747886D01*
G01X17985508Y3742298D01*
G01X17991096Y3730868D01*
G01X17991096Y3713596D01*
G01X17985508Y3702166D01*
G01X17979666Y3696578D01*
G01X17962648Y3690736D01*
G01X17911086Y3690736D01*
G01X18107428Y3713596D02*
G01X18107428Y3633586D01*
G01X18107428Y3696578D02*
G01X18095998Y3708008D01*
G01X18084568Y3713596D01*
G01X18067550Y3713596D01*
G01X18056120Y3708008D01*
G01X18044690Y3696578D01*
G01X18038848Y3679306D01*
G01X18038848Y3667876D01*
G01X18044690Y3650858D01*
G01X18056120Y3639428D01*
G01X18067550Y3633586D01*
G01X18084568Y3633586D01*
G01X18095998Y3639428D01*
G01X18107428Y3650858D01*
G01X18223760Y3753728D02*
G01X18223760Y3633586D01*
G01X18223760Y3696578D02*
G01X18212330Y3708008D01*
G01X18200900Y3713596D01*
G01X18183882Y3713596D01*
G01X18172452Y3708008D01*
G01X18161022Y3696578D01*
G01X18155180Y3679306D01*
G01X18155180Y3667876D01*
G01X18161022Y3650858D01*
G01X18172452Y3639428D01*
G01X18183882Y3633586D01*
G01X18200900Y3633586D01*
G01X18212330Y3639428D01*
G01X18223760Y3650858D01*
G01X19114937Y3753728D02*
G01X19114937Y3633586D01*
G01X19114937Y3753728D02*
G01X19166499Y3753728D01*
G01X19183517Y3747886D01*
G01X19189359Y3742298D01*
G01X19194947Y3730868D01*
G01X19194947Y3713596D01*
G01X19189359Y3702166D01*
G01X19183517Y3696578D01*
G01X19166499Y3690736D01*
G01X19114937Y3690736D01*
G01X19311279Y3713596D02*
G01X19311279Y3633586D01*
G01X19311279Y3696578D02*
G01X19299849Y3708008D01*
G01X19288419Y3713596D01*
G01X19271401Y3713596D01*
G01X19259971Y3708008D01*
G01X19248541Y3696578D01*
G01X19242699Y3679306D01*
G01X19242699Y3667876D01*
G01X19248541Y3650858D01*
G01X19259971Y3639428D01*
G01X19271401Y3633586D01*
G01X19288419Y3633586D01*
G01X19299849Y3639428D01*
G01X19311279Y3650858D01*
G01X19427611Y3753728D02*
G01X19427611Y3633586D01*
G01X19427611Y3696578D02*
G01X19416181Y3708008D01*
G01X19404751Y3713596D01*
G01X19387733Y3713596D01*
G01X19376303Y3708008D01*
G01X19364873Y3696578D01*
G01X19359031Y3679306D01*
G01X19359031Y3667876D01*
G01X19364873Y3650858D01*
G01X19376303Y3639428D01*
G01X19387733Y3633586D01*
G01X19404751Y3633586D01*
G01X19416181Y3639428D01*
G01X19427611Y3650858D01*
G01X19683389Y3736456D02*
G01X19671959Y3747886D01*
G01X19654941Y3753728D01*
G01X19632081Y3753728D01*
G01X19614809Y3747886D01*
G01X19603379Y3736456D01*
G01X19603379Y3725026D01*
G01X19609221Y3713596D01*
G01X19614809Y3708008D01*
G01X19626239Y3702166D01*
G01X19660529Y3690736D01*
G01X19671959Y3685148D01*
G01X19677801Y3679306D01*
G01X19683389Y3667876D01*
G01X19683389Y3650858D01*
G01X19671959Y3639428D01*
G01X19654941Y3633586D01*
G01X19632081Y3633586D01*
G01X19614809Y3639428D01*
G01X19603379Y3650858D01*
G01X19731141Y3753728D02*
G01X19731141Y3633586D01*
G01X19731141Y3690736D02*
G01X19748413Y3708008D01*
G01X19759843Y3713596D01*
G01X19776861Y3713596D01*
G01X19788291Y3708008D01*
G01X19794133Y3690736D01*
G01X19794133Y3633586D01*
G01X19910465Y3713596D02*
G01X19910465Y3633586D01*
G01X19910465Y3696578D02*
G01X19899035Y3708008D01*
G01X19887605Y3713596D01*
G01X19870587Y3713596D01*
G01X19859157Y3708008D01*
G01X19847727Y3696578D01*
G01X19841885Y3679306D01*
G01X19841885Y3667876D01*
G01X19847727Y3650858D01*
G01X19859157Y3639428D01*
G01X19870587Y3633586D01*
G01X19887605Y3633586D01*
G01X19899035Y3639428D01*
G01X19910465Y3650858D01*
G01X19958217Y3713596D02*
G01X19958217Y3593708D01*
G01X19958217Y3696578D02*
G01X19969647Y3708008D01*
G01X19981077Y3713596D01*
G01X19998349Y3713596D01*
G01X20009779Y3708008D01*
G01X20021209Y3696578D01*
G01X20026797Y3679306D01*
G01X20026797Y3667876D01*
G01X20021209Y3650858D01*
G01X20009779Y3639428D01*
G01X19998349Y3633586D01*
G01X19981077Y3633586D01*
G01X19969647Y3639428D01*
G01X19958217Y3650858D01*
G01X20074549Y3679306D02*
G01X20143129Y3679306D01*
G01X20143129Y3690736D01*
G01X20137541Y3702166D01*
G01X20131699Y3708008D01*
G01X20120269Y3713596D01*
G01X20103251Y3713596D01*
G01X20091821Y3708008D01*
G01X20080391Y3696578D01*
G01X20074549Y3679306D01*
G01X20074549Y3667876D01*
G01X20080391Y3650858D01*
G01X20091821Y3639428D01*
G01X20103251Y3633586D01*
G01X20120269Y3633586D01*
G01X20131699Y3639428D01*
G01X20143129Y3650858D01*
G01X21034306Y3753728D02*
G01X21034306Y3633586D01*
G01X21034306Y3633586D02*
G01X21102886Y3633586D01*
G01X21219218Y3713596D02*
G01X21219218Y3633586D01*
G01X21219218Y3696578D02*
G01X21207788Y3708008D01*
G01X21196358Y3713596D01*
G01X21179340Y3713596D01*
G01X21167910Y3708008D01*
G01X21156480Y3696578D01*
G01X21150638Y3679306D01*
G01X21150638Y3667876D01*
G01X21156480Y3650858D01*
G01X21167910Y3639428D01*
G01X21179340Y3633586D01*
G01X21196358Y3633586D01*
G01X21207788Y3639428D01*
G01X21219218Y3650858D01*
G01X21272812Y3713596D02*
G01X21307102Y3633586D01*
G01X21341392Y3713596D02*
G01X21307102Y3633586D01*
G01X21295672Y3610726D01*
G01X21284242Y3599296D01*
G01X21272812Y3593708D01*
G01X21266970Y3593708D01*
G01X21389144Y3679306D02*
G01X21457724Y3679306D01*
G01X21457724Y3690736D01*
G01X21452136Y3702166D01*
G01X21446294Y3708008D01*
G01X21434864Y3713596D01*
G01X21417846Y3713596D01*
G01X21406416Y3708008D01*
G01X21394986Y3696578D01*
G01X21389144Y3679306D01*
G01X21389144Y3667876D01*
G01X21394986Y3650858D01*
G01X21406416Y3639428D01*
G01X21417846Y3633586D01*
G01X21434864Y3633586D01*
G01X21446294Y3639428D01*
G01X21457724Y3650858D01*
G01X21505476Y3713596D02*
G01X21505476Y3633586D01*
G01X21505476Y3679306D02*
G01X21511318Y3696578D01*
G01X21522748Y3708008D01*
G01X21534178Y3713596D01*
G01X21551196Y3713596D01*
G01X21726964Y3753728D02*
G01X21726964Y3633586D01*
G01X21726964Y3753728D02*
G01X21778526Y3753728D01*
G01X21795544Y3747886D01*
G01X21801386Y3742298D01*
G01X21806974Y3730868D01*
G01X21806974Y3713596D01*
G01X21801386Y3702166D01*
G01X21795544Y3696578D01*
G01X21778526Y3690736D01*
G01X21726964Y3690736D01*
G01X21923306Y3713596D02*
G01X21923306Y3633586D01*
G01X21923306Y3696578D02*
G01X21911876Y3708008D01*
G01X21900446Y3713596D01*
G01X21883428Y3713596D01*
G01X21871998Y3708008D01*
G01X21860568Y3696578D01*
G01X21854726Y3679306D01*
G01X21854726Y3667876D01*
G01X21860568Y3650858D01*
G01X21871998Y3639428D01*
G01X21883428Y3633586D01*
G01X21900446Y3633586D01*
G01X21911876Y3639428D01*
G01X21923306Y3650858D01*
G01X21971058Y3753728D02*
G01X21976900Y3747886D01*
G01X21982488Y3753728D01*
G01X21976900Y3759316D01*
G01X21971058Y3753728D01*
G01X21976900Y3713596D02*
G01X21976900Y3633586D01*
G01X22030240Y3713596D02*
G01X22030240Y3633586D01*
G01X22030240Y3679306D02*
G01X22036082Y3696578D01*
G01X22047512Y3708008D01*
G01X22058942Y3713596D01*
G01X22075960Y3713596D01*
G01X9308287Y3173156D02*
G01X9251137Y3093146D01*
G01X9336989Y3093146D01*
G01X9308287Y3173156D02*
G01X9308287Y3053014D01*
G01X10671142Y3144454D02*
G01X10671142Y3150296D01*
G01X10676730Y3161726D01*
G01X10682572Y3167314D01*
G01X10694002Y3173156D01*
G01X10716862Y3173156D01*
G01X10728292Y3167314D01*
G01X10733880Y3161726D01*
G01X10739722Y3150296D01*
G01X10739722Y3138866D01*
G01X10733880Y3127436D01*
G01X10722450Y3110164D01*
G01X10665300Y3053014D01*
G01X10745310Y3053014D01*
G01X10804492Y3173156D02*
G01X10867484Y3173156D01*
G01X10833194Y3127436D01*
G01X10850212Y3127436D01*
G01X10861642Y3121594D01*
G01X10867484Y3116006D01*
G01X10873072Y3098734D01*
G01X10873072Y3087304D01*
G01X10867484Y3070286D01*
G01X10856054Y3058856D01*
G01X10838782Y3053014D01*
G01X10821764Y3053014D01*
G01X10804492Y3058856D01*
G01X10798904Y3064444D01*
G01X10793062Y3075874D01*
G01X10926666Y3081716D02*
G01X10920824Y3075874D01*
G01X10926666Y3070286D01*
G01X10932254Y3075874D01*
G01X10926666Y3081716D01*
G01X11048586Y3155884D02*
G01X11042998Y3167314D01*
G01X11025726Y3173156D01*
G01X11014296Y3173156D01*
G01X10997278Y3167314D01*
G01X10985848Y3150296D01*
G01X10980006Y3121594D01*
G01X10980006Y3093146D01*
G01X10985848Y3070286D01*
G01X10997278Y3058856D01*
G01X11014296Y3053014D01*
G01X11020138Y3053014D01*
G01X11037156Y3058856D01*
G01X11048586Y3070286D01*
G01X11054428Y3087304D01*
G01X11054428Y3093146D01*
G01X11048586Y3110164D01*
G01X11037156Y3121594D01*
G01X11020138Y3127436D01*
G01X11014296Y3127436D01*
G01X10997278Y3121594D01*
G01X10985848Y3110164D01*
G01X10980006Y3093146D01*
G01X11102180Y3133024D02*
G01X11165172Y3053014D01*
G01X11165172Y3133024D02*
G01X11102180Y3053014D01*
G01X11281504Y3173156D02*
G01X11224354Y3173156D01*
G01X11218766Y3121594D01*
G01X11224354Y3127436D01*
G01X11241626Y3133024D01*
G01X11258644Y3133024D01*
G01X11275916Y3127436D01*
G01X11287346Y3116006D01*
G01X11292934Y3098734D01*
G01X11292934Y3087304D01*
G01X11287346Y3070286D01*
G01X11275916Y3058856D01*
G01X11258644Y3053014D01*
G01X11241626Y3053014D01*
G01X11224354Y3058856D01*
G01X11218766Y3064444D01*
G01X11212924Y3075874D01*
G01X11415108Y3133024D02*
G01X11409266Y3116006D01*
G01X11397836Y3104576D01*
G01X11380818Y3098734D01*
G01X11374976Y3098734D01*
G01X11357958Y3104576D01*
G01X11346528Y3116006D01*
G01X11340686Y3133024D01*
G01X11340686Y3138866D01*
G01X11346528Y3155884D01*
G01X11357958Y3167314D01*
G01X11374976Y3173156D01*
G01X11380818Y3173156D01*
G01X11397836Y3167314D01*
G01X11409266Y3155884D01*
G01X11415108Y3133024D01*
G01X11415108Y3104576D01*
G01X11409266Y3075874D01*
G01X11397836Y3058856D01*
G01X11380818Y3053014D01*
G01X11369388Y3053014D01*
G01X11352116Y3058856D01*
G01X11346528Y3070286D01*
G01X11468702Y3081716D02*
G01X11462860Y3075874D01*
G01X11468702Y3070286D01*
G01X11474290Y3075874D01*
G01X11468702Y3081716D01*
G01X11522042Y3150296D02*
G01X11533472Y3155884D01*
G01X11550744Y3173156D01*
G01X11550744Y3053014D01*
G01X11598496Y3133024D02*
G01X11598496Y3053014D01*
G01X11598496Y3110164D02*
G01X11615768Y3127436D01*
G01X11627198Y3133024D01*
G01X11644216Y3133024D01*
G01X11655646Y3127436D01*
G01X11661488Y3110164D01*
G01X11661488Y3053014D01*
G01X11661488Y3110164D02*
G01X11678506Y3127436D01*
G01X11689936Y3133024D01*
G01X11707208Y3133024D01*
G01X11718638Y3127436D01*
G01X11724226Y3110164D01*
G01X11724226Y3053014D01*
G01X11771978Y3173156D02*
G01X11777820Y3167314D01*
G01X11783408Y3173156D01*
G01X11777820Y3178744D01*
G01X11771978Y3173156D01*
G01X11777820Y3133024D02*
G01X11777820Y3053014D01*
G01X11831160Y3173156D02*
G01X11831160Y3053014D01*
G01X11919044Y3196016D02*
G01X11907614Y3184586D01*
G01X11896184Y3167314D01*
G01X11884754Y3144454D01*
G01X11878912Y3116006D01*
G01X11878912Y3093146D01*
G01X11884754Y3064444D01*
G01X11896184Y3041584D01*
G01X11907614Y3024566D01*
G01X11919044Y3013136D01*
G01X12001086Y3173156D02*
G01X11984068Y3167314D01*
G01X11972638Y3150296D01*
G01X11966796Y3121594D01*
G01X11966796Y3104576D01*
G01X11972638Y3075874D01*
G01X11984068Y3058856D01*
G01X12001086Y3053014D01*
G01X12012516Y3053014D01*
G01X12029788Y3058856D01*
G01X12041218Y3075874D01*
G01X12046806Y3104576D01*
G01X12046806Y3121594D01*
G01X12041218Y3150296D01*
G01X12029788Y3167314D01*
G01X12012516Y3173156D01*
G01X12001086Y3173156D01*
G01X12100400Y3081716D02*
G01X12094558Y3075874D01*
G01X12100400Y3070286D01*
G01X12105988Y3075874D01*
G01X12100400Y3081716D01*
G01X12222320Y3155884D02*
G01X12216732Y3167314D01*
G01X12199460Y3173156D01*
G01X12188030Y3173156D01*
G01X12171012Y3167314D01*
G01X12159582Y3150296D01*
G01X12153740Y3121594D01*
G01X12153740Y3093146D01*
G01X12159582Y3070286D01*
G01X12171012Y3058856D01*
G01X12188030Y3053014D01*
G01X12193872Y3053014D01*
G01X12210890Y3058856D01*
G01X12222320Y3070286D01*
G01X12228162Y3087304D01*
G01X12228162Y3093146D01*
G01X12222320Y3110164D01*
G01X12210890Y3121594D01*
G01X12193872Y3127436D01*
G01X12188030Y3127436D01*
G01X12171012Y3121594D01*
G01X12159582Y3110164D01*
G01X12153740Y3093146D01*
G01X12310204Y3173156D02*
G01X12293186Y3167314D01*
G01X12281756Y3150296D01*
G01X12275914Y3121594D01*
G01X12275914Y3104576D01*
G01X12281756Y3075874D01*
G01X12293186Y3058856D01*
G01X12310204Y3053014D01*
G01X12321634Y3053014D01*
G01X12338906Y3058856D01*
G01X12350336Y3075874D01*
G01X12355924Y3104576D01*
G01X12355924Y3121594D01*
G01X12350336Y3150296D01*
G01X12338906Y3167314D01*
G01X12321634Y3173156D01*
G01X12310204Y3173156D01*
G01X12437966Y3173156D02*
G01X12420948Y3167314D01*
G01X12409518Y3150296D01*
G01X12403676Y3121594D01*
G01X12403676Y3104576D01*
G01X12409518Y3075874D01*
G01X12420948Y3058856D01*
G01X12437966Y3053014D01*
G01X12449396Y3053014D01*
G01X12466668Y3058856D01*
G01X12478098Y3075874D01*
G01X12483686Y3104576D01*
G01X12483686Y3121594D01*
G01X12478098Y3150296D01*
G01X12466668Y3167314D01*
G01X12449396Y3173156D01*
G01X12437966Y3173156D01*
G01X12531438Y3133024D02*
G01X12594430Y3053014D01*
G01X12594430Y3133024D02*
G01X12531438Y3053014D01*
G01X12642182Y3150296D02*
G01X12653612Y3155884D01*
G01X12670884Y3173156D01*
G01X12670884Y3053014D01*
G01X12724478Y3081716D02*
G01X12718636Y3075874D01*
G01X12724478Y3070286D01*
G01X12730066Y3075874D01*
G01X12724478Y3081716D01*
G01X12846398Y3173156D02*
G01X12789248Y3173156D01*
G01X12783660Y3121594D01*
G01X12789248Y3127436D01*
G01X12806520Y3133024D01*
G01X12823538Y3133024D01*
G01X12840810Y3127436D01*
G01X12852240Y3116006D01*
G01X12857828Y3098734D01*
G01X12857828Y3087304D01*
G01X12852240Y3070286D01*
G01X12840810Y3058856D01*
G01X12823538Y3053014D01*
G01X12806520Y3053014D01*
G01X12789248Y3058856D01*
G01X12783660Y3064444D01*
G01X12777818Y3075874D01*
G01X12939870Y3173156D02*
G01X12922852Y3167314D01*
G01X12911422Y3150296D01*
G01X12905580Y3121594D01*
G01X12905580Y3104576D01*
G01X12911422Y3075874D01*
G01X12922852Y3058856D01*
G01X12939870Y3053014D01*
G01X12951300Y3053014D01*
G01X12968572Y3058856D01*
G01X12980002Y3075874D01*
G01X12985590Y3104576D01*
G01X12985590Y3121594D01*
G01X12980002Y3150296D01*
G01X12968572Y3167314D01*
G01X12951300Y3173156D01*
G01X12939870Y3173156D01*
G01X13067632Y3173156D02*
G01X13050614Y3167314D01*
G01X13039184Y3150296D01*
G01X13033342Y3121594D01*
G01X13033342Y3104576D01*
G01X13039184Y3075874D01*
G01X13050614Y3058856D01*
G01X13067632Y3053014D01*
G01X13079062Y3053014D01*
G01X13096334Y3058856D01*
G01X13107764Y3075874D01*
G01X13113352Y3104576D01*
G01X13113352Y3121594D01*
G01X13107764Y3150296D01*
G01X13096334Y3167314D01*
G01X13079062Y3173156D01*
G01X13067632Y3173156D01*
G01X13161104Y3133024D02*
G01X13161104Y3053014D01*
G01X13161104Y3110164D02*
G01X13178376Y3127436D01*
G01X13189806Y3133024D01*
G01X13206824Y3133024D01*
G01X13218254Y3127436D01*
G01X13224096Y3110164D01*
G01X13224096Y3053014D01*
G01X13224096Y3110164D02*
G01X13241114Y3127436D01*
G01X13252544Y3133024D01*
G01X13269816Y3133024D01*
G01X13281246Y3127436D01*
G01X13286834Y3110164D01*
G01X13286834Y3053014D01*
G01X13334586Y3133024D02*
G01X13334586Y3053014D01*
G01X13334586Y3110164D02*
G01X13351858Y3127436D01*
G01X13363288Y3133024D01*
G01X13380306Y3133024D01*
G01X13391736Y3127436D01*
G01X13397578Y3110164D01*
G01X13397578Y3053014D01*
G01X13397578Y3110164D02*
G01X13414596Y3127436D01*
G01X13426026Y3133024D01*
G01X13443298Y3133024D01*
G01X13454728Y3127436D01*
G01X13460316Y3110164D01*
G01X13460316Y3053014D01*
G01X13508068Y3196016D02*
G01X13519498Y3184586D01*
G01X13530928Y3167314D01*
G01X13542358Y3144454D01*
G01X13548200Y3116006D01*
G01X13548200Y3093146D01*
G01X13542358Y3064444D01*
G01X13530928Y3041584D01*
G01X13519498Y3024566D01*
G01X13508068Y3013136D01*
G01X14553170Y3173156D02*
G01X14553170Y3053014D01*
G01X14553170Y3173156D02*
G01X14604732Y3173156D01*
G01X14621750Y3167314D01*
G01X14627592Y3161726D01*
G01X14633180Y3150296D01*
G01X14633180Y3133024D01*
G01X14627592Y3121594D01*
G01X14621750Y3116006D01*
G01X14604732Y3110164D01*
G01X14553170Y3110164D01*
G01X14721064Y3173156D02*
G01X14721064Y3053014D01*
G01X14680932Y3173156D02*
G01X14760942Y3173156D01*
G01X14808694Y3173156D02*
G01X14808694Y3053014D01*
G01X14888704Y3173156D02*
G01X14888704Y3053014D01*
G01X14808694Y3116006D02*
G01X14888704Y3116006D01*
G01X16094587Y3155884D02*
G01X16083157Y3167314D01*
G01X16066139Y3173156D01*
G01X16043279Y3173156D01*
G01X16026007Y3167314D01*
G01X16014577Y3155884D01*
G01X16014577Y3144454D01*
G01X16020419Y3133024D01*
G01X16026007Y3127436D01*
G01X16037437Y3121594D01*
G01X16071727Y3110164D01*
G01X16083157Y3104576D01*
G01X16088999Y3098734D01*
G01X16094587Y3087304D01*
G01X16094587Y3070286D01*
G01X16083157Y3058856D01*
G01X16066139Y3053014D01*
G01X16043279Y3053014D01*
G01X16026007Y3058856D01*
G01X16014577Y3070286D01*
G01X16142339Y3173156D02*
G01X16142339Y3053014D01*
G01X16218793Y3133024D02*
G01X16207363Y3127436D01*
G01X16195933Y3116006D01*
G01X16190091Y3098734D01*
G01X16190091Y3087304D01*
G01X16195933Y3070286D01*
G01X16207363Y3058856D01*
G01X16218793Y3053014D01*
G01X16235811Y3053014D01*
G01X16247241Y3058856D01*
G01X16258671Y3070286D01*
G01X16264513Y3087304D01*
G01X16264513Y3098734D01*
G01X16258671Y3116006D01*
G01X16247241Y3127436D01*
G01X16235811Y3133024D01*
G01X16218793Y3133024D01*
G01X16329537Y3173156D02*
G01X16329537Y3075874D01*
G01X16335125Y3058856D01*
G01X16346555Y3053014D01*
G01X16357985Y3053014D01*
G01X16312265Y3133024D02*
G01X16352397Y3133024D01*
G01X17445758Y3173156D02*
G01X17445758Y3053014D01*
G01X17445758Y3173156D02*
G01X17497320Y3173156D01*
G01X17514338Y3167314D01*
G01X17520180Y3161726D01*
G01X17525768Y3150296D01*
G01X17525768Y3133024D01*
G01X17520180Y3121594D01*
G01X17514338Y3116006D01*
G01X17497320Y3110164D01*
G01X17445758Y3110164D01*
G01X17642100Y3133024D02*
G01X17642100Y3053014D01*
G01X17642100Y3116006D02*
G01X17630670Y3127436D01*
G01X17619240Y3133024D01*
G01X17602222Y3133024D01*
G01X17590792Y3127436D01*
G01X17579362Y3116006D01*
G01X17573520Y3098734D01*
G01X17573520Y3087304D01*
G01X17579362Y3070286D01*
G01X17590792Y3058856D01*
G01X17602222Y3053014D01*
G01X17619240Y3053014D01*
G01X17630670Y3058856D01*
G01X17642100Y3070286D01*
G01X17758432Y3173156D02*
G01X17758432Y3053014D01*
G01X17758432Y3116006D02*
G01X17747002Y3127436D01*
G01X17735572Y3133024D01*
G01X17718554Y3133024D01*
G01X17707124Y3127436D01*
G01X17695694Y3116006D01*
G01X17689852Y3098734D01*
G01X17689852Y3087304D01*
G01X17695694Y3070286D01*
G01X17707124Y3058856D01*
G01X17718554Y3053014D01*
G01X17735572Y3053014D01*
G01X17747002Y3058856D01*
G01X17758432Y3070286D01*
G01X19149227Y3173156D02*
G01X19137797Y3167314D01*
G01X19126367Y3155884D01*
G01X19120779Y3144454D01*
G01X19114937Y3127436D01*
G01X19114937Y3098734D01*
G01X19120779Y3081716D01*
G01X19126367Y3070286D01*
G01X19137797Y3058856D01*
G01X19149227Y3053014D01*
G01X19172087Y3053014D01*
G01X19183517Y3058856D01*
G01X19194947Y3070286D01*
G01X19200789Y3081716D01*
G01X19206377Y3098734D01*
G01X19206377Y3127436D01*
G01X19200789Y3144454D01*
G01X19194947Y3155884D01*
G01X19183517Y3167314D01*
G01X19172087Y3173156D01*
G01X19149227Y3173156D01*
G01X19254129Y3133024D02*
G01X19288419Y3053014D01*
G01X19322709Y3133024D02*
G01X19288419Y3053014D01*
G01X19439041Y3133024D02*
G01X19439041Y3053014D01*
G01X19439041Y3116006D02*
G01X19427611Y3127436D01*
G01X19416181Y3133024D01*
G01X19399163Y3133024D01*
G01X19387733Y3127436D01*
G01X19376303Y3116006D01*
G01X19370461Y3098734D01*
G01X19370461Y3087304D01*
G01X19376303Y3070286D01*
G01X19387733Y3058856D01*
G01X19399163Y3053014D01*
G01X19416181Y3053014D01*
G01X19427611Y3058856D01*
G01X19439041Y3070286D01*
G01X19486793Y3173156D02*
G01X19486793Y3053014D01*
G01X21074438Y3173156D02*
G01X21074438Y3053014D01*
G01X21034306Y3173156D02*
G01X21114316Y3173156D01*
G01X21190770Y3133024D02*
G01X21179340Y3127436D01*
G01X21167910Y3116006D01*
G01X21162068Y3098734D01*
G01X21162068Y3087304D01*
G01X21167910Y3070286D01*
G01X21179340Y3058856D01*
G01X21190770Y3053014D01*
G01X21207788Y3053014D01*
G01X21219218Y3058856D01*
G01X21230648Y3070286D01*
G01X21236490Y3087304D01*
G01X21236490Y3098734D01*
G01X21230648Y3116006D01*
G01X21219218Y3127436D01*
G01X21207788Y3133024D01*
G01X21190770Y3133024D01*
G01X21284242Y3133024D02*
G01X21284242Y3013136D01*
G01X21284242Y3116006D02*
G01X21295672Y3127436D01*
G01X21307102Y3133024D01*
G01X21324374Y3133024D01*
G01X21335804Y3127436D01*
G01X21347234Y3116006D01*
G01X21352822Y3098734D01*
G01X21352822Y3087304D01*
G01X21347234Y3070286D01*
G01X21335804Y3058856D01*
G01X21324374Y3053014D01*
G01X21307102Y3053014D01*
G01X21295672Y3058856D01*
G01X21284242Y3070286D01*
G01X21528590Y3173156D02*
G01X21528590Y3053014D01*
G01X21528590Y3053014D02*
G01X21597170Y3053014D01*
G01X21713502Y3133024D02*
G01X21713502Y3053014D01*
G01X21713502Y3116006D02*
G01X21702072Y3127436D01*
G01X21690642Y3133024D01*
G01X21673624Y3133024D01*
G01X21662194Y3127436D01*
G01X21650764Y3116006D01*
G01X21644922Y3098734D01*
G01X21644922Y3087304D01*
G01X21650764Y3070286D01*
G01X21662194Y3058856D01*
G01X21673624Y3053014D01*
G01X21690642Y3053014D01*
G01X21702072Y3058856D01*
G01X21713502Y3070286D01*
G01X21767096Y3133024D02*
G01X21801386Y3053014D01*
G01X21835676Y3133024D02*
G01X21801386Y3053014D01*
G01X21789956Y3030154D01*
G01X21778526Y3018724D01*
G01X21767096Y3013136D01*
G01X21761254Y3013136D01*
G01X21883428Y3098734D02*
G01X21952008Y3098734D01*
G01X21952008Y3110164D01*
G01X21946420Y3121594D01*
G01X21940578Y3127436D01*
G01X21929148Y3133024D01*
G01X21912130Y3133024D01*
G01X21900700Y3127436D01*
G01X21889270Y3116006D01*
G01X21883428Y3098734D01*
G01X21883428Y3087304D01*
G01X21889270Y3070286D01*
G01X21900700Y3058856D01*
G01X21912130Y3053014D01*
G01X21929148Y3053014D01*
G01X21940578Y3058856D01*
G01X21952008Y3070286D01*
G01X21999760Y3133024D02*
G01X21999760Y3053014D01*
G01X21999760Y3098734D02*
G01X22005602Y3116006D01*
G01X22017032Y3127436D01*
G01X22028462Y3133024D01*
G01X22045480Y3133024D01*
G01X22093232Y3104576D02*
G01X22196102Y3104576D01*
G01X22243854Y3173156D02*
G01X22243854Y3053014D01*
G01X22243854Y3173156D02*
G01X22295416Y3173156D01*
G01X22312434Y3167314D01*
G01X22318276Y3161726D01*
G01X22323864Y3150296D01*
G01X22323864Y3138866D01*
G01X22318276Y3127436D01*
G01X22312434Y3121594D01*
G01X22295416Y3116006D01*
G01X22243854Y3116006D02*
G01X22295416Y3116006D01*
G01X22312434Y3110164D01*
G01X22318276Y3104576D01*
G01X22323864Y3093146D01*
G01X22323864Y3075874D01*
G01X22318276Y3064444D01*
G01X22312434Y3058856D01*
G01X22295416Y3053014D01*
G01X22243854Y3053014D01*
G01X22400318Y3133024D02*
G01X22388888Y3127436D01*
G01X22377458Y3116006D01*
G01X22371616Y3098734D01*
G01X22371616Y3087304D01*
G01X22377458Y3070286D01*
G01X22388888Y3058856D01*
G01X22400318Y3053014D01*
G01X22417336Y3053014D01*
G01X22428766Y3058856D01*
G01X22440196Y3070286D01*
G01X22446038Y3087304D01*
G01X22446038Y3098734D01*
G01X22440196Y3116006D01*
G01X22428766Y3127436D01*
G01X22417336Y3133024D01*
G01X22400318Y3133024D01*
G01X22511062Y3173156D02*
G01X22511062Y3075874D01*
G01X22516650Y3058856D01*
G01X22528080Y3053014D01*
G01X22539510Y3053014D01*
G01X22493790Y3133024D02*
G01X22533922Y3133024D01*
G01X22604534Y3173156D02*
G01X22604534Y3075874D01*
G01X22610122Y3058856D01*
G01X22621552Y3053014D01*
G01X22632982Y3053014D01*
G01X22587262Y3133024D02*
G01X22627394Y3133024D01*
G01X22709436Y3133024D02*
G01X22698006Y3127436D01*
G01X22686576Y3116006D01*
G01X22680734Y3098734D01*
G01X22680734Y3087304D01*
G01X22686576Y3070286D01*
G01X22698006Y3058856D01*
G01X22709436Y3053014D01*
G01X22726454Y3053014D01*
G01X22737884Y3058856D01*
G01X22749314Y3070286D01*
G01X22755156Y3087304D01*
G01X22755156Y3098734D01*
G01X22749314Y3116006D01*
G01X22737884Y3127436D01*
G01X22726454Y3133024D01*
G01X22709436Y3133024D01*
G01X22802908Y3133024D02*
G01X22802908Y3053014D01*
G01X22802908Y3110164D02*
G01X22820180Y3127436D01*
G01X22831610Y3133024D01*
G01X22848628Y3133024D01*
G01X22860058Y3127436D01*
G01X22865900Y3110164D01*
G01X22865900Y3053014D01*
G01X22865900Y3110164D02*
G01X22882918Y3127436D01*
G01X22894348Y3133024D01*
G01X22911620Y3133024D01*
G01X22923050Y3127436D01*
G01X22928638Y3110164D01*
G01X22928638Y3053014D01*
G01X23104406Y3173156D02*
G01X23104406Y3053014D01*
G01X23104406Y3053014D02*
G01X23172986Y3053014D01*
G01X23289318Y3133024D02*
G01X23289318Y3053014D01*
G01X23289318Y3116006D02*
G01X23277888Y3127436D01*
G01X23266458Y3133024D01*
G01X23249440Y3133024D01*
G01X23238010Y3127436D01*
G01X23226580Y3116006D01*
G01X23220738Y3098734D01*
G01X23220738Y3087304D01*
G01X23226580Y3070286D01*
G01X23238010Y3058856D01*
G01X23249440Y3053014D01*
G01X23266458Y3053014D01*
G01X23277888Y3058856D01*
G01X23289318Y3070286D01*
G01X23342912Y3133024D02*
G01X23377202Y3053014D01*
G01X23411492Y3133024D02*
G01X23377202Y3053014D01*
G01X23365772Y3030154D01*
G01X23354342Y3018724D01*
G01X23342912Y3013136D01*
G01X23337070Y3013136D01*
G01X23459244Y3098734D02*
G01X23527824Y3098734D01*
G01X23527824Y3110164D01*
G01X23522236Y3121594D01*
G01X23516394Y3127436D01*
G01X23504964Y3133024D01*
G01X23487946Y3133024D01*
G01X23476516Y3127436D01*
G01X23465086Y3116006D01*
G01X23459244Y3098734D01*
G01X23459244Y3087304D01*
G01X23465086Y3070286D01*
G01X23476516Y3058856D01*
G01X23487946Y3053014D01*
G01X23504964Y3053014D01*
G01X23516394Y3058856D01*
G01X23527824Y3070286D01*
G01X23575576Y3133024D02*
G01X23575576Y3053014D01*
G01X23575576Y3098734D02*
G01X23581418Y3116006D01*
G01X23592848Y3127436D01*
G01X23604278Y3133024D01*
G01X23621296Y3133024D01*
G01X9308287Y2592585D02*
G01X9251137Y2512575D01*
G01X9336989Y2512575D01*
G01X9308287Y2592585D02*
G01X9308287Y2472443D01*
G01X10671142Y2563883D02*
G01X10671142Y2569725D01*
G01X10676730Y2581155D01*
G01X10682572Y2586743D01*
G01X10694002Y2592585D01*
G01X10716862Y2592585D01*
G01X10728292Y2586743D01*
G01X10733880Y2581155D01*
G01X10739722Y2569725D01*
G01X10739722Y2558295D01*
G01X10733880Y2546865D01*
G01X10722450Y2529593D01*
G01X10665300Y2472443D01*
G01X10745310Y2472443D01*
G01X10804492Y2592585D02*
G01X10867484Y2592585D01*
G01X10833194Y2546865D01*
G01X10850212Y2546865D01*
G01X10861642Y2541023D01*
G01X10867484Y2535435D01*
G01X10873072Y2518163D01*
G01X10873072Y2506733D01*
G01X10867484Y2489715D01*
G01X10856054Y2478285D01*
G01X10838782Y2472443D01*
G01X10821764Y2472443D01*
G01X10804492Y2478285D01*
G01X10798904Y2483873D01*
G01X10793062Y2495303D01*
G01X10926666Y2501145D02*
G01X10920824Y2495303D01*
G01X10926666Y2489715D01*
G01X10932254Y2495303D01*
G01X10926666Y2501145D01*
G01X11048586Y2575313D02*
G01X11042998Y2586743D01*
G01X11025726Y2592585D01*
G01X11014296Y2592585D01*
G01X10997278Y2586743D01*
G01X10985848Y2569725D01*
G01X10980006Y2541023D01*
G01X10980006Y2512575D01*
G01X10985848Y2489715D01*
G01X10997278Y2478285D01*
G01X11014296Y2472443D01*
G01X11020138Y2472443D01*
G01X11037156Y2478285D01*
G01X11048586Y2489715D01*
G01X11054428Y2506733D01*
G01X11054428Y2512575D01*
G01X11048586Y2529593D01*
G01X11037156Y2541023D01*
G01X11020138Y2546865D01*
G01X11014296Y2546865D01*
G01X10997278Y2541023D01*
G01X10985848Y2529593D01*
G01X10980006Y2512575D01*
G01X11102180Y2552453D02*
G01X11165172Y2472443D01*
G01X11165172Y2552453D02*
G01X11102180Y2472443D01*
G01X11270074Y2592585D02*
G01X11212924Y2512575D01*
G01X11298776Y2512575D01*
G01X11270074Y2592585D02*
G01X11270074Y2472443D01*
G01X11426538Y2592585D02*
G01X11369388Y2472443D01*
G01X11346528Y2592585D02*
G01X11426538Y2592585D01*
G01X11480132Y2501145D02*
G01X11474290Y2495303D01*
G01X11480132Y2489715D01*
G01X11485720Y2495303D01*
G01X11480132Y2501145D01*
G01X11539314Y2563883D02*
G01X11539314Y2569725D01*
G01X11544902Y2581155D01*
G01X11550744Y2586743D01*
G01X11562174Y2592585D01*
G01X11585034Y2592585D01*
G01X11596464Y2586743D01*
G01X11602052Y2581155D01*
G01X11607894Y2569725D01*
G01X11607894Y2558295D01*
G01X11602052Y2546865D01*
G01X11590622Y2529593D01*
G01X11533472Y2472443D01*
G01X11613482Y2472443D01*
G01X11661234Y2552453D02*
G01X11661234Y2472443D01*
G01X11661234Y2529593D02*
G01X11678506Y2546865D01*
G01X11689936Y2552453D01*
G01X11706954Y2552453D01*
G01X11718384Y2546865D01*
G01X11724226Y2529593D01*
G01X11724226Y2472443D01*
G01X11724226Y2529593D02*
G01X11741244Y2546865D01*
G01X11752674Y2552453D01*
G01X11769946Y2552453D01*
G01X11781376Y2546865D01*
G01X11786964Y2529593D01*
G01X11786964Y2472443D01*
G01X11834716Y2592585D02*
G01X11840558Y2586743D01*
G01X11846146Y2592585D01*
G01X11840558Y2598173D01*
G01X11834716Y2592585D01*
G01X11840558Y2552453D02*
G01X11840558Y2472443D01*
G01X11893898Y2592585D02*
G01X11893898Y2472443D01*
G01X11981782Y2615445D02*
G01X11970352Y2604015D01*
G01X11958922Y2586743D01*
G01X11947492Y2563883D01*
G01X11941650Y2535435D01*
G01X11941650Y2512575D01*
G01X11947492Y2483873D01*
G01X11958922Y2461013D01*
G01X11970352Y2443995D01*
G01X11981782Y2432565D01*
G01X12063824Y2592585D02*
G01X12046806Y2586743D01*
G01X12035376Y2569725D01*
G01X12029534Y2541023D01*
G01X12029534Y2524005D01*
G01X12035376Y2495303D01*
G01X12046806Y2478285D01*
G01X12063824Y2472443D01*
G01X12075254Y2472443D01*
G01X12092526Y2478285D01*
G01X12103956Y2495303D01*
G01X12109544Y2524005D01*
G01X12109544Y2541023D01*
G01X12103956Y2569725D01*
G01X12092526Y2586743D01*
G01X12075254Y2592585D01*
G01X12063824Y2592585D01*
G01X12163138Y2501145D02*
G01X12157296Y2495303D01*
G01X12163138Y2489715D01*
G01X12168726Y2495303D01*
G01X12163138Y2501145D01*
G01X12285058Y2575313D02*
G01X12279470Y2586743D01*
G01X12262198Y2592585D01*
G01X12250768Y2592585D01*
G01X12233750Y2586743D01*
G01X12222320Y2569725D01*
G01X12216478Y2541023D01*
G01X12216478Y2512575D01*
G01X12222320Y2489715D01*
G01X12233750Y2478285D01*
G01X12250768Y2472443D01*
G01X12256610Y2472443D01*
G01X12273628Y2478285D01*
G01X12285058Y2489715D01*
G01X12290900Y2506733D01*
G01X12290900Y2512575D01*
G01X12285058Y2529593D01*
G01X12273628Y2541023D01*
G01X12256610Y2546865D01*
G01X12250768Y2546865D01*
G01X12233750Y2541023D01*
G01X12222320Y2529593D01*
G01X12216478Y2512575D01*
G01X12372942Y2592585D02*
G01X12355924Y2586743D01*
G01X12344494Y2569725D01*
G01X12338652Y2541023D01*
G01X12338652Y2524005D01*
G01X12344494Y2495303D01*
G01X12355924Y2478285D01*
G01X12372942Y2472443D01*
G01X12384372Y2472443D01*
G01X12401644Y2478285D01*
G01X12413074Y2495303D01*
G01X12418662Y2524005D01*
G01X12418662Y2541023D01*
G01X12413074Y2569725D01*
G01X12401644Y2586743D01*
G01X12384372Y2592585D01*
G01X12372942Y2592585D01*
G01X12500704Y2592585D02*
G01X12483686Y2586743D01*
G01X12472256Y2569725D01*
G01X12466414Y2541023D01*
G01X12466414Y2524005D01*
G01X12472256Y2495303D01*
G01X12483686Y2478285D01*
G01X12500704Y2472443D01*
G01X12512134Y2472443D01*
G01X12529406Y2478285D01*
G01X12540836Y2495303D01*
G01X12546424Y2524005D01*
G01X12546424Y2541023D01*
G01X12540836Y2569725D01*
G01X12529406Y2586743D01*
G01X12512134Y2592585D01*
G01X12500704Y2592585D01*
G01X12594176Y2552453D02*
G01X12657168Y2472443D01*
G01X12657168Y2552453D02*
G01X12594176Y2472443D01*
G01X12704920Y2569725D02*
G01X12716350Y2575313D01*
G01X12733622Y2592585D01*
G01X12733622Y2472443D01*
G01X12787216Y2501145D02*
G01X12781374Y2495303D01*
G01X12787216Y2489715D01*
G01X12792804Y2495303D01*
G01X12787216Y2501145D01*
G01X12846398Y2563883D02*
G01X12846398Y2569725D01*
G01X12851986Y2581155D01*
G01X12857828Y2586743D01*
G01X12869258Y2592585D01*
G01X12892118Y2592585D01*
G01X12903548Y2586743D01*
G01X12909136Y2581155D01*
G01X12914978Y2569725D01*
G01X12914978Y2558295D01*
G01X12909136Y2546865D01*
G01X12897706Y2529593D01*
G01X12840556Y2472443D01*
G01X12920566Y2472443D01*
G01X13002608Y2592585D02*
G01X12985590Y2586743D01*
G01X12974160Y2569725D01*
G01X12968318Y2541023D01*
G01X12968318Y2524005D01*
G01X12974160Y2495303D01*
G01X12985590Y2478285D01*
G01X13002608Y2472443D01*
G01X13014038Y2472443D01*
G01X13031310Y2478285D01*
G01X13042740Y2495303D01*
G01X13048328Y2524005D01*
G01X13048328Y2541023D01*
G01X13042740Y2569725D01*
G01X13031310Y2586743D01*
G01X13014038Y2592585D01*
G01X13002608Y2592585D01*
G01X13130370Y2592585D02*
G01X13113352Y2586743D01*
G01X13101922Y2569725D01*
G01X13096080Y2541023D01*
G01X13096080Y2524005D01*
G01X13101922Y2495303D01*
G01X13113352Y2478285D01*
G01X13130370Y2472443D01*
G01X13141800Y2472443D01*
G01X13159072Y2478285D01*
G01X13170502Y2495303D01*
G01X13176090Y2524005D01*
G01X13176090Y2541023D01*
G01X13170502Y2569725D01*
G01X13159072Y2586743D01*
G01X13141800Y2592585D01*
G01X13130370Y2592585D01*
G01X13223842Y2552453D02*
G01X13223842Y2472443D01*
G01X13223842Y2529593D02*
G01X13241114Y2546865D01*
G01X13252544Y2552453D01*
G01X13269562Y2552453D01*
G01X13280992Y2546865D01*
G01X13286834Y2529593D01*
G01X13286834Y2472443D01*
G01X13286834Y2529593D02*
G01X13303852Y2546865D01*
G01X13315282Y2552453D01*
G01X13332554Y2552453D01*
G01X13343984Y2546865D01*
G01X13349572Y2529593D01*
G01X13349572Y2472443D01*
G01X13397324Y2552453D02*
G01X13397324Y2472443D01*
G01X13397324Y2529593D02*
G01X13414596Y2546865D01*
G01X13426026Y2552453D01*
G01X13443044Y2552453D01*
G01X13454474Y2546865D01*
G01X13460316Y2529593D01*
G01X13460316Y2472443D01*
G01X13460316Y2529593D02*
G01X13477334Y2546865D01*
G01X13488764Y2552453D01*
G01X13506036Y2552453D01*
G01X13517466Y2546865D01*
G01X13523054Y2529593D01*
G01X13523054Y2472443D01*
G01X13570806Y2615445D02*
G01X13582236Y2604015D01*
G01X13593666Y2586743D01*
G01X13605096Y2563883D01*
G01X13610938Y2535435D01*
G01X13610938Y2512575D01*
G01X13605096Y2483873D01*
G01X13593666Y2461013D01*
G01X13582236Y2443995D01*
G01X13570806Y2432565D01*
G01X14553170Y2592585D02*
G01X14553170Y2472443D01*
G01X14553170Y2592585D02*
G01X14604732Y2592585D01*
G01X14621750Y2586743D01*
G01X14627592Y2581155D01*
G01X14633180Y2569725D01*
G01X14633180Y2552453D01*
G01X14627592Y2541023D01*
G01X14621750Y2535435D01*
G01X14604732Y2529593D01*
G01X14553170Y2529593D01*
G01X14721064Y2592585D02*
G01X14721064Y2472443D01*
G01X14680932Y2592585D02*
G01X14760942Y2592585D01*
G01X14808694Y2592585D02*
G01X14808694Y2472443D01*
G01X14888704Y2592585D02*
G01X14888704Y2472443D01*
G01X14808694Y2535435D02*
G01X14888704Y2535435D01*
G01X16094587Y2575313D02*
G01X16083157Y2586743D01*
G01X16066139Y2592585D01*
G01X16043279Y2592585D01*
G01X16026007Y2586743D01*
G01X16014577Y2575313D01*
G01X16014577Y2563883D01*
G01X16020419Y2552453D01*
G01X16026007Y2546865D01*
G01X16037437Y2541023D01*
G01X16071727Y2529593D01*
G01X16083157Y2524005D01*
G01X16088999Y2518163D01*
G01X16094587Y2506733D01*
G01X16094587Y2489715D01*
G01X16083157Y2478285D01*
G01X16066139Y2472443D01*
G01X16043279Y2472443D01*
G01X16026007Y2478285D01*
G01X16014577Y2489715D01*
G01X16142339Y2592585D02*
G01X16142339Y2472443D01*
G01X16218793Y2552453D02*
G01X16207363Y2546865D01*
G01X16195933Y2535435D01*
G01X16190091Y2518163D01*
G01X16190091Y2506733D01*
G01X16195933Y2489715D01*
G01X16207363Y2478285D01*
G01X16218793Y2472443D01*
G01X16235811Y2472443D01*
G01X16247241Y2478285D01*
G01X16258671Y2489715D01*
G01X16264513Y2506733D01*
G01X16264513Y2518163D01*
G01X16258671Y2535435D01*
G01X16247241Y2546865D01*
G01X16235811Y2552453D01*
G01X16218793Y2552453D01*
G01X16329537Y2592585D02*
G01X16329537Y2495303D01*
G01X16335125Y2478285D01*
G01X16346555Y2472443D01*
G01X16357985Y2472443D01*
G01X16312265Y2552453D02*
G01X16352397Y2552453D01*
G01X17445758Y2592585D02*
G01X17445758Y2472443D01*
G01X17445758Y2592585D02*
G01X17497320Y2592585D01*
G01X17514338Y2586743D01*
G01X17520180Y2581155D01*
G01X17525768Y2569725D01*
G01X17525768Y2552453D01*
G01X17520180Y2541023D01*
G01X17514338Y2535435D01*
G01X17497320Y2529593D01*
G01X17445758Y2529593D01*
G01X17642100Y2552453D02*
G01X17642100Y2472443D01*
G01X17642100Y2535435D02*
G01X17630670Y2546865D01*
G01X17619240Y2552453D01*
G01X17602222Y2552453D01*
G01X17590792Y2546865D01*
G01X17579362Y2535435D01*
G01X17573520Y2518163D01*
G01X17573520Y2506733D01*
G01X17579362Y2489715D01*
G01X17590792Y2478285D01*
G01X17602222Y2472443D01*
G01X17619240Y2472443D01*
G01X17630670Y2478285D01*
G01X17642100Y2489715D01*
G01X17758432Y2592585D02*
G01X17758432Y2472443D01*
G01X17758432Y2535435D02*
G01X17747002Y2546865D01*
G01X17735572Y2552453D01*
G01X17718554Y2552453D01*
G01X17707124Y2546865D01*
G01X17695694Y2535435D01*
G01X17689852Y2518163D01*
G01X17689852Y2506733D01*
G01X17695694Y2489715D01*
G01X17707124Y2478285D01*
G01X17718554Y2472443D01*
G01X17735572Y2472443D01*
G01X17747002Y2478285D01*
G01X17758432Y2489715D01*
G01X19149227Y2592585D02*
G01X19137797Y2586743D01*
G01X19126367Y2575313D01*
G01X19120779Y2563883D01*
G01X19114937Y2546865D01*
G01X19114937Y2518163D01*
G01X19120779Y2501145D01*
G01X19126367Y2489715D01*
G01X19137797Y2478285D01*
G01X19149227Y2472443D01*
G01X19172087Y2472443D01*
G01X19183517Y2478285D01*
G01X19194947Y2489715D01*
G01X19200789Y2501145D01*
G01X19206377Y2518163D01*
G01X19206377Y2546865D01*
G01X19200789Y2563883D01*
G01X19194947Y2575313D01*
G01X19183517Y2586743D01*
G01X19172087Y2592585D01*
G01X19149227Y2592585D01*
G01X19254129Y2552453D02*
G01X19288419Y2472443D01*
G01X19322709Y2552453D02*
G01X19288419Y2472443D01*
G01X19439041Y2552453D02*
G01X19439041Y2472443D01*
G01X19439041Y2535435D02*
G01X19427611Y2546865D01*
G01X19416181Y2552453D01*
G01X19399163Y2552453D01*
G01X19387733Y2546865D01*
G01X19376303Y2535435D01*
G01X19370461Y2518163D01*
G01X19370461Y2506733D01*
G01X19376303Y2489715D01*
G01X19387733Y2478285D01*
G01X19399163Y2472443D01*
G01X19416181Y2472443D01*
G01X19427611Y2478285D01*
G01X19439041Y2489715D01*
G01X19486793Y2592585D02*
G01X19486793Y2472443D01*
G01X21074438Y2592585D02*
G01X21074438Y2472443D01*
G01X21034306Y2592585D02*
G01X21114316Y2592585D01*
G01X21190770Y2552453D02*
G01X21179340Y2546865D01*
G01X21167910Y2535435D01*
G01X21162068Y2518163D01*
G01X21162068Y2506733D01*
G01X21167910Y2489715D01*
G01X21179340Y2478285D01*
G01X21190770Y2472443D01*
G01X21207788Y2472443D01*
G01X21219218Y2478285D01*
G01X21230648Y2489715D01*
G01X21236490Y2506733D01*
G01X21236490Y2518163D01*
G01X21230648Y2535435D01*
G01X21219218Y2546865D01*
G01X21207788Y2552453D01*
G01X21190770Y2552453D01*
G01X21284242Y2552453D02*
G01X21284242Y2432565D01*
G01X21284242Y2535435D02*
G01X21295672Y2546865D01*
G01X21307102Y2552453D01*
G01X21324374Y2552453D01*
G01X21335804Y2546865D01*
G01X21347234Y2535435D01*
G01X21352822Y2518163D01*
G01X21352822Y2506733D01*
G01X21347234Y2489715D01*
G01X21335804Y2478285D01*
G01X21324374Y2472443D01*
G01X21307102Y2472443D01*
G01X21295672Y2478285D01*
G01X21284242Y2489715D01*
G01X21528590Y2592585D02*
G01X21528590Y2472443D01*
G01X21528590Y2472443D02*
G01X21597170Y2472443D01*
G01X21713502Y2552453D02*
G01X21713502Y2472443D01*
G01X21713502Y2535435D02*
G01X21702072Y2546865D01*
G01X21690642Y2552453D01*
G01X21673624Y2552453D01*
G01X21662194Y2546865D01*
G01X21650764Y2535435D01*
G01X21644922Y2518163D01*
G01X21644922Y2506733D01*
G01X21650764Y2489715D01*
G01X21662194Y2478285D01*
G01X21673624Y2472443D01*
G01X21690642Y2472443D01*
G01X21702072Y2478285D01*
G01X21713502Y2489715D01*
G01X21767096Y2552453D02*
G01X21801386Y2472443D01*
G01X21835676Y2552453D02*
G01X21801386Y2472443D01*
G01X21789956Y2449583D01*
G01X21778526Y2438153D01*
G01X21767096Y2432565D01*
G01X21761254Y2432565D01*
G01X21883428Y2518163D02*
G01X21952008Y2518163D01*
G01X21952008Y2529593D01*
G01X21946420Y2541023D01*
G01X21940578Y2546865D01*
G01X21929148Y2552453D01*
G01X21912130Y2552453D01*
G01X21900700Y2546865D01*
G01X21889270Y2535435D01*
G01X21883428Y2518163D01*
G01X21883428Y2506733D01*
G01X21889270Y2489715D01*
G01X21900700Y2478285D01*
G01X21912130Y2472443D01*
G01X21929148Y2472443D01*
G01X21940578Y2478285D01*
G01X21952008Y2489715D01*
G01X21999760Y2552453D02*
G01X21999760Y2472443D01*
G01X21999760Y2518163D02*
G01X22005602Y2535435D01*
G01X22017032Y2546865D01*
G01X22028462Y2552453D01*
G01X22045480Y2552453D01*
G01X22093232Y2524005D02*
G01X22196102Y2524005D01*
G01X22243854Y2592585D02*
G01X22243854Y2472443D01*
G01X22243854Y2592585D02*
G01X22295416Y2592585D01*
G01X22312434Y2586743D01*
G01X22318276Y2581155D01*
G01X22323864Y2569725D01*
G01X22323864Y2558295D01*
G01X22318276Y2546865D01*
G01X22312434Y2541023D01*
G01X22295416Y2535435D01*
G01X22243854Y2535435D02*
G01X22295416Y2535435D01*
G01X22312434Y2529593D01*
G01X22318276Y2524005D01*
G01X22323864Y2512575D01*
G01X22323864Y2495303D01*
G01X22318276Y2483873D01*
G01X22312434Y2478285D01*
G01X22295416Y2472443D01*
G01X22243854Y2472443D01*
G01X22400318Y2552453D02*
G01X22388888Y2546865D01*
G01X22377458Y2535435D01*
G01X22371616Y2518163D01*
G01X22371616Y2506733D01*
G01X22377458Y2489715D01*
G01X22388888Y2478285D01*
G01X22400318Y2472443D01*
G01X22417336Y2472443D01*
G01X22428766Y2478285D01*
G01X22440196Y2489715D01*
G01X22446038Y2506733D01*
G01X22446038Y2518163D01*
G01X22440196Y2535435D01*
G01X22428766Y2546865D01*
G01X22417336Y2552453D01*
G01X22400318Y2552453D01*
G01X22511062Y2592585D02*
G01X22511062Y2495303D01*
G01X22516650Y2478285D01*
G01X22528080Y2472443D01*
G01X22539510Y2472443D01*
G01X22493790Y2552453D02*
G01X22533922Y2552453D01*
G01X22604534Y2592585D02*
G01X22604534Y2495303D01*
G01X22610122Y2478285D01*
G01X22621552Y2472443D01*
G01X22632982Y2472443D01*
G01X22587262Y2552453D02*
G01X22627394Y2552453D01*
G01X22709436Y2552453D02*
G01X22698006Y2546865D01*
G01X22686576Y2535435D01*
G01X22680734Y2518163D01*
G01X22680734Y2506733D01*
G01X22686576Y2489715D01*
G01X22698006Y2478285D01*
G01X22709436Y2472443D01*
G01X22726454Y2472443D01*
G01X22737884Y2478285D01*
G01X22749314Y2489715D01*
G01X22755156Y2506733D01*
G01X22755156Y2518163D01*
G01X22749314Y2535435D01*
G01X22737884Y2546865D01*
G01X22726454Y2552453D01*
G01X22709436Y2552453D01*
G01X22802908Y2552453D02*
G01X22802908Y2472443D01*
G01X22802908Y2529593D02*
G01X22820180Y2546865D01*
G01X22831610Y2552453D01*
G01X22848628Y2552453D01*
G01X22860058Y2546865D01*
G01X22865900Y2529593D01*
G01X22865900Y2472443D01*
G01X22865900Y2529593D02*
G01X22882918Y2546865D01*
G01X22894348Y2552453D01*
G01X22911620Y2552453D01*
G01X22923050Y2546865D01*
G01X22928638Y2529593D01*
G01X22928638Y2472443D01*
G01X23104406Y2592585D02*
G01X23104406Y2472443D01*
G01X23104406Y2472443D02*
G01X23172986Y2472443D01*
G01X23289318Y2552453D02*
G01X23289318Y2472443D01*
G01X23289318Y2535435D02*
G01X23277888Y2546865D01*
G01X23266458Y2552453D01*
G01X23249440Y2552453D01*
G01X23238010Y2546865D01*
G01X23226580Y2535435D01*
G01X23220738Y2518163D01*
G01X23220738Y2506733D01*
G01X23226580Y2489715D01*
G01X23238010Y2478285D01*
G01X23249440Y2472443D01*
G01X23266458Y2472443D01*
G01X23277888Y2478285D01*
G01X23289318Y2489715D01*
G01X23342912Y2552453D02*
G01X23377202Y2472443D01*
G01X23411492Y2552453D02*
G01X23377202Y2472443D01*
G01X23365772Y2449583D01*
G01X23354342Y2438153D01*
G01X23342912Y2432565D01*
G01X23337070Y2432565D01*
G01X23459244Y2518163D02*
G01X23527824Y2518163D01*
G01X23527824Y2529593D01*
G01X23522236Y2541023D01*
G01X23516394Y2546865D01*
G01X23504964Y2552453D01*
G01X23487946Y2552453D01*
G01X23476516Y2546865D01*
G01X23465086Y2535435D01*
G01X23459244Y2518163D01*
G01X23459244Y2506733D01*
G01X23465086Y2489715D01*
G01X23476516Y2478285D01*
G01X23487946Y2472443D01*
G01X23504964Y2472443D01*
G01X23516394Y2478285D01*
G01X23527824Y2489715D01*
G01X23575576Y2552453D02*
G01X23575576Y2472443D01*
G01X23575576Y2518163D02*
G01X23581418Y2535435D01*
G01X23592848Y2546865D01*
G01X23604278Y2552453D01*
G01X23621296Y2552453D01*
G01X9308287Y2012013D02*
G01X9251137Y1932003D01*
G01X9336989Y1932003D01*
G01X9308287Y2012013D02*
G01X9308287Y1891871D01*
G01X10671142Y1983311D02*
G01X10671142Y1989153D01*
G01X10676730Y2000583D01*
G01X10682572Y2006171D01*
G01X10694002Y2012013D01*
G01X10716862Y2012013D01*
G01X10728292Y2006171D01*
G01X10733880Y2000583D01*
G01X10739722Y1989153D01*
G01X10739722Y1977723D01*
G01X10733880Y1966293D01*
G01X10722450Y1949021D01*
G01X10665300Y1891871D01*
G01X10745310Y1891871D01*
G01X10873072Y2012013D02*
G01X10815922Y1891871D01*
G01X10793062Y2012013D02*
G01X10873072Y2012013D01*
G01X10926666Y1920573D02*
G01X10920824Y1914731D01*
G01X10926666Y1909143D01*
G01X10932254Y1914731D01*
G01X10926666Y1920573D01*
G01X11048586Y1994741D02*
G01X11042998Y2006171D01*
G01X11025726Y2012013D01*
G01X11014296Y2012013D01*
G01X10997278Y2006171D01*
G01X10985848Y1989153D01*
G01X10980006Y1960451D01*
G01X10980006Y1932003D01*
G01X10985848Y1909143D01*
G01X10997278Y1897713D01*
G01X11014296Y1891871D01*
G01X11020138Y1891871D01*
G01X11037156Y1897713D01*
G01X11048586Y1909143D01*
G01X11054428Y1926161D01*
G01X11054428Y1932003D01*
G01X11048586Y1949021D01*
G01X11037156Y1960451D01*
G01X11020138Y1966293D01*
G01X11014296Y1966293D01*
G01X10997278Y1960451D01*
G01X10985848Y1949021D01*
G01X10980006Y1932003D01*
G01X11102180Y1971881D02*
G01X11102180Y1891871D01*
G01X11102180Y1949021D02*
G01X11119452Y1966293D01*
G01X11130882Y1971881D01*
G01X11147900Y1971881D01*
G01X11159330Y1966293D01*
G01X11165172Y1949021D01*
G01X11165172Y1891871D01*
G01X11165172Y1949021D02*
G01X11182190Y1966293D01*
G01X11193620Y1971881D01*
G01X11210892Y1971881D01*
G01X11222322Y1966293D01*
G01X11227910Y1949021D01*
G01X11227910Y1891871D01*
G01X11275662Y2012013D02*
G01X11281504Y2006171D01*
G01X11287092Y2012013D01*
G01X11281504Y2017601D01*
G01X11275662Y2012013D01*
G01X11281504Y1971881D02*
G01X11281504Y1891871D01*
G01X11334844Y2012013D02*
G01X11334844Y1891871D01*
G01X11422728Y2034873D02*
G01X11411298Y2023443D01*
G01X11399868Y2006171D01*
G01X11388438Y1983311D01*
G01X11382596Y1954863D01*
G01X11382596Y1932003D01*
G01X11388438Y1903301D01*
G01X11399868Y1880441D01*
G01X11411298Y1863423D01*
G01X11422728Y1851993D01*
G01X11504770Y2012013D02*
G01X11487752Y2006171D01*
G01X11476322Y1989153D01*
G01X11470480Y1960451D01*
G01X11470480Y1943433D01*
G01X11476322Y1914731D01*
G01X11487752Y1897713D01*
G01X11504770Y1891871D01*
G01X11516200Y1891871D01*
G01X11533472Y1897713D01*
G01X11544902Y1914731D01*
G01X11550490Y1943433D01*
G01X11550490Y1960451D01*
G01X11544902Y1989153D01*
G01X11533472Y2006171D01*
G01X11516200Y2012013D01*
G01X11504770Y2012013D01*
G01X11604084Y1920573D02*
G01X11598242Y1914731D01*
G01X11604084Y1909143D01*
G01X11609672Y1914731D01*
G01X11604084Y1920573D01*
G01X11737434Y2012013D02*
G01X11680284Y1891871D01*
G01X11657424Y2012013D02*
G01X11737434Y2012013D01*
G01X11819476Y2012013D02*
G01X11802458Y2006171D01*
G01X11791028Y1989153D01*
G01X11785186Y1960451D01*
G01X11785186Y1943433D01*
G01X11791028Y1914731D01*
G01X11802458Y1897713D01*
G01X11819476Y1891871D01*
G01X11830906Y1891871D01*
G01X11848178Y1897713D01*
G01X11859608Y1914731D01*
G01X11865196Y1943433D01*
G01X11865196Y1960451D01*
G01X11859608Y1989153D01*
G01X11848178Y2006171D01*
G01X11830906Y2012013D01*
G01X11819476Y2012013D01*
G01X11947238Y2012013D02*
G01X11930220Y2006171D01*
G01X11918790Y1989153D01*
G01X11912948Y1960451D01*
G01X11912948Y1943433D01*
G01X11918790Y1914731D01*
G01X11930220Y1897713D01*
G01X11947238Y1891871D01*
G01X11958668Y1891871D01*
G01X11975940Y1897713D01*
G01X11987370Y1914731D01*
G01X11992958Y1943433D01*
G01X11992958Y1960451D01*
G01X11987370Y1989153D01*
G01X11975940Y2006171D01*
G01X11958668Y2012013D01*
G01X11947238Y2012013D01*
G01X12040710Y1971881D02*
G01X12040710Y1891871D01*
G01X12040710Y1949021D02*
G01X12057982Y1966293D01*
G01X12069412Y1971881D01*
G01X12086430Y1971881D01*
G01X12097860Y1966293D01*
G01X12103702Y1949021D01*
G01X12103702Y1891871D01*
G01X12103702Y1949021D02*
G01X12120720Y1966293D01*
G01X12132150Y1971881D01*
G01X12149422Y1971881D01*
G01X12160852Y1966293D01*
G01X12166440Y1949021D01*
G01X12166440Y1891871D01*
G01X12214192Y1971881D02*
G01X12214192Y1891871D01*
G01X12214192Y1949021D02*
G01X12231464Y1966293D01*
G01X12242894Y1971881D01*
G01X12259912Y1971881D01*
G01X12271342Y1966293D01*
G01X12277184Y1949021D01*
G01X12277184Y1891871D01*
G01X12277184Y1949021D02*
G01X12294202Y1966293D01*
G01X12305632Y1971881D01*
G01X12322904Y1971881D01*
G01X12334334Y1966293D01*
G01X12339922Y1949021D01*
G01X12339922Y1891871D01*
G01X12387674Y2034873D02*
G01X12399104Y2023443D01*
G01X12410534Y2006171D01*
G01X12421964Y1983311D01*
G01X12427806Y1954863D01*
G01X12427806Y1932003D01*
G01X12421964Y1903301D01*
G01X12410534Y1880441D01*
G01X12399104Y1863423D01*
G01X12387674Y1851993D01*
G01X14553170Y2012013D02*
G01X14553170Y1891871D01*
G01X14553170Y2012013D02*
G01X14633180Y1891871D01*
G01X14633180Y2012013D02*
G01X14633180Y1891871D01*
G01X14680932Y2012013D02*
G01X14680932Y1891871D01*
G01X14680932Y2012013D02*
G01X14732494Y2012013D01*
G01X14749512Y2006171D01*
G01X14755354Y2000583D01*
G01X14760942Y1989153D01*
G01X14760942Y1971881D01*
G01X14755354Y1960451D01*
G01X14749512Y1954863D01*
G01X14732494Y1949021D01*
G01X14680932Y1949021D01*
G01X14848826Y2012013D02*
G01X14848826Y1891871D01*
G01X14808694Y2012013D02*
G01X14888704Y2012013D01*
G01X14936456Y2012013D02*
G01X14936456Y1891871D01*
G01X15016466Y2012013D02*
G01X15016466Y1891871D01*
G01X14936456Y1954863D02*
G01X15016466Y1954863D01*
G01X16014577Y2012013D02*
G01X16014577Y1891871D01*
G01X16014577Y2012013D02*
G01X16066139Y2012013D01*
G01X16083157Y2006171D01*
G01X16088999Y2000583D01*
G01X16094587Y1989153D01*
G01X16094587Y1977723D01*
G01X16088999Y1966293D01*
G01X16083157Y1960451D01*
G01X16066139Y1954863D01*
G01X16014577Y1954863D01*
G01X16054709Y1954863D02*
G01X16094587Y1891871D01*
G01X16171041Y1971881D02*
G01X16159611Y1966293D01*
G01X16148181Y1954863D01*
G01X16142339Y1937591D01*
G01X16142339Y1926161D01*
G01X16148181Y1909143D01*
G01X16159611Y1897713D01*
G01X16171041Y1891871D01*
G01X16188059Y1891871D01*
G01X16199489Y1897713D01*
G01X16210919Y1909143D01*
G01X16216761Y1926161D01*
G01X16216761Y1937591D01*
G01X16210919Y1954863D01*
G01X16199489Y1966293D01*
G01X16188059Y1971881D01*
G01X16171041Y1971881D01*
G01X16264513Y1971881D02*
G01X16264513Y1914731D01*
G01X16270355Y1897713D01*
G01X16281785Y1891871D01*
G01X16298803Y1891871D01*
G01X16310233Y1897713D01*
G01X16327505Y1914731D01*
G01X16327505Y1971881D02*
G01X16327505Y1891871D01*
G01X16375257Y1971881D02*
G01X16375257Y1891871D01*
G01X16375257Y1949021D02*
G01X16392529Y1966293D01*
G01X16403959Y1971881D01*
G01X16420977Y1971881D01*
G01X16432407Y1966293D01*
G01X16438249Y1949021D01*
G01X16438249Y1891871D01*
G01X16554581Y2012013D02*
G01X16554581Y1891871D01*
G01X16554581Y1954863D02*
G01X16543151Y1966293D01*
G01X16531721Y1971881D01*
G01X16514703Y1971881D01*
G01X16503273Y1966293D01*
G01X16491843Y1954863D01*
G01X16486001Y1937591D01*
G01X16486001Y1926161D01*
G01X16491843Y1909143D01*
G01X16503273Y1897713D01*
G01X16514703Y1891871D01*
G01X16531721Y1891871D01*
G01X16543151Y1897713D01*
G01X16554581Y1909143D01*
G01X17445758Y2012013D02*
G01X17491478Y1891871D01*
G01X17537198Y2012013D02*
G01X17491478Y1891871D01*
G01X17584950Y2012013D02*
G01X17590792Y2006171D01*
G01X17596380Y2012013D01*
G01X17590792Y2017601D01*
G01X17584950Y2012013D01*
G01X17590792Y1971881D02*
G01X17590792Y1891871D01*
G01X17712712Y1971881D02*
G01X17712712Y1891871D01*
G01X17712712Y1954863D02*
G01X17701282Y1966293D01*
G01X17689852Y1971881D01*
G01X17672834Y1971881D01*
G01X17661404Y1966293D01*
G01X17649974Y1954863D01*
G01X17644132Y1937591D01*
G01X17644132Y1926161D01*
G01X17649974Y1909143D01*
G01X17661404Y1897713D01*
G01X17672834Y1891871D01*
G01X17689852Y1891871D01*
G01X17701282Y1897713D01*
G01X17712712Y1909143D01*
G01X21074438Y2012013D02*
G01X21074438Y1891871D01*
G01X21034306Y2012013D02*
G01X21114316Y2012013D01*
G01X21190770Y1971881D02*
G01X21179340Y1966293D01*
G01X21167910Y1954863D01*
G01X21162068Y1937591D01*
G01X21162068Y1926161D01*
G01X21167910Y1909143D01*
G01X21179340Y1897713D01*
G01X21190770Y1891871D01*
G01X21207788Y1891871D01*
G01X21219218Y1897713D01*
G01X21230648Y1909143D01*
G01X21236490Y1926161D01*
G01X21236490Y1937591D01*
G01X21230648Y1954863D01*
G01X21219218Y1966293D01*
G01X21207788Y1971881D01*
G01X21190770Y1971881D01*
G01X21284242Y1971881D02*
G01X21284242Y1851993D01*
G01X21284242Y1954863D02*
G01X21295672Y1966293D01*
G01X21307102Y1971881D01*
G01X21324374Y1971881D01*
G01X21335804Y1966293D01*
G01X21347234Y1954863D01*
G01X21352822Y1937591D01*
G01X21352822Y1926161D01*
G01X21347234Y1909143D01*
G01X21335804Y1897713D01*
G01X21324374Y1891871D01*
G01X21307102Y1891871D01*
G01X21295672Y1897713D01*
G01X21284242Y1909143D01*
G01X21528590Y2012013D02*
G01X21528590Y1891871D01*
G01X21528590Y1891871D02*
G01X21597170Y1891871D01*
G01X21713502Y1971881D02*
G01X21713502Y1891871D01*
G01X21713502Y1954863D02*
G01X21702072Y1966293D01*
G01X21690642Y1971881D01*
G01X21673624Y1971881D01*
G01X21662194Y1966293D01*
G01X21650764Y1954863D01*
G01X21644922Y1937591D01*
G01X21644922Y1926161D01*
G01X21650764Y1909143D01*
G01X21662194Y1897713D01*
G01X21673624Y1891871D01*
G01X21690642Y1891871D01*
G01X21702072Y1897713D01*
G01X21713502Y1909143D01*
G01X21767096Y1971881D02*
G01X21801386Y1891871D01*
G01X21835676Y1971881D02*
G01X21801386Y1891871D01*
G01X21789956Y1869011D01*
G01X21778526Y1857581D01*
G01X21767096Y1851993D01*
G01X21761254Y1851993D01*
G01X21883428Y1937591D02*
G01X21952008Y1937591D01*
G01X21952008Y1949021D01*
G01X21946420Y1960451D01*
G01X21940578Y1966293D01*
G01X21929148Y1971881D01*
G01X21912130Y1971881D01*
G01X21900700Y1966293D01*
G01X21889270Y1954863D01*
G01X21883428Y1937591D01*
G01X21883428Y1926161D01*
G01X21889270Y1909143D01*
G01X21900700Y1897713D01*
G01X21912130Y1891871D01*
G01X21929148Y1891871D01*
G01X21940578Y1897713D01*
G01X21952008Y1909143D01*
G01X21999760Y1971881D02*
G01X21999760Y1891871D01*
G01X21999760Y1937591D02*
G01X22005602Y1954863D01*
G01X22017032Y1966293D01*
G01X22028462Y1971881D01*
G01X22045480Y1971881D01*
G01X22093232Y1943433D02*
G01X22196102Y1943433D01*
G01X22243854Y2012013D02*
G01X22243854Y1891871D01*
G01X22243854Y2012013D02*
G01X22295416Y2012013D01*
G01X22312434Y2006171D01*
G01X22318276Y2000583D01*
G01X22323864Y1989153D01*
G01X22323864Y1977723D01*
G01X22318276Y1966293D01*
G01X22312434Y1960451D01*
G01X22295416Y1954863D01*
G01X22243854Y1954863D02*
G01X22295416Y1954863D01*
G01X22312434Y1949021D01*
G01X22318276Y1943433D01*
G01X22323864Y1932003D01*
G01X22323864Y1914731D01*
G01X22318276Y1903301D01*
G01X22312434Y1897713D01*
G01X22295416Y1891871D01*
G01X22243854Y1891871D01*
G01X22400318Y1971881D02*
G01X22388888Y1966293D01*
G01X22377458Y1954863D01*
G01X22371616Y1937591D01*
G01X22371616Y1926161D01*
G01X22377458Y1909143D01*
G01X22388888Y1897713D01*
G01X22400318Y1891871D01*
G01X22417336Y1891871D01*
G01X22428766Y1897713D01*
G01X22440196Y1909143D01*
G01X22446038Y1926161D01*
G01X22446038Y1937591D01*
G01X22440196Y1954863D01*
G01X22428766Y1966293D01*
G01X22417336Y1971881D01*
G01X22400318Y1971881D01*
G01X22511062Y2012013D02*
G01X22511062Y1914731D01*
G01X22516650Y1897713D01*
G01X22528080Y1891871D01*
G01X22539510Y1891871D01*
G01X22493790Y1971881D02*
G01X22533922Y1971881D01*
G01X22604534Y2012013D02*
G01X22604534Y1914731D01*
G01X22610122Y1897713D01*
G01X22621552Y1891871D01*
G01X22632982Y1891871D01*
G01X22587262Y1971881D02*
G01X22627394Y1971881D01*
G01X22709436Y1971881D02*
G01X22698006Y1966293D01*
G01X22686576Y1954863D01*
G01X22680734Y1937591D01*
G01X22680734Y1926161D01*
G01X22686576Y1909143D01*
G01X22698006Y1897713D01*
G01X22709436Y1891871D01*
G01X22726454Y1891871D01*
G01X22737884Y1897713D01*
G01X22749314Y1909143D01*
G01X22755156Y1926161D01*
G01X22755156Y1937591D01*
G01X22749314Y1954863D01*
G01X22737884Y1966293D01*
G01X22726454Y1971881D01*
G01X22709436Y1971881D01*
G01X22802908Y1971881D02*
G01X22802908Y1891871D01*
G01X22802908Y1949021D02*
G01X22820180Y1966293D01*
G01X22831610Y1971881D01*
G01X22848628Y1971881D01*
G01X22860058Y1966293D01*
G01X22865900Y1949021D01*
G01X22865900Y1891871D01*
G01X22865900Y1949021D02*
G01X22882918Y1966293D01*
G01X22894348Y1971881D01*
G01X22911620Y1971881D01*
G01X22923050Y1966293D01*
G01X22928638Y1949021D01*
G01X22928638Y1891871D01*
G01X23104406Y2012013D02*
G01X23104406Y1891871D01*
G01X23104406Y1891871D02*
G01X23172986Y1891871D01*
G01X23289318Y1971881D02*
G01X23289318Y1891871D01*
G01X23289318Y1954863D02*
G01X23277888Y1966293D01*
G01X23266458Y1971881D01*
G01X23249440Y1971881D01*
G01X23238010Y1966293D01*
G01X23226580Y1954863D01*
G01X23220738Y1937591D01*
G01X23220738Y1926161D01*
G01X23226580Y1909143D01*
G01X23238010Y1897713D01*
G01X23249440Y1891871D01*
G01X23266458Y1891871D01*
G01X23277888Y1897713D01*
G01X23289318Y1909143D01*
G01X23342912Y1971881D02*
G01X23377202Y1891871D01*
G01X23411492Y1971881D02*
G01X23377202Y1891871D01*
G01X23365772Y1869011D01*
G01X23354342Y1857581D01*
G01X23342912Y1851993D01*
G01X23337070Y1851993D01*
G01X23459244Y1937591D02*
G01X23527824Y1937591D01*
G01X23527824Y1949021D01*
G01X23522236Y1960451D01*
G01X23516394Y1966293D01*
G01X23504964Y1971881D01*
G01X23487946Y1971881D01*
G01X23476516Y1966293D01*
G01X23465086Y1954863D01*
G01X23459244Y1937591D01*
G01X23459244Y1926161D01*
G01X23465086Y1909143D01*
G01X23476516Y1897713D01*
G01X23487946Y1891871D01*
G01X23504964Y1891871D01*
G01X23516394Y1897713D01*
G01X23527824Y1909143D01*
G01X23575576Y1971881D02*
G01X23575576Y1891871D01*
G01X23575576Y1937591D02*
G01X23581418Y1954863D01*
G01X23592848Y1966293D01*
G01X23604278Y1971881D01*
G01X23621296Y1971881D01*
G01X9319717Y1414170D02*
G01X9314129Y1425600D01*
G01X9296857Y1431442D01*
G01X9285427Y1431442D01*
G01X9268409Y1425600D01*
G01X9256979Y1408582D01*
G01X9251137Y1379880D01*
G01X9251137Y1351432D01*
G01X9256979Y1328572D01*
G01X9268409Y1317142D01*
G01X9285427Y1311300D01*
G01X9291269Y1311300D01*
G01X9308287Y1317142D01*
G01X9319717Y1328572D01*
G01X9325559Y1345590D01*
G01X9325559Y1351432D01*
G01X9319717Y1368450D01*
G01X9308287Y1379880D01*
G01X9291269Y1385722D01*
G01X9285427Y1385722D01*
G01X9268409Y1379880D01*
G01X9256979Y1368450D01*
G01X9251137Y1351432D01*
G01X10671142Y1402740D02*
G01X10671142Y1408582D01*
G01X10676730Y1420012D01*
G01X10682572Y1425600D01*
G01X10694002Y1431442D01*
G01X10716862Y1431442D01*
G01X10728292Y1425600D01*
G01X10733880Y1420012D01*
G01X10739722Y1408582D01*
G01X10739722Y1397152D01*
G01X10733880Y1385722D01*
G01X10722450Y1368450D01*
G01X10665300Y1311300D01*
G01X10745310Y1311300D01*
G01X10873072Y1431442D02*
G01X10815922Y1311300D01*
G01X10793062Y1431442D02*
G01X10873072Y1431442D01*
G01X10926666Y1340002D02*
G01X10920824Y1334160D01*
G01X10926666Y1328572D01*
G01X10932254Y1334160D01*
G01X10926666Y1340002D01*
G01X11048586Y1414170D02*
G01X11042998Y1425600D01*
G01X11025726Y1431442D01*
G01X11014296Y1431442D01*
G01X10997278Y1425600D01*
G01X10985848Y1408582D01*
G01X10980006Y1379880D01*
G01X10980006Y1351432D01*
G01X10985848Y1328572D01*
G01X10997278Y1317142D01*
G01X11014296Y1311300D01*
G01X11020138Y1311300D01*
G01X11037156Y1317142D01*
G01X11048586Y1328572D01*
G01X11054428Y1345590D01*
G01X11054428Y1351432D01*
G01X11048586Y1368450D01*
G01X11037156Y1379880D01*
G01X11020138Y1385722D01*
G01X11014296Y1385722D01*
G01X10997278Y1379880D01*
G01X10985848Y1368450D01*
G01X10980006Y1351432D01*
G01X11102180Y1391310D02*
G01X11165172Y1311300D01*
G01X11165172Y1391310D02*
G01X11102180Y1311300D01*
G01X11292934Y1431442D02*
G01X11235784Y1311300D01*
G01X11212924Y1431442D02*
G01X11292934Y1431442D01*
G01X11369388Y1431442D02*
G01X11352116Y1425600D01*
G01X11346528Y1414170D01*
G01X11346528Y1402740D01*
G01X11352116Y1391310D01*
G01X11363546Y1385722D01*
G01X11386406Y1379880D01*
G01X11403678Y1374292D01*
G01X11415108Y1362862D01*
G01X11420696Y1351432D01*
G01X11420696Y1334160D01*
G01X11415108Y1322730D01*
G01X11409266Y1317142D01*
G01X11392248Y1311300D01*
G01X11369388Y1311300D01*
G01X11352116Y1317142D01*
G01X11346528Y1322730D01*
G01X11340686Y1334160D01*
G01X11340686Y1351432D01*
G01X11346528Y1362862D01*
G01X11357958Y1374292D01*
G01X11374976Y1379880D01*
G01X11397836Y1385722D01*
G01X11409266Y1391310D01*
G01X11415108Y1402740D01*
G01X11415108Y1414170D01*
G01X11409266Y1425600D01*
G01X11392248Y1431442D01*
G01X11369388Y1431442D01*
G01X11474290Y1340002D02*
G01X11468448Y1334160D01*
G01X11474290Y1328572D01*
G01X11479878Y1334160D01*
G01X11474290Y1340002D01*
G01X11607640Y1431442D02*
G01X11550490Y1311300D01*
G01X11527630Y1431442D02*
G01X11607640Y1431442D01*
G01X11655392Y1391310D02*
G01X11655392Y1311300D01*
G01X11655392Y1368450D02*
G01X11672664Y1385722D01*
G01X11684094Y1391310D01*
G01X11701112Y1391310D01*
G01X11712542Y1385722D01*
G01X11718384Y1368450D01*
G01X11718384Y1311300D01*
G01X11718384Y1368450D02*
G01X11735402Y1385722D01*
G01X11746832Y1391310D01*
G01X11764104Y1391310D01*
G01X11775534Y1385722D01*
G01X11781122Y1368450D01*
G01X11781122Y1311300D01*
G01X11828874Y1431442D02*
G01X11834716Y1425600D01*
G01X11840304Y1431442D01*
G01X11834716Y1437030D01*
G01X11828874Y1431442D01*
G01X11834716Y1391310D02*
G01X11834716Y1311300D01*
G01X11888056Y1431442D02*
G01X11888056Y1311300D01*
G01X11975940Y1454302D02*
G01X11964510Y1442872D01*
G01X11953080Y1425600D01*
G01X11941650Y1402740D01*
G01X11935808Y1374292D01*
G01X11935808Y1351432D01*
G01X11941650Y1322730D01*
G01X11953080Y1299870D01*
G01X11964510Y1282852D01*
G01X11975940Y1271422D01*
G01X12057982Y1431442D02*
G01X12040964Y1425600D01*
G01X12029534Y1408582D01*
G01X12023692Y1379880D01*
G01X12023692Y1362862D01*
G01X12029534Y1334160D01*
G01X12040964Y1317142D01*
G01X12057982Y1311300D01*
G01X12069412Y1311300D01*
G01X12086684Y1317142D01*
G01X12098114Y1334160D01*
G01X12103702Y1362862D01*
G01X12103702Y1379880D01*
G01X12098114Y1408582D01*
G01X12086684Y1425600D01*
G01X12069412Y1431442D01*
G01X12057982Y1431442D01*
G01X12157296Y1340002D02*
G01X12151454Y1334160D01*
G01X12157296Y1328572D01*
G01X12162884Y1334160D01*
G01X12157296Y1340002D01*
G01X12290646Y1431442D02*
G01X12233496Y1311300D01*
G01X12210636Y1431442D02*
G01X12290646Y1431442D01*
G01X12372688Y1431442D02*
G01X12355670Y1425600D01*
G01X12344240Y1408582D01*
G01X12338398Y1379880D01*
G01X12338398Y1362862D01*
G01X12344240Y1334160D01*
G01X12355670Y1317142D01*
G01X12372688Y1311300D01*
G01X12384118Y1311300D01*
G01X12401390Y1317142D01*
G01X12412820Y1334160D01*
G01X12418408Y1362862D01*
G01X12418408Y1379880D01*
G01X12412820Y1408582D01*
G01X12401390Y1425600D01*
G01X12384118Y1431442D01*
G01X12372688Y1431442D01*
G01X12500450Y1431442D02*
G01X12483432Y1425600D01*
G01X12472002Y1408582D01*
G01X12466160Y1379880D01*
G01X12466160Y1362862D01*
G01X12472002Y1334160D01*
G01X12483432Y1317142D01*
G01X12500450Y1311300D01*
G01X12511880Y1311300D01*
G01X12529152Y1317142D01*
G01X12540582Y1334160D01*
G01X12546170Y1362862D01*
G01X12546170Y1379880D01*
G01X12540582Y1408582D01*
G01X12529152Y1425600D01*
G01X12511880Y1431442D01*
G01X12500450Y1431442D01*
G01X12593922Y1391310D02*
G01X12656914Y1311300D01*
G01X12656914Y1391310D02*
G01X12593922Y1311300D01*
G01X12710508Y1402740D02*
G01X12710508Y1408582D01*
G01X12716096Y1420012D01*
G01X12721938Y1425600D01*
G01X12733368Y1431442D01*
G01X12756228Y1431442D01*
G01X12767658Y1425600D01*
G01X12773246Y1420012D01*
G01X12779088Y1408582D01*
G01X12779088Y1397152D01*
G01X12773246Y1385722D01*
G01X12761816Y1368450D01*
G01X12704666Y1311300D01*
G01X12784676Y1311300D01*
G01X12838270Y1340002D02*
G01X12832428Y1334160D01*
G01X12838270Y1328572D01*
G01X12843858Y1334160D01*
G01X12838270Y1340002D01*
G01X12925900Y1431442D02*
G01X12908882Y1425600D01*
G01X12897452Y1408582D01*
G01X12891610Y1379880D01*
G01X12891610Y1362862D01*
G01X12897452Y1334160D01*
G01X12908882Y1317142D01*
G01X12925900Y1311300D01*
G01X12937330Y1311300D01*
G01X12954602Y1317142D01*
G01X12966032Y1334160D01*
G01X12971620Y1362862D01*
G01X12971620Y1379880D01*
G01X12966032Y1408582D01*
G01X12954602Y1425600D01*
G01X12937330Y1431442D01*
G01X12925900Y1431442D01*
G01X13053662Y1431442D02*
G01X13036644Y1425600D01*
G01X13025214Y1408582D01*
G01X13019372Y1379880D01*
G01X13019372Y1362862D01*
G01X13025214Y1334160D01*
G01X13036644Y1317142D01*
G01X13053662Y1311300D01*
G01X13065092Y1311300D01*
G01X13082364Y1317142D01*
G01X13093794Y1334160D01*
G01X13099382Y1362862D01*
G01X13099382Y1379880D01*
G01X13093794Y1408582D01*
G01X13082364Y1425600D01*
G01X13065092Y1431442D01*
G01X13053662Y1431442D01*
G01X13181424Y1431442D02*
G01X13164406Y1425600D01*
G01X13152976Y1408582D01*
G01X13147134Y1379880D01*
G01X13147134Y1362862D01*
G01X13152976Y1334160D01*
G01X13164406Y1317142D01*
G01X13181424Y1311300D01*
G01X13192854Y1311300D01*
G01X13210126Y1317142D01*
G01X13221556Y1334160D01*
G01X13227144Y1362862D01*
G01X13227144Y1379880D01*
G01X13221556Y1408582D01*
G01X13210126Y1425600D01*
G01X13192854Y1431442D01*
G01X13181424Y1431442D01*
G01X13274896Y1391310D02*
G01X13274896Y1311300D01*
G01X13274896Y1368450D02*
G01X13292168Y1385722D01*
G01X13303598Y1391310D01*
G01X13320616Y1391310D01*
G01X13332046Y1385722D01*
G01X13337888Y1368450D01*
G01X13337888Y1311300D01*
G01X13337888Y1368450D02*
G01X13354906Y1385722D01*
G01X13366336Y1391310D01*
G01X13383608Y1391310D01*
G01X13395038Y1385722D01*
G01X13400626Y1368450D01*
G01X13400626Y1311300D01*
G01X13448378Y1391310D02*
G01X13448378Y1311300D01*
G01X13448378Y1368450D02*
G01X13465650Y1385722D01*
G01X13477080Y1391310D01*
G01X13494098Y1391310D01*
G01X13505528Y1385722D01*
G01X13511370Y1368450D01*
G01X13511370Y1311300D01*
G01X13511370Y1368450D02*
G01X13528388Y1385722D01*
G01X13539818Y1391310D01*
G01X13557090Y1391310D01*
G01X13568520Y1385722D01*
G01X13574108Y1368450D01*
G01X13574108Y1311300D01*
G01X13621860Y1454302D02*
G01X13633290Y1442872D01*
G01X13644720Y1425600D01*
G01X13656150Y1402740D01*
G01X13661992Y1374292D01*
G01X13661992Y1351432D01*
G01X13656150Y1322730D01*
G01X13644720Y1299870D01*
G01X13633290Y1282852D01*
G01X13621860Y1271422D01*
G01X14553170Y1431442D02*
G01X14553170Y1311300D01*
G01X14553170Y1431442D02*
G01X14604732Y1431442D01*
G01X14621750Y1425600D01*
G01X14627592Y1420012D01*
G01X14633180Y1408582D01*
G01X14633180Y1391310D01*
G01X14627592Y1379880D01*
G01X14621750Y1374292D01*
G01X14604732Y1368450D01*
G01X14553170Y1368450D01*
G01X14721064Y1431442D02*
G01X14721064Y1311300D01*
G01X14680932Y1431442D02*
G01X14760942Y1431442D01*
G01X14808694Y1431442D02*
G01X14808694Y1311300D01*
G01X14888704Y1431442D02*
G01X14888704Y1311300D01*
G01X14808694Y1374292D02*
G01X14888704Y1374292D01*
G01X16094587Y1414170D02*
G01X16083157Y1425600D01*
G01X16066139Y1431442D01*
G01X16043279Y1431442D01*
G01X16026007Y1425600D01*
G01X16014577Y1414170D01*
G01X16014577Y1402740D01*
G01X16020419Y1391310D01*
G01X16026007Y1385722D01*
G01X16037437Y1379880D01*
G01X16071727Y1368450D01*
G01X16083157Y1362862D01*
G01X16088999Y1357020D01*
G01X16094587Y1345590D01*
G01X16094587Y1328572D01*
G01X16083157Y1317142D01*
G01X16066139Y1311300D01*
G01X16043279Y1311300D01*
G01X16026007Y1317142D01*
G01X16014577Y1328572D01*
G01X16142339Y1431442D02*
G01X16142339Y1311300D01*
G01X16218793Y1391310D02*
G01X16207363Y1385722D01*
G01X16195933Y1374292D01*
G01X16190091Y1357020D01*
G01X16190091Y1345590D01*
G01X16195933Y1328572D01*
G01X16207363Y1317142D01*
G01X16218793Y1311300D01*
G01X16235811Y1311300D01*
G01X16247241Y1317142D01*
G01X16258671Y1328572D01*
G01X16264513Y1345590D01*
G01X16264513Y1357020D01*
G01X16258671Y1374292D01*
G01X16247241Y1385722D01*
G01X16235811Y1391310D01*
G01X16218793Y1391310D01*
G01X16329537Y1431442D02*
G01X16329537Y1334160D01*
G01X16335125Y1317142D01*
G01X16346555Y1311300D01*
G01X16357985Y1311300D01*
G01X16312265Y1391310D02*
G01X16352397Y1391310D01*
G01X17445758Y1431442D02*
G01X17445758Y1311300D01*
G01X17445758Y1431442D02*
G01X17497320Y1431442D01*
G01X17514338Y1425600D01*
G01X17520180Y1420012D01*
G01X17525768Y1408582D01*
G01X17525768Y1391310D01*
G01X17520180Y1379880D01*
G01X17514338Y1374292D01*
G01X17497320Y1368450D01*
G01X17445758Y1368450D01*
G01X17642100Y1391310D02*
G01X17642100Y1311300D01*
G01X17642100Y1374292D02*
G01X17630670Y1385722D01*
G01X17619240Y1391310D01*
G01X17602222Y1391310D01*
G01X17590792Y1385722D01*
G01X17579362Y1374292D01*
G01X17573520Y1357020D01*
G01X17573520Y1345590D01*
G01X17579362Y1328572D01*
G01X17590792Y1317142D01*
G01X17602222Y1311300D01*
G01X17619240Y1311300D01*
G01X17630670Y1317142D01*
G01X17642100Y1328572D01*
G01X17758432Y1431442D02*
G01X17758432Y1311300D01*
G01X17758432Y1374292D02*
G01X17747002Y1385722D01*
G01X17735572Y1391310D01*
G01X17718554Y1391310D01*
G01X17707124Y1385722D01*
G01X17695694Y1374292D01*
G01X17689852Y1357020D01*
G01X17689852Y1345590D01*
G01X17695694Y1328572D01*
G01X17707124Y1317142D01*
G01X17718554Y1311300D01*
G01X17735572Y1311300D01*
G01X17747002Y1317142D01*
G01X17758432Y1328572D01*
G01X19149227Y1431442D02*
G01X19137797Y1425600D01*
G01X19126367Y1414170D01*
G01X19120779Y1402740D01*
G01X19114937Y1385722D01*
G01X19114937Y1357020D01*
G01X19120779Y1340002D01*
G01X19126367Y1328572D01*
G01X19137797Y1317142D01*
G01X19149227Y1311300D01*
G01X19172087Y1311300D01*
G01X19183517Y1317142D01*
G01X19194947Y1328572D01*
G01X19200789Y1340002D01*
G01X19206377Y1357020D01*
G01X19206377Y1385722D01*
G01X19200789Y1402740D01*
G01X19194947Y1414170D01*
G01X19183517Y1425600D01*
G01X19172087Y1431442D01*
G01X19149227Y1431442D01*
G01X19254129Y1391310D02*
G01X19288419Y1311300D01*
G01X19322709Y1391310D02*
G01X19288419Y1311300D01*
G01X19439041Y1391310D02*
G01X19439041Y1311300D01*
G01X19439041Y1374292D02*
G01X19427611Y1385722D01*
G01X19416181Y1391310D01*
G01X19399163Y1391310D01*
G01X19387733Y1385722D01*
G01X19376303Y1374292D01*
G01X19370461Y1357020D01*
G01X19370461Y1345590D01*
G01X19376303Y1328572D01*
G01X19387733Y1317142D01*
G01X19399163Y1311300D01*
G01X19416181Y1311300D01*
G01X19427611Y1317142D01*
G01X19439041Y1328572D01*
G01X19486793Y1431442D02*
G01X19486793Y1311300D01*
G01X21074438Y1431442D02*
G01X21074438Y1311300D01*
G01X21034306Y1431442D02*
G01X21114316Y1431442D01*
G01X21190770Y1391310D02*
G01X21179340Y1385722D01*
G01X21167910Y1374292D01*
G01X21162068Y1357020D01*
G01X21162068Y1345590D01*
G01X21167910Y1328572D01*
G01X21179340Y1317142D01*
G01X21190770Y1311300D01*
G01X21207788Y1311300D01*
G01X21219218Y1317142D01*
G01X21230648Y1328572D01*
G01X21236490Y1345590D01*
G01X21236490Y1357020D01*
G01X21230648Y1374292D01*
G01X21219218Y1385722D01*
G01X21207788Y1391310D01*
G01X21190770Y1391310D01*
G01X21284242Y1391310D02*
G01X21284242Y1271422D01*
G01X21284242Y1374292D02*
G01X21295672Y1385722D01*
G01X21307102Y1391310D01*
G01X21324374Y1391310D01*
G01X21335804Y1385722D01*
G01X21347234Y1374292D01*
G01X21352822Y1357020D01*
G01X21352822Y1345590D01*
G01X21347234Y1328572D01*
G01X21335804Y1317142D01*
G01X21324374Y1311300D01*
G01X21307102Y1311300D01*
G01X21295672Y1317142D01*
G01X21284242Y1328572D01*
G01X21528590Y1431442D02*
G01X21528590Y1311300D01*
G01X21528590Y1311300D02*
G01X21597170Y1311300D01*
G01X21713502Y1391310D02*
G01X21713502Y1311300D01*
G01X21713502Y1374292D02*
G01X21702072Y1385722D01*
G01X21690642Y1391310D01*
G01X21673624Y1391310D01*
G01X21662194Y1385722D01*
G01X21650764Y1374292D01*
G01X21644922Y1357020D01*
G01X21644922Y1345590D01*
G01X21650764Y1328572D01*
G01X21662194Y1317142D01*
G01X21673624Y1311300D01*
G01X21690642Y1311300D01*
G01X21702072Y1317142D01*
G01X21713502Y1328572D01*
G01X21767096Y1391310D02*
G01X21801386Y1311300D01*
G01X21835676Y1391310D02*
G01X21801386Y1311300D01*
G01X21789956Y1288440D01*
G01X21778526Y1277010D01*
G01X21767096Y1271422D01*
G01X21761254Y1271422D01*
G01X21883428Y1357020D02*
G01X21952008Y1357020D01*
G01X21952008Y1368450D01*
G01X21946420Y1379880D01*
G01X21940578Y1385722D01*
G01X21929148Y1391310D01*
G01X21912130Y1391310D01*
G01X21900700Y1385722D01*
G01X21889270Y1374292D01*
G01X21883428Y1357020D01*
G01X21883428Y1345590D01*
G01X21889270Y1328572D01*
G01X21900700Y1317142D01*
G01X21912130Y1311300D01*
G01X21929148Y1311300D01*
G01X21940578Y1317142D01*
G01X21952008Y1328572D01*
G01X21999760Y1391310D02*
G01X21999760Y1311300D01*
G01X21999760Y1357020D02*
G01X22005602Y1374292D01*
G01X22017032Y1385722D01*
G01X22028462Y1391310D01*
G01X22045480Y1391310D01*
G01X22093232Y1362862D02*
G01X22196102Y1362862D01*
G01X22243854Y1431442D02*
G01X22243854Y1311300D01*
G01X22243854Y1431442D02*
G01X22295416Y1431442D01*
G01X22312434Y1425600D01*
G01X22318276Y1420012D01*
G01X22323864Y1408582D01*
G01X22323864Y1397152D01*
G01X22318276Y1385722D01*
G01X22312434Y1379880D01*
G01X22295416Y1374292D01*
G01X22243854Y1374292D02*
G01X22295416Y1374292D01*
G01X22312434Y1368450D01*
G01X22318276Y1362862D01*
G01X22323864Y1351432D01*
G01X22323864Y1334160D01*
G01X22318276Y1322730D01*
G01X22312434Y1317142D01*
G01X22295416Y1311300D01*
G01X22243854Y1311300D01*
G01X22400318Y1391310D02*
G01X22388888Y1385722D01*
G01X22377458Y1374292D01*
G01X22371616Y1357020D01*
G01X22371616Y1345590D01*
G01X22377458Y1328572D01*
G01X22388888Y1317142D01*
G01X22400318Y1311300D01*
G01X22417336Y1311300D01*
G01X22428766Y1317142D01*
G01X22440196Y1328572D01*
G01X22446038Y1345590D01*
G01X22446038Y1357020D01*
G01X22440196Y1374292D01*
G01X22428766Y1385722D01*
G01X22417336Y1391310D01*
G01X22400318Y1391310D01*
G01X22511062Y1431442D02*
G01X22511062Y1334160D01*
G01X22516650Y1317142D01*
G01X22528080Y1311300D01*
G01X22539510Y1311300D01*
G01X22493790Y1391310D02*
G01X22533922Y1391310D01*
G01X22604534Y1431442D02*
G01X22604534Y1334160D01*
G01X22610122Y1317142D01*
G01X22621552Y1311300D01*
G01X22632982Y1311300D01*
G01X22587262Y1391310D02*
G01X22627394Y1391310D01*
G01X22709436Y1391310D02*
G01X22698006Y1385722D01*
G01X22686576Y1374292D01*
G01X22680734Y1357020D01*
G01X22680734Y1345590D01*
G01X22686576Y1328572D01*
G01X22698006Y1317142D01*
G01X22709436Y1311300D01*
G01X22726454Y1311300D01*
G01X22737884Y1317142D01*
G01X22749314Y1328572D01*
G01X22755156Y1345590D01*
G01X22755156Y1357020D01*
G01X22749314Y1374292D01*
G01X22737884Y1385722D01*
G01X22726454Y1391310D01*
G01X22709436Y1391310D01*
G01X22802908Y1391310D02*
G01X22802908Y1311300D01*
G01X22802908Y1368450D02*
G01X22820180Y1385722D01*
G01X22831610Y1391310D01*
G01X22848628Y1391310D01*
G01X22860058Y1385722D01*
G01X22865900Y1368450D01*
G01X22865900Y1311300D01*
G01X22865900Y1368450D02*
G01X22882918Y1385722D01*
G01X22894348Y1391310D01*
G01X22911620Y1391310D01*
G01X22923050Y1385722D01*
G01X22928638Y1368450D01*
G01X22928638Y1311300D01*
G01X23104406Y1431442D02*
G01X23104406Y1311300D01*
G01X23104406Y1311300D02*
G01X23172986Y1311300D01*
G01X23289318Y1391310D02*
G01X23289318Y1311300D01*
G01X23289318Y1374292D02*
G01X23277888Y1385722D01*
G01X23266458Y1391310D01*
G01X23249440Y1391310D01*
G01X23238010Y1385722D01*
G01X23226580Y1374292D01*
G01X23220738Y1357020D01*
G01X23220738Y1345590D01*
G01X23226580Y1328572D01*
G01X23238010Y1317142D01*
G01X23249440Y1311300D01*
G01X23266458Y1311300D01*
G01X23277888Y1317142D01*
G01X23289318Y1328572D01*
G01X23342912Y1391310D02*
G01X23377202Y1311300D01*
G01X23411492Y1391310D02*
G01X23377202Y1311300D01*
G01X23365772Y1288440D01*
G01X23354342Y1277010D01*
G01X23342912Y1271422D01*
G01X23337070Y1271422D01*
G01X23459244Y1357020D02*
G01X23527824Y1357020D01*
G01X23527824Y1368450D01*
G01X23522236Y1379880D01*
G01X23516394Y1385722D01*
G01X23504964Y1391310D01*
G01X23487946Y1391310D01*
G01X23476516Y1385722D01*
G01X23465086Y1374292D01*
G01X23459244Y1357020D01*
G01X23459244Y1345590D01*
G01X23465086Y1328572D01*
G01X23476516Y1317142D01*
G01X23487946Y1311300D01*
G01X23504964Y1311300D01*
G01X23516394Y1317142D01*
G01X23527824Y1328572D01*
G01X23575576Y1391310D02*
G01X23575576Y1311300D01*
G01X23575576Y1357020D02*
G01X23581418Y1374292D01*
G01X23592848Y1385722D01*
G01X23604278Y1391310D01*
G01X23621296Y1391310D01*
G01X9331147Y850870D02*
G01X9273997Y730728D01*
G01X9251137Y850870D02*
G01X9331147Y850870D01*
G01X10665300Y828010D02*
G01X10676730Y833598D01*
G01X10694002Y850870D01*
G01X10694002Y730728D01*
G01X10747596Y822168D02*
G01X10747596Y828010D01*
G01X10753184Y839440D01*
G01X10759026Y845028D01*
G01X10770456Y850870D01*
G01X10793316Y850870D01*
G01X10804746Y845028D01*
G01X10810334Y839440D01*
G01X10816176Y828010D01*
G01X10816176Y816580D01*
G01X10810334Y805150D01*
G01X10798904Y787878D01*
G01X10741754Y730728D01*
G01X10821764Y730728D01*
G01X10875358Y759430D02*
G01X10869516Y753588D01*
G01X10875358Y748000D01*
G01X10880946Y753588D01*
G01X10875358Y759430D01*
G01X10962988Y850870D02*
G01X10945970Y845028D01*
G01X10934540Y828010D01*
G01X10928698Y799308D01*
G01X10928698Y782290D01*
G01X10934540Y753588D01*
G01X10945970Y736570D01*
G01X10962988Y730728D01*
G01X10974418Y730728D01*
G01X10991690Y736570D01*
G01X11003120Y753588D01*
G01X11008708Y782290D01*
G01X11008708Y799308D01*
G01X11003120Y828010D01*
G01X10991690Y845028D01*
G01X10974418Y850870D01*
G01X10962988Y850870D01*
G01X11056460Y810738D02*
G01X11056460Y730728D01*
G01X11056460Y787878D02*
G01X11073732Y805150D01*
G01X11085162Y810738D01*
G01X11102180Y810738D01*
G01X11113610Y805150D01*
G01X11119452Y787878D01*
G01X11119452Y730728D01*
G01X11119452Y787878D02*
G01X11136470Y805150D01*
G01X11147900Y810738D01*
G01X11165172Y810738D01*
G01X11176602Y805150D01*
G01X11182190Y787878D01*
G01X11182190Y730728D01*
G01X11229942Y850870D02*
G01X11235784Y845028D01*
G01X11241372Y850870D01*
G01X11235784Y856458D01*
G01X11229942Y850870D01*
G01X11235784Y810738D02*
G01X11235784Y730728D01*
G01X11289124Y850870D02*
G01X11289124Y730728D01*
G01X11377008Y873730D02*
G01X11365578Y862300D01*
G01X11354148Y845028D01*
G01X11342718Y822168D01*
G01X11336876Y793720D01*
G01X11336876Y770860D01*
G01X11342718Y742158D01*
G01X11354148Y719298D01*
G01X11365578Y702280D01*
G01X11377008Y690850D01*
G01X11459050Y850870D02*
G01X11442032Y845028D01*
G01X11430602Y828010D01*
G01X11424760Y799308D01*
G01X11424760Y782290D01*
G01X11430602Y753588D01*
G01X11442032Y736570D01*
G01X11459050Y730728D01*
G01X11470480Y730728D01*
G01X11487752Y736570D01*
G01X11499182Y753588D01*
G01X11504770Y782290D01*
G01X11504770Y799308D01*
G01X11499182Y828010D01*
G01X11487752Y845028D01*
G01X11470480Y850870D01*
G01X11459050Y850870D01*
G01X11558364Y759430D02*
G01X11552522Y753588D01*
G01X11558364Y748000D01*
G01X11563952Y753588D01*
G01X11558364Y759430D01*
G01X11623134Y850870D02*
G01X11686126Y850870D01*
G01X11651836Y805150D01*
G01X11668854Y805150D01*
G01X11680284Y799308D01*
G01X11686126Y793720D01*
G01X11691714Y776448D01*
G01X11691714Y765018D01*
G01X11686126Y748000D01*
G01X11674696Y736570D01*
G01X11657424Y730728D01*
G01X11640406Y730728D01*
G01X11623134Y736570D01*
G01X11617546Y742158D01*
G01X11611704Y753588D01*
G01X11773756Y850870D02*
G01X11756738Y845028D01*
G01X11745308Y828010D01*
G01X11739466Y799308D01*
G01X11739466Y782290D01*
G01X11745308Y753588D01*
G01X11756738Y736570D01*
G01X11773756Y730728D01*
G01X11785186Y730728D01*
G01X11802458Y736570D01*
G01X11813888Y753588D01*
G01X11819476Y782290D01*
G01X11819476Y799308D01*
G01X11813888Y828010D01*
G01X11802458Y845028D01*
G01X11785186Y850870D01*
G01X11773756Y850870D01*
G01X11935808Y850870D02*
G01X11878658Y850870D01*
G01X11873070Y799308D01*
G01X11878658Y805150D01*
G01X11895930Y810738D01*
G01X11912948Y810738D01*
G01X11930220Y805150D01*
G01X11941650Y793720D01*
G01X11947238Y776448D01*
G01X11947238Y765018D01*
G01X11941650Y748000D01*
G01X11930220Y736570D01*
G01X11912948Y730728D01*
G01X11895930Y730728D01*
G01X11878658Y736570D01*
G01X11873070Y742158D01*
G01X11867228Y753588D01*
G01X11994990Y810738D02*
G01X11994990Y730728D01*
G01X11994990Y787878D02*
G01X12012262Y805150D01*
G01X12023692Y810738D01*
G01X12040710Y810738D01*
G01X12052140Y805150D01*
G01X12057982Y787878D01*
G01X12057982Y730728D01*
G01X12057982Y787878D02*
G01X12075000Y805150D01*
G01X12086430Y810738D01*
G01X12103702Y810738D01*
G01X12115132Y805150D01*
G01X12120720Y787878D01*
G01X12120720Y730728D01*
G01X12168472Y810738D02*
G01X12168472Y730728D01*
G01X12168472Y787878D02*
G01X12185744Y805150D01*
G01X12197174Y810738D01*
G01X12214192Y810738D01*
G01X12225622Y805150D01*
G01X12231464Y787878D01*
G01X12231464Y730728D01*
G01X12231464Y787878D02*
G01X12248482Y805150D01*
G01X12259912Y810738D01*
G01X12277184Y810738D01*
G01X12288614Y805150D01*
G01X12294202Y787878D01*
G01X12294202Y730728D01*
G01X12341954Y873730D02*
G01X12353384Y862300D01*
G01X12364814Y845028D01*
G01X12376244Y822168D01*
G01X12382086Y793720D01*
G01X12382086Y770860D01*
G01X12376244Y742158D01*
G01X12364814Y719298D01*
G01X12353384Y702280D01*
G01X12341954Y690850D01*
G01X14553170Y850870D02*
G01X14553170Y730728D01*
G01X14553170Y850870D02*
G01X14604732Y850870D01*
G01X14621750Y845028D01*
G01X14627592Y839440D01*
G01X14633180Y828010D01*
G01X14633180Y810738D01*
G01X14627592Y799308D01*
G01X14621750Y793720D01*
G01X14604732Y787878D01*
G01X14553170Y787878D01*
G01X14721064Y850870D02*
G01X14721064Y730728D01*
G01X14680932Y850870D02*
G01X14760942Y850870D01*
G01X14808694Y850870D02*
G01X14808694Y730728D01*
G01X14888704Y850870D02*
G01X14888704Y730728D01*
G01X14808694Y793720D02*
G01X14888704Y793720D01*
G01X16014577Y850870D02*
G01X16014577Y730728D01*
G01X16014577Y850870D02*
G01X16066139Y850870D01*
G01X16083157Y845028D01*
G01X16088999Y839440D01*
G01X16094587Y828010D01*
G01X16094587Y816580D01*
G01X16088999Y805150D01*
G01X16083157Y799308D01*
G01X16066139Y793720D01*
G01X16014577Y793720D01*
G01X16054709Y793720D02*
G01X16094587Y730728D01*
G01X16171041Y810738D02*
G01X16159611Y805150D01*
G01X16148181Y793720D01*
G01X16142339Y776448D01*
G01X16142339Y765018D01*
G01X16148181Y748000D01*
G01X16159611Y736570D01*
G01X16171041Y730728D01*
G01X16188059Y730728D01*
G01X16199489Y736570D01*
G01X16210919Y748000D01*
G01X16216761Y765018D01*
G01X16216761Y776448D01*
G01X16210919Y793720D01*
G01X16199489Y805150D01*
G01X16188059Y810738D01*
G01X16171041Y810738D01*
G01X16264513Y810738D02*
G01X16264513Y753588D01*
G01X16270355Y736570D01*
G01X16281785Y730728D01*
G01X16298803Y730728D01*
G01X16310233Y736570D01*
G01X16327505Y753588D01*
G01X16327505Y810738D02*
G01X16327505Y730728D01*
G01X16375257Y810738D02*
G01X16375257Y730728D01*
G01X16375257Y787878D02*
G01X16392529Y805150D01*
G01X16403959Y810738D01*
G01X16420977Y810738D01*
G01X16432407Y805150D01*
G01X16438249Y787878D01*
G01X16438249Y730728D01*
G01X16554581Y850870D02*
G01X16554581Y730728D01*
G01X16554581Y793720D02*
G01X16543151Y805150D01*
G01X16531721Y810738D01*
G01X16514703Y810738D01*
G01X16503273Y805150D01*
G01X16491843Y793720D01*
G01X16486001Y776448D01*
G01X16486001Y765018D01*
G01X16491843Y748000D01*
G01X16503273Y736570D01*
G01X16514703Y730728D01*
G01X16531721Y730728D01*
G01X16543151Y736570D01*
G01X16554581Y748000D01*
G01X17445758Y850870D02*
G01X17491478Y730728D01*
G01X17537198Y850870D02*
G01X17491478Y730728D01*
G01X17584950Y850870D02*
G01X17590792Y845028D01*
G01X17596380Y850870D01*
G01X17590792Y856458D01*
G01X17584950Y850870D01*
G01X17590792Y810738D02*
G01X17590792Y730728D01*
G01X17712712Y810738D02*
G01X17712712Y730728D01*
G01X17712712Y793720D02*
G01X17701282Y805150D01*
G01X17689852Y810738D01*
G01X17672834Y810738D01*
G01X17661404Y805150D01*
G01X17649974Y793720D01*
G01X17644132Y776448D01*
G01X17644132Y765018D01*
G01X17649974Y748000D01*
G01X17661404Y736570D01*
G01X17672834Y730728D01*
G01X17689852Y730728D01*
G01X17701282Y736570D01*
G01X17712712Y748000D01*
G01X21074438Y850870D02*
G01X21074438Y730728D01*
G01X21034306Y850870D02*
G01X21114316Y850870D01*
G01X21190770Y810738D02*
G01X21179340Y805150D01*
G01X21167910Y793720D01*
G01X21162068Y776448D01*
G01X21162068Y765018D01*
G01X21167910Y748000D01*
G01X21179340Y736570D01*
G01X21190770Y730728D01*
G01X21207788Y730728D01*
G01X21219218Y736570D01*
G01X21230648Y748000D01*
G01X21236490Y765018D01*
G01X21236490Y776448D01*
G01X21230648Y793720D01*
G01X21219218Y805150D01*
G01X21207788Y810738D01*
G01X21190770Y810738D01*
G01X21284242Y810738D02*
G01X21284242Y690850D01*
G01X21284242Y793720D02*
G01X21295672Y805150D01*
G01X21307102Y810738D01*
G01X21324374Y810738D01*
G01X21335804Y805150D01*
G01X21347234Y793720D01*
G01X21352822Y776448D01*
G01X21352822Y765018D01*
G01X21347234Y748000D01*
G01X21335804Y736570D01*
G01X21324374Y730728D01*
G01X21307102Y730728D01*
G01X21295672Y736570D01*
G01X21284242Y748000D01*
G01X21528590Y850870D02*
G01X21528590Y730728D01*
G01X21528590Y730728D02*
G01X21597170Y730728D01*
G01X21713502Y810738D02*
G01X21713502Y730728D01*
G01X21713502Y793720D02*
G01X21702072Y805150D01*
G01X21690642Y810738D01*
G01X21673624Y810738D01*
G01X21662194Y805150D01*
G01X21650764Y793720D01*
G01X21644922Y776448D01*
G01X21644922Y765018D01*
G01X21650764Y748000D01*
G01X21662194Y736570D01*
G01X21673624Y730728D01*
G01X21690642Y730728D01*
G01X21702072Y736570D01*
G01X21713502Y748000D01*
G01X21767096Y810738D02*
G01X21801386Y730728D01*
G01X21835676Y810738D02*
G01X21801386Y730728D01*
G01X21789956Y707868D01*
G01X21778526Y696438D01*
G01X21767096Y690850D01*
G01X21761254Y690850D01*
G01X21883428Y776448D02*
G01X21952008Y776448D01*
G01X21952008Y787878D01*
G01X21946420Y799308D01*
G01X21940578Y805150D01*
G01X21929148Y810738D01*
G01X21912130Y810738D01*
G01X21900700Y805150D01*
G01X21889270Y793720D01*
G01X21883428Y776448D01*
G01X21883428Y765018D01*
G01X21889270Y748000D01*
G01X21900700Y736570D01*
G01X21912130Y730728D01*
G01X21929148Y730728D01*
G01X21940578Y736570D01*
G01X21952008Y748000D01*
G01X21999760Y810738D02*
G01X21999760Y730728D01*
G01X21999760Y776448D02*
G01X22005602Y793720D01*
G01X22017032Y805150D01*
G01X22028462Y810738D01*
G01X22045480Y810738D01*
G01X22093232Y782290D02*
G01X22196102Y782290D01*
G01X22243854Y850870D02*
G01X22243854Y730728D01*
G01X22243854Y850870D02*
G01X22295416Y850870D01*
G01X22312434Y845028D01*
G01X22318276Y839440D01*
G01X22323864Y828010D01*
G01X22323864Y816580D01*
G01X22318276Y805150D01*
G01X22312434Y799308D01*
G01X22295416Y793720D01*
G01X22243854Y793720D02*
G01X22295416Y793720D01*
G01X22312434Y787878D01*
G01X22318276Y782290D01*
G01X22323864Y770860D01*
G01X22323864Y753588D01*
G01X22318276Y742158D01*
G01X22312434Y736570D01*
G01X22295416Y730728D01*
G01X22243854Y730728D01*
G01X22400318Y810738D02*
G01X22388888Y805150D01*
G01X22377458Y793720D01*
G01X22371616Y776448D01*
G01X22371616Y765018D01*
G01X22377458Y748000D01*
G01X22388888Y736570D01*
G01X22400318Y730728D01*
G01X22417336Y730728D01*
G01X22428766Y736570D01*
G01X22440196Y748000D01*
G01X22446038Y765018D01*
G01X22446038Y776448D01*
G01X22440196Y793720D01*
G01X22428766Y805150D01*
G01X22417336Y810738D01*
G01X22400318Y810738D01*
G01X22511062Y850870D02*
G01X22511062Y753588D01*
G01X22516650Y736570D01*
G01X22528080Y730728D01*
G01X22539510Y730728D01*
G01X22493790Y810738D02*
G01X22533922Y810738D01*
G01X22604534Y850870D02*
G01X22604534Y753588D01*
G01X22610122Y736570D01*
G01X22621552Y730728D01*
G01X22632982Y730728D01*
G01X22587262Y810738D02*
G01X22627394Y810738D01*
G01X22709436Y810738D02*
G01X22698006Y805150D01*
G01X22686576Y793720D01*
G01X22680734Y776448D01*
G01X22680734Y765018D01*
G01X22686576Y748000D01*
G01X22698006Y736570D01*
G01X22709436Y730728D01*
G01X22726454Y730728D01*
G01X22737884Y736570D01*
G01X22749314Y748000D01*
G01X22755156Y765018D01*
G01X22755156Y776448D01*
G01X22749314Y793720D01*
G01X22737884Y805150D01*
G01X22726454Y810738D01*
G01X22709436Y810738D01*
G01X22802908Y810738D02*
G01X22802908Y730728D01*
G01X22802908Y787878D02*
G01X22820180Y805150D01*
G01X22831610Y810738D01*
G01X22848628Y810738D01*
G01X22860058Y805150D01*
G01X22865900Y787878D01*
G01X22865900Y730728D01*
G01X22865900Y787878D02*
G01X22882918Y805150D01*
G01X22894348Y810738D01*
G01X22911620Y810738D01*
G01X22923050Y805150D01*
G01X22928638Y787878D01*
G01X22928638Y730728D01*
G01X23104406Y850870D02*
G01X23104406Y730728D01*
G01X23104406Y730728D02*
G01X23172986Y730728D01*
G01X23289318Y810738D02*
G01X23289318Y730728D01*
G01X23289318Y793720D02*
G01X23277888Y805150D01*
G01X23266458Y810738D01*
G01X23249440Y810738D01*
G01X23238010Y805150D01*
G01X23226580Y793720D01*
G01X23220738Y776448D01*
G01X23220738Y765018D01*
G01X23226580Y748000D01*
G01X23238010Y736570D01*
G01X23249440Y730728D01*
G01X23266458Y730728D01*
G01X23277888Y736570D01*
G01X23289318Y748000D01*
G01X23342912Y810738D02*
G01X23377202Y730728D01*
G01X23411492Y810738D02*
G01X23377202Y730728D01*
G01X23365772Y707868D01*
G01X23354342Y696438D01*
G01X23342912Y690850D01*
G01X23337070Y690850D01*
G01X23459244Y776448D02*
G01X23527824Y776448D01*
G01X23527824Y787878D01*
G01X23522236Y799308D01*
G01X23516394Y805150D01*
G01X23504964Y810738D01*
G01X23487946Y810738D01*
G01X23476516Y805150D01*
G01X23465086Y793720D01*
G01X23459244Y776448D01*
G01X23459244Y765018D01*
G01X23465086Y748000D01*
G01X23476516Y736570D01*
G01X23487946Y730728D01*
G01X23504964Y730728D01*
G01X23516394Y736570D01*
G01X23527824Y748000D01*
G01X23575576Y810738D02*
G01X23575576Y730728D01*
G01X23575576Y776448D02*
G01X23581418Y793720D01*
G01X23592848Y805150D01*
G01X23604278Y810738D01*
G01X23621296Y810738D01*

G04 Image Start*
G36*
G01X8086526Y1250830D02*
G01X7980912Y1262310D01*
G01X7938037Y1165105D01*
G01X7895162Y1262310D01*
G01X7789549Y1250830D01*
G01X7852312Y1336555D01*
G01X7812590Y1390809D01*
G01X7844083Y1390809D01*
G01X7883783Y1336555D01*
G01X7844083Y1282300D01*
G01X7910910Y1289565D01*
G01X7910910Y1289565D01*
G01X7938037Y1228071D01*
G01X7965164Y1289565D01*
G01X8031992Y1282300D01*
G01X7992292Y1336555D01*
G01X8031966Y1390784D01*
G01X7965139Y1383519D01*
G01X7938037Y1445038D01*
G01X7910910Y1383545D01*
G01X7844083Y1390809D01*
G01X7812590Y1390809D01*
G01X7789549Y1422280D01*
G01X7895187Y1410799D01*
G01X7938037Y1508005D01*
G01X7980912Y1410799D01*
G01X8086526Y1422280D01*
G01X8023762Y1336555D01*
G01X8086526Y1250830D01*
G37*
G36*
G01X7957532Y2365134D02*
G01X7949792Y2364546D01*
G01X7941949Y2364348D01*
G01X7934106Y2364546D01*
G01X7926366Y2365134D01*
G01X7918738Y2366103D01*
G01X7911233Y2367443D01*
G01X7896627Y2371199D01*
G01X7882625Y2376323D01*
G01X7869303Y2382740D01*
G01X7856737Y2390373D01*
G01X7845005Y2399146D01*
G01X7834183Y2408982D01*
G01X7824347Y2419804D01*
G01X7815574Y2431536D01*
G01X7807941Y2444101D01*
G01X7801524Y2457423D01*
G01X7796400Y2471426D01*
G01X7792645Y2486031D01*
G01X7791305Y2493537D01*
G01X7790336Y2501164D01*
G01X7789747Y2508904D01*
G01X7789549Y2516748D01*
G01X7814949Y2516748D01*
G01X7815606Y2503781D01*
G01X7817534Y2491185D01*
G01X7820668Y2479023D01*
G01X7824945Y2467361D01*
G01X7830300Y2456262D01*
G01X7836668Y2445790D01*
G01X7843986Y2436010D01*
G01X7852188Y2426987D01*
G01X7861212Y2418784D01*
G01X7870991Y2411467D01*
G01X7881463Y2405098D01*
G01X7892562Y2399744D01*
G01X7904225Y2395467D01*
G01X7916386Y2392332D01*
G01X7916386Y2392332D01*
G01X7928982Y2390404D01*
G01X7941949Y2389748D01*
G01X7954915Y2390404D01*
G01X7967511Y2392332D01*
G01X7979673Y2395467D01*
G01X7991335Y2399744D01*
G01X8002435Y2405098D01*
G01X8012906Y2411467D01*
G01X8022686Y2418784D01*
G01X8031709Y2426987D01*
G01X8039912Y2436010D01*
G01X8047230Y2445790D01*
G01X8053598Y2456262D01*
G01X8058953Y2467361D01*
G01X8063229Y2479023D01*
G01X8066364Y2491185D01*
G01X8068292Y2503781D01*
G01X8068949Y2516748D01*
G01X8068292Y2529714D01*
G01X8066364Y2542310D01*
G01X8063229Y2554472D01*
G01X8058953Y2566134D01*
G01X8053598Y2577233D01*
G01X8047230Y2587705D01*
G01X8039912Y2597485D01*
G01X8031709Y2606508D01*
G01X8022686Y2614711D01*
G01X8012906Y2622028D01*
G01X8002435Y2628397D01*
G01X7991335Y2633751D01*
G01X7979673Y2638028D01*
G01X7967511Y2641163D01*
G01X7954915Y2643091D01*
G01X7941949Y2643748D01*
G01X7928982Y2643091D01*
G01X7916386Y2641163D01*
G01X7904225Y2638028D01*
G01X7892562Y2633751D01*
G01X7881463Y2628397D01*
G01X7870991Y2622028D01*
G01X7861212Y2614711D01*
G01X7852188Y2606508D01*
G01X7843986Y2597485D01*
G01X7836668Y2587705D01*
G01X7830300Y2577233D01*
G01X7824945Y2566134D01*
G01X7820668Y2554472D01*
G01X7817534Y2542310D01*
G01X7815606Y2529714D01*
G01X7814949Y2516748D01*
G01X7789549Y2516748D01*
G01X7789747Y2524591D01*
G01X7790336Y2532331D01*
G01X7791305Y2539958D01*
G01X7792645Y2547464D01*
G01X7796400Y2562069D01*
G01X7801524Y2576072D01*
G01X7807941Y2589394D01*
G01X7815574Y2601959D01*
G01X7824347Y2613691D01*
G01X7834183Y2624513D01*
G01X7845005Y2634349D01*
G01X7856737Y2643122D01*
G01X7869303Y2650755D01*
G01X7882625Y2657172D01*
G01X7896627Y2662297D01*
G01X7911233Y2666052D01*
G01X7918738Y2667392D01*
G01X7926366Y2668361D01*
G01X7934106Y2668949D01*
G01X7941949Y2669148D01*
G01X7949792Y2668949D01*
G01X7957532Y2668361D01*
G01X7965159Y2667392D01*
G01X7972665Y2666052D01*
G01X7987271Y2662297D01*
G01X8001273Y2657172D01*
G01X8014595Y2650755D01*
G01X8027160Y2643122D01*
G01X8038892Y2634349D01*
G01X8049715Y2624513D01*
G01X8059550Y2613691D01*
G01X8068323Y2601959D01*
G01X8075956Y2589394D01*
G01X8082373Y2576072D01*
G01X8087498Y2562069D01*
G01X8091253Y2547464D01*
G01X8092593Y2539958D01*
G01X8093562Y2532331D01*
G01X8094150Y2524591D01*
G01X8094349Y2516748D01*
G01X8094150Y2508904D01*
G01X8093562Y2501164D01*
G01X8092593Y2493537D01*
G01X8091253Y2486031D01*
G01X8087498Y2471426D01*
G01X8082373Y2457423D01*
G01X8075956Y2444101D01*
G01X8068323Y2431536D01*
G01X8059550Y2419804D01*
G01X8049715Y2408982D01*
G01X8038892Y2399146D01*
G01X8027160Y2390373D01*
G01X8014595Y2382740D01*
G01X8001273Y2376323D01*
G01X7987271Y2371199D01*
G01X7972665Y2367443D01*
G01X7965159Y2366103D01*
G01X7957532Y2365134D01*
G37*
G36*
G01X8094349Y927433D02*
G01X8024321Y775033D01*
G01X8094349Y622633D01*
G01X7941949Y692661D01*
G01X7789549Y622633D01*
G01X7813312Y674348D01*
G01X7841263Y674348D01*
G01X7931332Y715750D01*
G01X7941949Y720626D01*
G01X7952566Y715750D01*
G01X8042634Y674348D01*
G01X8001232Y764416D01*
G01X7996356Y775033D01*
G01X8001232Y785650D01*
G01X8042634Y875719D01*
G01X7952566Y834317D01*
G01X7941949Y829440D01*
G01X7931332Y834317D01*
G01X7841263Y875719D01*
G01X7882665Y785650D01*
G01X7887542Y775033D01*
G01X7887542Y775033D01*
G01X7882665Y764416D01*
G01X7841263Y674348D01*
G01X7813312Y674348D01*
G01X7859577Y775033D01*
G01X7789549Y927433D01*
G01X7941949Y857405D01*
G01X8094349Y927433D01*
G37*
G36*
G01X7789549Y2088576D02*
G01X8094349Y2088576D01*
G01X7941949Y1824619D01*
G01X7804214Y2063176D01*
G01X7833542Y2063176D01*
G01X7941949Y1875419D01*
G01X8050356Y2063176D01*
G01X8050356Y2063176D01*
G01X7833542Y2063176D01*
G01X7804214Y2063176D01*
G01X7789549Y2088576D01*
G37*
G36*
G01X7789549Y3249719D02*
G01X8068949Y3249719D01*
G01X8068949Y2970319D01*
G01X7789549Y2970319D01*
G01X7789549Y3224319D01*
G01X7814949Y3224319D01*
G01X7814949Y2995719D01*
G01X8043549Y2995719D01*
G01X8043549Y3224319D01*
G01X8043549Y3224319D01*
G01X7814949Y3224319D01*
G01X7789549Y3224319D01*
G01X7789549Y3249719D01*
G37*

G04 PolygonModel Start*
G54D16*
G01X7499263Y492005D02*
G01X24212028Y492005D01*
G01X7499263Y1072576D02*
G01X24212028Y1072576D01*
G01X7499263Y1653148D02*
G01X24212028Y1653148D01*
G01X7499263Y2233719D02*
G01X24212028Y2233719D01*
G01X7499263Y2814290D02*
G01X24212028Y2814290D01*
G01X7499263Y3394862D02*
G01X24212028Y3394862D01*
G01X7499263Y3975433D02*
G01X24212028Y3975433D01*
G01X7499263Y3975433D02*
G01X7499263Y517405D01*
G01X8950692Y3975433D02*
G01X8950692Y517405D01*
G01X10364855Y3975433D02*
G01X10364855Y517405D01*
G01X14252724Y3975433D02*
G01X14252724Y517405D01*
G01X15714131Y3975433D02*
G01X15714131Y517405D01*
G01X17145312Y3975433D02*
G01X17145312Y517405D01*
G01X18814491Y3975433D02*
G01X18814491Y517405D01*
G01X20733860Y3975433D02*
G01X20733860Y517405D01*
G01X24212028Y3975433D02*
G01X24212028Y517405D01*

M02*

